<svg width="47" height="44" viewBox="0 0 47 44" fill="none" xmlns="http://www.w3.org/2000/svg">
<path d="M1.24365 2.3303C1.24365 1.54705 1.8786 0.912109 2.66184 0.912109H44.4688C45.252 0.912109 45.8869 1.54705 45.8869 2.3303V41.6693C45.8869 42.4526 45.252 43.0875 44.4688 43.0875H2.66184C1.8786 43.0875 1.24365 42.4526 1.24365 41.6693V2.3303Z" stroke="white" stroke-width="1.5"/>
<path d="M30.73 15.2283C30.73 14.4329 31.3748 13.7881 32.1702 13.7881H36.6478C37.4433 13.7881 38.0881 14.4329 38.0881 15.2283V27.6426H30.73V15.2283Z" stroke="white" stroke-width="1.5"/>
<path d="M30.0161 28.6216C30.0161 28.0809 30.4545 27.6426 30.9952 27.6426H37.8215C38.3623 27.6426 38.8006 28.0809 38.8006 28.6216V29.2325C38.8006 29.7732 38.3623 30.2115 37.8215 30.2115H30.9952C30.4545 30.2115 30.0161 29.7732 30.0161 29.2325V28.6216Z" stroke="white" stroke-width="1.5"/>
<path d="M27.2437 28.7712C27.2437 29.5666 26.5988 30.2114 25.8034 30.2114H21.3258C20.5304 30.2114 19.8855 29.5666 19.8855 28.7712V16.3569H27.2437V28.7712Z" stroke="white" stroke-width="1.5"/>
<path d="M27.9565 15.3784C27.9565 15.9191 27.5182 16.3574 26.9775 16.3574L20.1511 16.3574C19.6104 16.3574 19.1721 15.9191 19.1721 15.3784L19.1721 14.7675C19.1721 14.2268 19.6104 13.7885 20.1511 13.7885L26.9775 13.7885C27.5182 13.7885 27.9565 14.2268 27.9565 14.7675L27.9565 15.3784Z" stroke="white" stroke-width="1.5"/>
<path d="M9.04248 15.2283C9.04248 14.4329 9.68731 13.7881 10.4827 13.7881H14.9603C15.7558 13.7881 16.4006 14.4329 16.4006 15.2283V27.6426H9.04248V15.2283Z" stroke="white" stroke-width="1.5"/>
<path d="M8.32959 28.6216C8.32959 28.0809 8.76793 27.6426 9.30864 27.6426H16.135C16.6757 27.6426 17.1141 28.0809 17.1141 28.6216V29.2325C17.1141 29.7732 16.6757 30.2115 16.135 30.2115H9.30864C8.76793 30.2115 8.32959 29.7732 8.32959 29.2325V28.6216Z" stroke="white" stroke-width="1.5"/>
<rect x="1.24365" y="8.74023" width="44.6433" height="26.5191" stroke="white" stroke-width="1.5"/>
</svg>
