<svg width="48" height="44" viewBox="0 0 48 44" fill="none" xmlns="http://www.w3.org/2000/svg">
<path d="M1.65186 2.34153C1.65186 1.55828 2.2868 0.92334 3.07004 0.92334H44.877C45.6602 0.92334 46.2951 1.55828 46.2951 2.34153V41.6806C46.2951 42.4638 45.6602 43.0987 44.877 43.0987H3.07004C2.2868 43.0987 1.65186 42.4638 1.65186 41.6806V2.34153Z" stroke="white" stroke-width="1.5"/>
<path d="M27.9805 6.576C27.9805 5.78057 28.6253 5.13574 29.4207 5.13574H39.6599C40.4553 5.13574 41.1001 5.78057 41.1001 6.576V37.4466C41.1001 38.242 40.4553 38.8868 39.6599 38.8868H29.4207C28.6253 38.8868 27.9805 38.242 27.9805 37.4466V6.576Z" stroke="white" stroke-width="1.5"/>
<path d="M19.9668 37.4465C19.9668 38.2419 19.322 38.8867 18.5265 38.8867H8.2874C7.49196 38.8867 6.84714 38.2419 6.84714 37.4465L6.84714 6.5759C6.84714 5.78047 7.49196 5.13564 8.2874 5.13564H18.5265C19.322 5.13564 19.9668 5.78047 19.9668 6.5759L19.9668 37.4465Z" stroke="white" stroke-width="1.5"/>
<line x1="24.7231" y1="5.4458" x2="24.7231" y2="38.5762" stroke="white" stroke-width="1.5"/>
</svg>
