<svg width="39" height="44" viewBox="0 0 39 44" fill="none" xmlns="http://www.w3.org/2000/svg">
<path d="M26.68 23V31.25H21.64V24.84H17.07V31.25H12.03V23" stroke="white" stroke-width="1.5" stroke-miterlimit="10"/>
<path d="M9.28003 23.0002L19.35 12.9302L29.43 23.0002" stroke="white" stroke-width="1.5" stroke-miterlimit="10"/>
<path d="M15.2299 17.0501V13.3901H12.9399V19.1301" stroke="white" stroke-width="1.5" stroke-miterlimit="10"/>
<path d="M31.1301 10.6299L23.6001 6.16992" stroke="white" stroke-width="1.5" stroke-miterlimit="10"/>
<path d="M34.96 26.7V17.52" stroke="white" stroke-width="1.5" stroke-miterlimit="10"/>
<path d="M3.75 17.52V26.7" stroke="white" stroke-width="1.5" stroke-miterlimit="10"/>
<path d="M15.1101 6.16992L7.57007 10.6299" stroke="white" stroke-width="1.5" stroke-miterlimit="10"/>
<path d="M31.1301 33.7002L23.6001 38.1702" stroke="white" stroke-width="1.5" stroke-miterlimit="10"/>
<path d="M15.1101 38.1702L7.57007 33.7002" stroke="white" stroke-width="1.5" stroke-miterlimit="10"/>
<path d="M22.1101 3.75C22.1101 5.27 20.8801 6.5 19.3601 6.5C17.8401 6.5 16.6101 5.27 16.6101 3.75C16.6101 2.23 17.8401 1 19.3601 1C20.8801 1 22.1101 2.23 22.1101 3.75Z" stroke="white" stroke-width="1.5" stroke-miterlimit="10"/>
<path d="M19.3002 43.1802C17.7802 43.1802 16.5702 41.9602 16.6002 40.4502C16.6302 38.9402 17.8802 37.7202 19.4002 37.7202C20.9202 37.7202 22.1302 38.9402 22.1002 40.4502C22.0702 41.9602 20.8202 43.1802 19.3002 43.1802Z" stroke="white" stroke-width="1.5" stroke-miterlimit="10"/>
<path d="M37.71 31.2798C37.71 32.7998 36.48 34.0298 34.96 34.0298C33.44 34.0298 32.21 32.7998 32.21 31.2798C32.21 29.7598 33.44 28.5298 34.96 28.5298C36.48 28.5298 37.71 29.7598 37.71 31.2798Z" stroke="white" stroke-width="1.5" stroke-miterlimit="10"/>
<path d="M6.53006 31.29C6.54006 32.81 5.32006 34.04 3.79006 34.04C2.26006 34.04 1.01006 32.81 1.00006 31.29C0.990061 29.77 2.21006 28.54 3.74006 28.54C5.27006 28.54 6.52006 29.77 6.53006 31.29Z" stroke="white" stroke-width="1.5" stroke-miterlimit="10"/>
<path d="M6.51001 12.9302C6.51001 14.4502 5.28001 15.6802 3.76001 15.6802C2.24001 15.6802 1.01001 14.4502 1.01001 12.9302C1.01001 11.4102 2.24001 10.1802 3.76001 10.1802C5.28001 10.1802 6.51001 11.4102 6.51001 12.9302Z" stroke="white" stroke-width="1.5" stroke-miterlimit="10"/>
<path d="M8.27017 28.3398L6.17017 29.7298" stroke="white" stroke-width="1.5" stroke-miterlimit="10"/>
<path d="M30.4202 28.3398L32.5202 29.7298" stroke="white" stroke-width="1.5" stroke-miterlimit="10"/>
<path d="M30.4202 15.8702L32.5202 14.4902" stroke="white" stroke-width="1.5" stroke-miterlimit="10"/>
<path d="M8.27017 15.8702L6.17017 14.4902" stroke="white" stroke-width="1.5" stroke-miterlimit="10"/>
<path d="M37.71 12.9302C37.71 14.4502 36.48 15.6802 34.96 15.6802C33.44 15.6802 32.21 14.4502 32.21 12.9302C32.21 11.4102 33.44 10.1802 34.96 10.1802C36.48 10.1802 37.71 11.4102 37.71 12.9302Z" stroke="white" stroke-width="1.5" stroke-miterlimit="10"/>
<path d="M19.3501 6.50977V9.25977" stroke="white" stroke-width="1.5" stroke-miterlimit="10"/>
<path d="M19.3501 37.71V34.96" stroke="white" stroke-width="1.5" stroke-miterlimit="10"/>
</svg>
