<svg width="53" height="44" viewBox="0 0 53 44" fill="none" xmlns="http://www.w3.org/2000/svg">
<path d="M1 29.1284V43.1798" stroke="white" stroke-width="1.5" stroke-miterlimit="10"/>
<path d="M14.1758 29.1284V43.1798" stroke="white" stroke-width="1.5" stroke-miterlimit="10"/>
<path d="M7.58781 35.612C11.2262 35.612 14.1756 32.7093 14.1756 29.1287C14.1756 25.5481 11.2262 22.6455 7.58781 22.6455C3.94946 22.6455 1 25.5481 1 29.1287C1 32.7093 3.94946 35.612 7.58781 35.612Z" stroke="white" stroke-width="1.5" stroke-miterlimit="10"/>
<path d="M33.9658 10.7378V18.3059H40.5536V10.7378" stroke="white" stroke-width="1.5" stroke-miterlimit="10"/>
<path d="M37.2597 11.8228C40.2965 11.8228 42.7584 9.40003 42.7584 6.4114C42.7584 3.42277 40.2965 1 37.2597 1C34.2228 1 31.761 3.42277 31.761 6.4114C31.761 9.40003 34.2228 11.8228 37.2597 11.8228Z" stroke="white" stroke-width="1.5" stroke-miterlimit="10"/>
<path d="M40.5535 18.3057H41.6559L44.9498 21.5603L41.6559 25.8869" stroke="white" stroke-width="1.5" stroke-miterlimit="10"/>
<path d="M33.9656 18.3057H32.8632L29.5693 21.5603L32.8632 25.8869" stroke="white" stroke-width="1.5" stroke-miterlimit="10"/>
<path d="M14.1757 12.9073C17.2125 12.9073 19.6744 10.4845 19.6744 7.49587C19.6744 4.50724 17.2125 2.08447 14.1757 2.08447C11.1389 2.08447 8.677 4.50724 8.677 7.49587C8.677 10.4845 11.1389 12.9073 14.1757 12.9073Z" stroke="white" stroke-width="1.5" stroke-miterlimit="10"/>
<path d="M32.8633 3.16992H17.4829" stroke="white" stroke-width="1.5" stroke-miterlimit="10"/>
<path d="M32.8632 9.65283H19.6743" stroke="white" stroke-width="1.5" stroke-miterlimit="10"/>
<path d="M16.3806 12.9077L13.0867 24.8023" stroke="white" stroke-width="1.5" stroke-miterlimit="10"/>
<path d="M8.69025 9.65283L4.29395 22.6324" stroke="white" stroke-width="1.5" stroke-miterlimit="10"/>
<path d="M38.3621 29.1284H30.6719V33.4549H38.3621V29.1284Z" stroke="white" stroke-width="1.5" stroke-miterlimit="10"/>
<path d="M26.2621 29.1284H19.6743V33.4549H26.2621V29.1284Z" stroke="white" stroke-width="1.5" stroke-miterlimit="10"/>
<path d="M50.4485 29.1284H42.7583V33.4549H50.4485V29.1284Z" stroke="white" stroke-width="1.5" stroke-miterlimit="10"/>
<path d="M16.3804 33.4551H52.6399" stroke="white" stroke-width="1.5" stroke-miterlimit="10"/>
</svg>
