<svg width="42" height="45" viewBox="0 0 42 45" fill="none" xmlns="http://www.w3.org/2000/svg">
<path d="M39.87 28.21V1H1V38.9H22.38" stroke="white" stroke-width="1.5" stroke-miterlimit="10"/>
<path d="M2.93994 6.83008H37.9199" stroke="white" stroke-width="1.5" stroke-miterlimit="10"/>
<path d="M3.91992 3.91992H5.85992" stroke="white" stroke-width="1.5" stroke-miterlimit="10"/>
<path d="M6.83008 3.91992H8.77008" stroke="white" stroke-width="1.5" stroke-miterlimit="10"/>
<path d="M9.75 3.91992H11.69" stroke="white" stroke-width="1.5" stroke-miterlimit="10"/>
<path d="M26.08 20.0202L24.66 16.5802L22.57 17.2802C21.99 16.4702 21.29 15.7702 20.5 15.2102L21.2 13.1202L17.76 11.7002L16.77 13.6702C15.81 13.5102 14.83 13.5002 13.84 13.6702L12.85 11.7002L9.41003 13.1202L10.11 15.2102C9.30003 15.7902 8.60003 16.4902 8.04003 17.2802L5.95003 16.5802L4.53003 20.0202L6.50003 21.0102C6.34003 21.9702 6.33003 22.9502 6.50003 23.9402L4.53003 24.9302L5.95003 28.3702L8.04003 27.6702C8.62003 28.4802 9.32003 29.1802 10.11 29.7402L9.41003 31.8302L12.85 33.2502L13.84 31.2802C14.8 31.4402 15.78 31.4502 16.77 31.2802L17.76 33.2502L21.2 31.8302L20.5 29.7402C21.31 29.1602 22.01 28.4602 22.57 27.6702L24.66 28.3702L26.08 24.9302L24.11 23.9402C24.27 22.9802 24.28 22.0002 24.11 21.0102L26.08 20.0202Z" stroke="white" stroke-width="1.5" stroke-miterlimit="10"/>
<path d="M15.4299 26.1601C17.3905 26.1601 18.9799 24.5707 18.9799 22.6101C18.9799 20.6494 17.3905 19.0601 15.4299 19.0601C13.4693 19.0601 11.8799 20.6494 11.8799 22.6101C11.8799 24.5707 13.4693 26.1601 15.4299 26.1601Z" stroke="white" stroke-width="1.5" stroke-miterlimit="10"/>
<path d="M40.65 33.39L39.6 30.85L38.05 31.36C37.62 30.76 37.1 30.25 36.52 29.83L37.04 28.28L34.5 27.23L33.77 28.69C33.06 28.57 32.33 28.57 31.61 28.69L30.88 27.23L28.34 28.28L28.85 29.83C28.25 30.26 27.74 30.78 27.32 31.36L25.77 30.84L24.72 33.38L26.18 34.11C26.06 34.82 26.06 35.55 26.18 36.27L24.72 37L25.77 39.54L27.32 39.03C27.75 39.63 28.27 40.14 28.85 40.56L28.33 42.11L30.87 43.16L31.6 41.7C32.31 41.82 33.04 41.82 33.76 41.7L34.49 43.16L37.03 42.11L36.52 40.56C37.12 40.13 37.63 39.61 38.05 39.03L39.6 39.55L40.65 37.01L39.19 36.28C39.31 35.57 39.31 34.84 39.19 34.12L40.65 33.39Z" stroke="white" stroke-width="1.5" stroke-miterlimit="10"/>
<path d="M35.4099 35.3099C35.4099 36.7599 34.2399 37.9299 32.7899 37.9299C31.3399 37.9299 30.1699 36.7599 30.1699 35.3099C30.1699 33.8599 31.3399 32.6899 32.7899 32.6899C34.2399 32.6899 35.4099 33.8599 35.4099 35.3099Z" stroke="white" stroke-width="1.5" stroke-miterlimit="10"/>
</svg>
