<svg width="43" height="44" viewBox="0 0 43 44" fill="none" xmlns="http://www.w3.org/2000/svg">
<path d="M28.4839 35.689C30.4888 37.7778 37.9849 38.1855 40.6147 32.9277C42.5547 29.0469 40.1899 24.1958 41.3726 19.5576C34.0947 21.0737 28.4268 25.3789 27.7876 32.4927" stroke="white" stroke-width="1.5"/>
<path d="M15.9365 22.2559L11.0859 38.7485L30.4888 17.4048H22.7275L27.5786 0.912109L8.17529 22.2559H15.9365Z" stroke="white" stroke-width="1.5"/>
<path d="M7.72607 33.2598C3.84033 29.8799 1.38428 24.8999 1.38428 19.3457C1.38428 9.16455 9.63721 0.912598 19.8174 0.912598C20.061 0.912598 20.3032 0.916992 20.5444 0.926758" stroke="white" stroke-width="1.5"/>
<path d="M36.9272 26.2148C34.2041 32.9927 27.5693 37.7778 19.8174 37.7778C19.1211 37.7778 18.4351 37.7397 17.7593 37.6646" stroke="white" stroke-width="1.5"/>
<path d="M31.064 4.74072C34.5933 7.46191 37.1074 11.4326 37.9453 15.9907" stroke="white" stroke-width="1.5"/>
<path d="M37.355 39.8198C37.52 40.8188 37.4712 42.041 37.1064 43.0156C32.832 43.4346 28.1421 42.127 26.439 36.5527" stroke="white" stroke-width="1.5"/>
</svg>
