<svg width="161" height="161" viewBox="0 0 161 161" fill="none" xmlns="http://www.w3.org/2000/svg">
<rect width="160.69" height="160.69" fill="url(#paint0_linear_858_3)"/>
<path d="M73.9692 74.2983H31.0459V81.1819H78.2236L73.9692 74.2983Z" fill="#F9BF58"/>
<path d="M73.9692 60.5312H31.0459V67.4148H78.2236L73.9692 60.5312Z" fill="#F9BF58"/>
<path d="M73.9692 88.0654H31.0459V94.949H78.2231L73.9692 88.0654Z" fill="#F9BF58"/>
<path d="M116.082 60.5312L101.569 84.3335L87.0513 60.5312H78.9678L101.569 97.5823L124.164 60.5312H116.082Z" fill="#F9BF58"/>
<path d="M126.794 59.3613H127.467V61.5408H127.933V59.3613H128.605V58.9126H126.794V59.3613Z" fill="#F9BF58"/>
<path d="M130.433 58.9126L129.962 60.5347L129.491 58.9126H128.878V61.5408H129.301V59.6619L129.756 61.1079H130.167L130.623 59.6282V61.5408H131.046V58.9126H130.433Z" fill="#F9BF58"/>
<path d="M32.5342 100.198H33.377V100.258C33.377 100.456 33.3433 100.628 33.2739 100.771C33.2061 100.913 33.1079 101.022 32.9829 101.097C32.8569 101.172 32.708 101.209 32.543 101.209C32.374 101.209 32.2231 101.174 32.0952 101.102C31.9663 101.029 31.8662 100.927 31.7959 100.798C31.7271 100.667 31.6909 100.513 31.6909 100.338V99.1284C31.6909 98.9365 31.7261 98.7656 31.7939 98.6226C31.8623 98.4795 31.9609 98.3665 32.0859 98.2876C32.2109 98.2075 32.3589 98.1675 32.5249 98.1675C32.6401 98.1675 32.752 98.1936 32.8589 98.2446C32.9653 98.2944 33.0601 98.3696 33.1392 98.4666C33.2202 98.5645 33.2769 98.6826 33.3091 98.8167L33.3291 98.9456L33.9922 98.9365L33.9873 98.7976C33.938 98.5496 33.8452 98.3276 33.708 98.1396C33.5723 97.9514 33.3999 97.8035 33.1953 97.6985C32.9912 97.5955 32.7661 97.5435 32.5249 97.5435C32.2329 97.5435 31.9712 97.6096 31.749 97.7395C31.5249 97.8706 31.3511 98.0566 31.229 98.2935C31.1079 98.5305 31.0459 98.8086 31.0459 99.1196V100.346C31.0459 100.642 31.1089 100.904 31.2329 101.127C31.356 101.352 31.5332 101.527 31.7583 101.649C31.9819 101.772 32.2461 101.834 32.543 101.834C32.835 101.834 33.0962 101.769 33.3188 101.637C33.543 101.508 33.7173 101.321 33.8389 101.083C33.96 100.844 34.022 100.565 34.022 100.255V99.5696H32.5342V100.198Z" fill="#F9BF58"/>
<path d="M41.4062 98.1567H42.606V101.834H43.2485V98.1567H44.4478V97.5435H41.4062V98.1567Z" fill="#F9BF58"/>
<path d="M49.0669 98.1567V97.5435H46.2939V101.834H49.0669V101.221H46.936V100.01H48.7456V99.397H46.936V98.1567H49.0669Z" fill="#F9BF58"/>
<path d="M37.9897 97.5435H37.4385L35.8687 101.802L35.8574 101.834H36.5518L36.8726 100.901H38.5566L38.8716 101.819L38.8765 101.834H39.5708L37.9946 97.5586L37.9897 97.5435ZM38.3457 100.286H37.0825L37.7134 98.4485L38.3457 100.286Z" fill="#F9BF58"/>
<defs>
<linearGradient id="paint0_linear_858_3" x1="-1.40421e-06" y1="6.6037" x2="152.435" y2="153.536" gradientUnits="userSpaceOnUse">
<stop stop-color="#F09100"/>
<stop offset="0.501884" stop-color="#191970"/>
</linearGradient>
</defs>
</svg>
