<svg width="161" height="161" viewBox="0 0 161 161" fill="none" xmlns="http://www.w3.org/2000/svg">
<rect width="160.69" height="160.69" fill="url(#paint0_linear_26_636)"/>
<path d="M40.7711 123.422V104.594H52.1338V106.617H43.051V112.978H51.5455V115.001H43.051V121.399H52.2809V123.422H40.7711ZM58.1186 114.927V123.422H55.949V109.301H58.045V111.508H58.2289C58.5599 110.79 59.0624 110.214 59.7366 109.779C60.4108 109.338 61.281 109.117 62.3475 109.117C63.3035 109.117 64.1401 109.313 64.8572 109.706C65.5743 110.092 66.132 110.68 66.5304 111.471C66.9287 112.255 67.1279 113.248 67.1279 114.449V123.422H64.9583V114.596C64.9583 113.487 64.6703 112.623 64.0942 112.004C63.5181 111.379 62.7274 111.066 61.7223 111.066C61.0298 111.066 60.4108 111.216 59.8653 111.517C59.326 111.817 58.9 112.255 58.5874 112.831C58.2749 113.407 58.1186 114.106 58.1186 114.927ZM77.0129 123.716C75.6523 123.716 74.4786 123.416 73.4919 122.815C72.5113 122.208 71.7544 121.363 71.2212 120.278C70.6941 119.187 70.4306 117.918 70.4306 116.472C70.4306 115.025 70.6941 113.751 71.2212 112.647C71.7544 111.538 72.496 110.674 73.4459 110.055C74.402 109.43 75.5175 109.117 76.7922 109.117C77.5277 109.117 78.254 109.24 78.971 109.485C79.6881 109.73 80.3408 110.129 80.9292 110.68C81.5175 111.226 81.9864 111.949 82.3357 112.85C82.6851 113.751 82.8597 114.86 82.8597 116.178V117.097H71.975V115.222H80.6534C80.6534 114.425 80.494 113.714 80.1753 113.089C79.8628 112.464 79.4154 111.97 78.8331 111.609C78.257 111.247 77.5767 111.066 76.7922 111.066C75.9281 111.066 75.1804 111.281 74.5491 111.71C73.924 112.133 73.4429 112.684 73.1058 113.365C72.7687 114.045 72.6002 114.774 72.6002 115.553V116.803C72.6002 117.869 72.784 118.773 73.1517 119.515C73.5256 120.25 74.0435 120.811 74.7054 121.197C75.3673 121.577 76.1365 121.767 77.0129 121.767C77.5829 121.767 78.0977 121.687 78.5573 121.528C79.0231 121.363 79.4246 121.117 79.7616 120.793C80.0987 120.462 80.3592 120.051 80.5431 119.561L82.6391 120.149C82.4185 120.86 82.0477 121.485 81.5267 122.025C81.0058 122.558 80.3623 122.974 79.5962 123.275C78.8301 123.569 77.969 123.716 77.0129 123.716ZM86.1601 123.422V109.301H88.2561V111.434H88.4032C88.6606 110.735 89.1264 110.168 89.8006 109.733C90.4748 109.298 91.2347 109.081 92.0805 109.081C92.2399 109.081 92.439 109.084 92.6781 109.09C92.9171 109.096 93.0979 109.105 93.2205 109.117V111.324C93.1469 111.305 92.9784 111.278 92.7148 111.241C92.4574 111.198 92.1847 111.177 91.8966 111.177C91.2102 111.177 90.5973 111.321 90.058 111.609C89.5248 111.891 89.1019 112.283 88.7893 112.785C88.4829 113.282 88.3297 113.849 88.3297 114.486V123.422H86.1601ZM101.062 129.011C100.014 129.011 99.1133 128.876 98.3594 128.607C97.6056 128.343 96.9774 127.994 96.4748 127.559C95.9784 127.13 95.5831 126.67 95.2889 126.18L97.0172 124.966C97.2134 125.224 97.4616 125.518 97.7619 125.849C98.0622 126.186 98.4728 126.477 98.9938 126.722C99.5209 126.974 100.21 127.099 101.062 127.099C102.202 127.099 103.143 126.823 103.885 126.272C104.626 125.72 104.997 124.856 104.997 123.679V120.811H104.813C104.654 121.068 104.427 121.387 104.133 121.767C103.845 122.141 103.428 122.475 102.882 122.769C102.343 123.057 101.614 123.201 100.695 123.201C99.5546 123.201 98.5311 122.932 97.624 122.392C96.7231 121.853 96.0091 121.068 95.482 120.039C94.961 119.009 94.7006 117.759 94.7006 116.288C94.7006 114.842 94.9549 113.582 95.4636 112.51C95.9723 111.431 96.6802 110.597 97.5872 110.009C98.4943 109.415 99.5423 109.117 100.731 109.117C101.651 109.117 102.38 109.271 102.919 109.577C103.465 109.877 103.881 110.22 104.17 110.607C104.464 110.987 104.69 111.299 104.85 111.544H105.07V109.301H107.167V123.826C107.167 125.04 106.891 126.027 106.339 126.787C105.794 127.553 105.058 128.113 104.133 128.469C103.213 128.831 102.19 129.011 101.062 129.011ZM100.989 121.252C101.859 121.252 102.594 121.053 103.195 120.655C103.796 120.256 104.252 119.683 104.565 118.936C104.877 118.188 105.034 117.293 105.034 116.251C105.034 115.234 104.88 114.336 104.574 113.558C104.268 112.779 103.814 112.169 103.213 111.728C102.613 111.287 101.871 111.066 100.989 111.066C100.069 111.066 99.3033 111.299 98.6904 111.765C98.0837 112.231 97.6271 112.856 97.3206 113.64C97.0203 114.425 96.8702 115.295 96.8702 116.251C96.8702 117.232 97.0234 118.099 97.3298 118.853C97.6424 119.601 98.102 120.189 98.7088 120.618C99.3217 121.041 100.082 121.252 100.989 121.252ZM112.535 128.717C112.168 128.717 111.84 128.687 111.552 128.625C111.264 128.57 111.064 128.515 110.954 128.46L111.506 126.548C112.033 126.682 112.499 126.731 112.903 126.695C113.308 126.658 113.666 126.477 113.979 126.152C114.297 125.834 114.588 125.316 114.852 124.599L115.257 123.495L110.035 109.301H112.388L116.286 120.554H116.433L120.331 109.301H122.685L116.691 125.481C116.421 126.21 116.087 126.814 115.689 127.292C115.29 127.776 114.828 128.135 114.3 128.368C113.779 128.601 113.191 128.717 112.535 128.717Z" fill="white"/>
<path d="M82.2461 54.5098L90.7168 40.667L78.0127 43.843L71.6602 60.782L78.0127 59.7234L73.7783 74.5452L91.7754 53.3713L82.2461 54.5098Z" stroke="white" stroke-width="1.5"/>
<line x1="56.8389" y1="54.7388" x2="64.2497" y2="54.7388" stroke="white" stroke-width="1.5"/>
<line x1="59.7256" y1="67.0141" x2="66.1436" y2="63.3086" stroke="white" stroke-width="1.5"/>
<line x1="92.7138" y1="76.9512" x2="89.0083" y2="70.5332" stroke="white" stroke-width="1.5"/>
<line x1="101.901" y1="68.3131" x2="95.4834" y2="64.6077" stroke="white" stroke-width="1.5"/>
<line x1="105.539" y1="56.2388" x2="98.1282" y2="56.2388" stroke="white" stroke-width="1.5"/>
<line x1="102.651" y1="43.9635" x2="96.2334" y2="47.6689" stroke="white" stroke-width="1.5"/>
<line x1="69.6632" y1="34.0259" x2="73.3686" y2="40.4439" stroke="white" stroke-width="1.5"/>
<line x1="60.4756" y1="42.6644" x2="66.8936" y2="46.3699" stroke="white" stroke-width="1.5"/>
<defs>
<linearGradient id="paint0_linear_26_636" x1="-1.40421e-06" y1="6.6037" x2="152.435" y2="153.536" gradientUnits="userSpaceOnUse">
<stop stop-color="#66CC00"/>
<stop offset="0.501884" stop-color="#191970"/>
</linearGradient>
</defs>
</svg>
