<svg width="161" height="161" viewBox="0 0 161 161" fill="none" xmlns="http://www.w3.org/2000/svg">
<rect width="160.69" height="160.69" fill="url(#paint0_linear_26_637)"/>
<path d="M28.478 104.594V123.422H26.1981V104.594H28.478ZM34.9247 114.927V123.422H32.7551V109.301H34.8511V111.508H35.035C35.366 110.79 35.8685 110.214 36.5427 109.779C37.2169 109.338 38.0871 109.117 39.1536 109.117C40.1096 109.117 40.9462 109.313 41.6633 109.706C42.3804 110.092 42.9381 110.68 43.3365 111.471C43.7348 112.255 43.934 113.248 43.934 114.449V123.422H41.7644V114.596C41.7644 113.487 41.4764 112.623 40.9003 112.004C40.3242 111.379 39.5335 111.066 38.5284 111.066C37.8359 111.066 37.2169 111.216 36.6714 111.517C36.1321 111.817 35.7061 112.255 35.3935 112.831C35.081 113.407 34.9247 114.106 34.9247 114.927ZM53.2306 123.716C52.0539 123.716 51.0151 123.419 50.1141 122.824C49.2132 122.224 48.5084 121.378 47.9997 120.287C47.491 119.19 47.2367 117.894 47.2367 116.398C47.2367 114.915 47.491 113.628 47.9997 112.537C48.5084 111.446 49.2163 110.604 50.1233 110.009C51.0304 109.415 52.0784 109.117 53.2674 109.117C54.1867 109.117 54.913 109.271 55.4462 109.577C55.9855 109.877 56.3961 110.22 56.6781 110.607C56.9661 110.987 57.1898 111.299 57.3492 111.544H57.533V104.594H59.7026V123.422H57.6066V121.252H57.3492C57.1898 121.51 56.963 121.835 56.6689 122.227C56.3747 122.613 55.9549 122.959 55.4094 123.266C54.8639 123.566 54.1377 123.716 53.2306 123.716ZM53.5248 121.767C54.3951 121.767 55.1305 121.54 55.7312 121.087C56.3318 120.627 56.7884 119.993 57.1009 119.184C57.4135 118.369 57.5698 117.428 57.5698 116.362C57.5698 115.307 57.4166 114.385 57.1101 113.594C56.8037 112.798 56.3502 112.179 55.7495 111.737C55.1489 111.29 54.4073 111.066 53.5248 111.066C52.6055 111.066 51.8394 111.302 51.2265 111.774C50.6198 112.24 50.1632 112.874 49.8567 113.677C49.5564 114.474 49.4063 115.369 49.4063 116.362C49.4063 117.367 49.5595 118.28 49.8659 119.101C50.1785 119.916 50.6381 120.566 51.2449 121.05C51.8578 121.528 52.6177 121.767 53.5248 121.767ZM72.8764 117.649V109.301H75.046V123.422H72.8764V121.032H72.7294C72.3984 121.749 71.8836 122.359 71.1849 122.861C70.4862 123.358 69.6037 123.606 68.5373 123.606C67.6547 123.606 66.8702 123.413 66.1838 123.027C65.4974 122.634 64.958 122.046 64.5658 121.261C64.1736 120.471 63.9774 119.475 63.9774 118.274V109.301H66.147V118.127C66.147 119.156 66.4351 119.977 67.0112 120.59C67.5934 121.203 68.335 121.51 69.2359 121.51C69.7753 121.51 70.3238 121.372 70.8815 121.096C71.4454 120.82 71.9173 120.397 72.2973 119.827C72.6834 119.257 72.8764 118.531 72.8764 117.649ZM89.022 112.464L87.073 113.015C86.9504 112.69 86.7696 112.375 86.5306 112.068C86.2977 111.756 85.979 111.498 85.5745 111.296C85.17 111.094 84.6521 110.993 84.0209 110.993C83.1567 110.993 82.4366 111.192 81.8605 111.59C81.2905 111.982 81.0055 112.482 81.0055 113.089C81.0055 113.628 81.2016 114.054 81.5939 114.367C81.9861 114.679 82.599 114.94 83.4325 115.148L85.5286 115.663C86.7911 115.969 87.7319 116.438 88.3509 117.069C88.9699 117.695 89.2794 118.5 89.2794 119.487C89.2794 120.296 89.0465 121.019 88.5807 121.657C88.121 122.294 87.4775 122.797 86.6501 123.164C85.8227 123.532 84.8605 123.716 83.7635 123.716C82.3232 123.716 81.1312 123.403 80.1873 122.778C79.2435 122.153 78.6459 121.24 78.3946 120.039L80.4539 119.524C80.65 120.284 81.0208 120.854 81.5663 121.234C82.1179 121.614 82.838 121.804 83.7267 121.804C84.7379 121.804 85.5408 121.589 86.1353 121.16C86.7359 120.725 87.0362 120.204 87.0362 119.598C87.0362 119.107 86.8646 118.697 86.5214 118.366C86.1782 118.029 85.6511 117.777 84.9402 117.612L82.5867 117.06C81.2936 116.754 80.3436 116.279 79.7369 115.635C79.1362 114.986 78.8359 114.174 78.8359 113.199C78.8359 112.402 79.0596 111.698 79.507 111.085C79.9606 110.472 80.5765 109.991 81.3549 109.641C82.1393 109.292 83.028 109.117 84.0209 109.117C85.4182 109.117 86.5153 109.424 87.312 110.037C88.1149 110.649 88.6849 111.458 89.022 112.464ZM98.6863 109.301V111.14H91.3685V109.301H98.6863ZM93.5013 105.918H95.6709V119.377C95.6709 119.99 95.7598 120.449 95.9375 120.756C96.1214 121.056 96.3543 121.258 96.6362 121.363C96.9243 121.461 97.2276 121.51 97.5463 121.51C97.7854 121.51 97.9815 121.497 98.1347 121.473C98.2879 121.442 98.4105 121.418 98.5024 121.399L98.9437 123.348C98.7966 123.403 98.5913 123.459 98.3278 123.514C98.0642 123.575 97.7302 123.606 97.3257 123.606C96.7128 123.606 96.1122 123.474 95.5238 123.21C94.9416 122.947 94.4574 122.545 94.0713 122.006C93.6913 121.467 93.5013 120.786 93.5013 119.965V105.918ZM101.95 123.422V109.301H104.046V111.434H104.193C104.45 110.735 104.916 110.168 105.59 109.733C106.265 109.298 107.025 109.081 107.87 109.081C108.03 109.081 108.229 109.084 108.468 109.09C108.707 109.096 108.888 109.105 109.01 109.117V111.324C108.937 111.305 108.768 111.278 108.505 111.241C108.247 111.198 107.974 111.177 107.686 111.177C107 111.177 106.387 111.321 105.848 111.609C105.315 111.891 104.892 112.283 104.579 112.785C104.273 113.282 104.119 113.849 104.119 114.486V123.422H101.95ZM111.582 123.422V109.301H113.752V123.422H111.582ZM112.685 106.948C112.262 106.948 111.898 106.804 111.591 106.516C111.291 106.228 111.141 105.881 111.141 105.477C111.141 105.072 111.291 104.726 111.591 104.438C111.898 104.15 112.262 104.006 112.685 104.006C113.108 104.006 113.47 104.15 113.77 104.438C114.076 104.726 114.23 105.072 114.23 105.477C114.23 105.881 114.076 106.228 113.77 106.516C113.47 106.804 113.108 106.948 112.685 106.948ZM121.881 123.753C120.986 123.753 120.174 123.584 119.445 123.247C118.715 122.904 118.136 122.411 117.707 121.767C117.278 121.117 117.063 120.333 117.063 119.414C117.063 118.605 117.223 117.949 117.542 117.446C117.86 116.938 118.286 116.539 118.819 116.251C119.353 115.963 119.941 115.749 120.584 115.608C121.234 115.461 121.887 115.344 122.543 115.258C123.401 115.148 124.096 115.065 124.629 115.01C125.169 114.949 125.561 114.848 125.806 114.707C126.057 114.566 126.183 114.321 126.183 113.971V113.898C126.183 112.991 125.935 112.286 125.438 111.783C124.948 111.281 124.204 111.029 123.205 111.029C122.169 111.029 121.357 111.256 120.768 111.71C120.18 112.163 119.766 112.647 119.527 113.162L117.468 112.427C117.836 111.569 118.326 110.901 118.939 110.423C119.558 109.939 120.232 109.601 120.961 109.411C121.697 109.215 122.42 109.117 123.131 109.117C123.585 109.117 124.105 109.172 124.694 109.283C125.288 109.387 125.861 109.605 126.413 109.935C126.971 110.266 127.433 110.766 127.801 111.434C128.169 112.102 128.353 112.997 128.353 114.118V123.422H126.183V121.51H126.073C125.926 121.816 125.681 122.144 125.337 122.493C124.994 122.843 124.538 123.14 123.968 123.385C123.398 123.63 122.702 123.753 121.881 123.753ZM122.212 121.804C123.07 121.804 123.793 121.635 124.381 121.298C124.976 120.961 125.423 120.526 125.723 119.993C126.03 119.46 126.183 118.899 126.183 118.31V116.325C126.091 116.435 125.889 116.536 125.576 116.628C125.27 116.714 124.914 116.791 124.51 116.858C124.112 116.919 123.722 116.974 123.342 117.023C122.969 117.066 122.665 117.103 122.432 117.134C121.868 117.207 121.341 117.327 120.851 117.492C120.367 117.652 119.975 117.894 119.674 118.219C119.38 118.537 119.233 118.972 119.233 119.524C119.233 120.278 119.512 120.848 120.07 121.234C120.633 121.614 121.347 121.804 122.212 121.804ZM134.482 104.594V123.422H132.313V104.594H134.482Z" fill="white"/>
<path d="M81.2197 46.8447C76.4346 46.5037 72.293 50.1477 71.9531 54.8657C71.6094 59.6309 75.208 63.7888 79.9727 64.1328C80.1855 64.1477 80.3955 64.1558 80.6055 64.1558C85.1221 64.1558 88.9141 60.6218 89.2393 56.1128C89.584 51.3457 85.9844 47.1887 81.2197 46.8447ZM80.0723 62.7488C76.0693 62.4607 73.0469 58.9688 73.3369 54.9658C73.6084 51.1768 76.7949 48.2088 80.5908 48.2088C80.7666 48.2088 80.9424 48.2149 81.1191 48.2278C85.123 48.5169 88.1455 52.0088 87.8555 56.0127C87.5703 59.9768 84.1084 63.0657 80.0723 62.7488ZM101.397 52.8338C101.635 52.6619 101.737 52.3589 101.654 52.0767L100.13 46.9077C100.047 46.6267 99.7949 46.4278 99.5029 46.4129L95.0664 46.1719L92.7344 43.2898L93.4297 38.9019C93.4756 38.6118 93.334 38.3247 93.0762 38.1848L88.3408 35.6099C88.085 35.4717 87.7656 35.5078 87.5459 35.7029L84.2393 38.6687L80.5537 38.2788L77.9424 34.6868C77.7705 34.4497 77.4697 34.3467 77.1855 34.4287L72.0156 35.9558C71.7334 36.0388 71.5342 36.2908 71.5195 36.5828L71.2783 41.0198L68.3965 43.3489L64.0107 42.6558C63.7139 42.6118 63.4336 42.7537 63.293 43.0098L60.7168 47.7439C60.5771 48.0017 60.6133 48.3198 60.8105 48.5379L63.7764 51.8438L63.3867 55.5308L59.7939 58.1428C59.5566 58.3147 59.4531 58.6189 59.5361 58.8997L61.0635 64.0689C61.1455 64.3499 61.3975 64.5498 61.6894 64.5637L66.1269 64.8047L68.457 67.6878L67.7637 72.0747C67.7178 72.3648 67.8594 72.6519 68.1162 72.7927L72.8506 75.3677C73.1094 75.5098 73.4277 75.4697 73.6455 75.2737L76.9512 72.3079L80.6387 72.6988L83.251 76.2908C83.3828 76.4739 83.5928 76.5767 83.8105 76.5767C83.876 76.5767 83.9424 76.5669 84.0078 76.5479L89.1758 75.0208C89.458 74.9378 89.6553 74.6868 89.6719 74.3938L89.9141 69.9588L92.7949 67.6277L97.1826 68.3228C97.4775 68.3638 97.7607 68.2249 97.8994 67.9688L100.475 63.2339C100.613 62.9749 100.577 62.6568 100.382 62.4387L97.417 59.1328L97.8066 55.4468L101.397 52.8338ZM96.1787 59.8289L99.0234 63.0008L96.916 66.8767L92.707 66.2107C92.5127 66.1819 92.3154 66.2339 92.1631 66.3567L88.8027 69.0747C88.6494 69.1978 88.5576 69.3809 88.5469 69.5757L88.3135 73.8299L84.085 75.0808L81.5781 71.6348C81.4639 71.4768 81.2852 71.3738 81.0908 71.3538L76.792 70.8968C76.7676 70.8948 76.7422 70.8928 76.7187 70.8928C76.5478 70.8928 76.3838 70.9558 76.2559 71.0708L73.084 73.9158L69.209 71.8079L69.874 67.5999C69.9033 67.4058 69.8506 67.2078 69.7275 67.0547L67.0107 63.6939C66.8877 63.5408 66.7051 63.4488 66.5098 63.4378L62.2549 63.2068L61.0039 58.9768L64.4502 56.4697C64.6084 56.3548 64.7119 56.1778 64.7314 55.9827L65.1865 51.6848C65.208 51.4898 65.1445 51.2947 65.0137 51.1477L62.1699 47.9768L64.2764 44.1018L68.4844 44.7669C68.6768 44.7937 68.876 44.7439 69.0283 44.6209L72.3906 41.9038C72.5439 41.7798 72.6357 41.5977 72.6465 41.4029L72.8779 37.1477L77.1084 35.8968L79.6133 39.3438C79.7295 39.5017 79.9062 39.6048 80.1016 39.6248L84.3994 40.0799C84.5957 40.0999 84.79 40.0379 84.9355 39.9068L88.1074 37.0608L91.9834 39.1687L91.3174 43.3777C91.2881 43.5708 91.3408 43.7688 91.4639 43.9219L94.1826 47.2827C94.3057 47.4358 94.4873 47.5288 94.6826 47.5388L98.9375 47.7708L100.187 51.9998L96.7422 54.5069C96.584 54.6218 96.4805 54.7998 96.4609 54.9949L96.0059 59.2927C95.9853 59.4878 96.0478 59.6829 96.1787 59.8289Z" fill="white"/>
<defs>
<linearGradient id="paint0_linear_26_637" x1="-1.40421e-06" y1="6.6037" x2="152.435" y2="153.536" gradientUnits="userSpaceOnUse">
<stop stop-color="#66CC00"/>
<stop offset="0.501884" stop-color="#191970"/>
</linearGradient>
</defs>
</svg>
