<svg width="161" height="161" viewBox="0 0 161 161" fill="none" xmlns="http://www.w3.org/2000/svg">
<rect width="160.69" height="160.69" fill="url(#paint0_linear_26_638)"/>
<path d="M34.2282 123.422V104.594H40.8105C42.1221 104.594 43.2038 104.821 44.0557 105.275C44.9076 105.722 45.5419 106.326 45.9587 107.086C46.3755 107.839 46.5838 108.676 46.5838 109.595C46.5838 110.404 46.4398 111.072 46.1518 111.599C45.8698 112.127 45.496 112.543 45.0302 112.85C44.5705 113.156 44.071 113.383 43.5317 113.53V113.714C44.1078 113.751 44.687 113.953 45.2692 114.321C45.8514 114.688 46.3387 115.215 46.7309 115.902C47.1232 116.588 47.3193 117.428 47.3193 118.421C47.3193 119.365 47.1048 120.213 46.6758 120.967C46.2467 121.721 45.5695 122.319 44.6441 122.76C43.7186 123.201 42.5143 123.422 41.0311 123.422H34.2282ZM36.5081 121.399H41.0311C42.5204 121.399 43.5777 121.111 44.2028 120.535C44.8341 119.953 45.1497 119.248 45.1497 118.421C45.1497 117.783 44.9873 117.195 44.6625 116.656C44.3376 116.11 43.8749 115.675 43.2743 115.35C42.6737 115.019 41.9627 114.854 41.1415 114.854H36.5081V121.399ZM36.5081 112.868H40.737C41.4234 112.868 42.0424 112.733 42.594 112.464C43.1517 112.194 43.593 111.814 43.9178 111.324C44.2488 110.833 44.4142 110.257 44.4142 109.595C44.4142 108.768 44.1262 108.066 43.5501 107.49C42.974 106.908 42.0608 106.617 40.8105 106.617H36.5081V112.868ZM59.6703 117.649V109.301H61.8399V123.422H59.6703V121.032H59.5232C59.1923 121.749 58.6775 122.359 57.9788 122.861C57.2801 123.358 56.3976 123.606 55.3311 123.606C54.4486 123.606 53.6641 123.413 52.9777 123.027C52.2913 122.634 51.7519 122.046 51.3597 121.261C50.9674 120.471 50.7713 119.475 50.7713 118.274V109.301H52.9409V118.127C52.9409 119.156 53.229 119.977 53.8051 120.59C54.3873 121.203 55.1289 121.51 56.0298 121.51C56.5692 121.51 57.1177 121.372 57.6754 121.096C58.2393 120.82 58.7112 120.397 59.0912 119.827C59.4773 119.257 59.6703 118.531 59.6703 117.649ZM65.8137 123.422V109.301H67.9833V123.422H65.8137ZM66.9169 106.948C66.494 106.948 66.1293 106.804 65.8229 106.516C65.5226 106.228 65.3724 105.881 65.3724 105.477C65.3724 105.072 65.5226 104.726 65.8229 104.438C66.1293 104.15 66.494 104.006 66.9169 104.006C67.3397 104.006 67.7013 104.15 68.0016 104.438C68.3081 104.726 68.4613 105.072 68.4613 105.477C68.4613 105.881 68.3081 106.228 68.0016 106.516C67.7013 106.804 67.3397 106.948 66.9169 106.948ZM74.1266 104.594V123.422H71.957V104.594H74.1266ZM83.4324 123.716C82.2557 123.716 81.2168 123.419 80.3159 122.824C79.415 122.224 78.7102 121.378 78.2015 120.287C77.6928 119.19 77.4384 117.894 77.4384 116.398C77.4384 114.915 77.6928 113.628 78.2015 112.537C78.7102 111.446 79.418 110.604 80.3251 110.009C81.2322 109.415 82.2802 109.117 83.4692 109.117C84.3885 109.117 85.1148 109.271 85.648 109.577C86.1873 109.877 86.5979 110.22 86.8798 110.607C87.1679 110.987 87.3916 111.299 87.5509 111.544H87.7348V104.594H89.9044V123.422H87.8084V121.252H87.5509C87.3916 121.51 87.1648 121.835 86.8707 122.227C86.5765 122.613 86.1566 122.959 85.6112 123.266C85.0657 123.566 84.3395 123.716 83.4324 123.716ZM83.7266 121.767C84.5969 121.767 85.3323 121.54 85.9329 121.087C86.5336 120.627 86.9902 119.993 87.3027 119.184C87.6153 118.369 87.7716 117.428 87.7716 116.362C87.7716 115.307 87.6184 114.385 87.3119 113.594C87.0055 112.798 86.552 112.179 85.9513 111.737C85.3507 111.29 84.6091 111.066 83.7266 111.066C82.8073 111.066 82.0412 111.302 81.4283 111.774C80.8215 112.24 80.3649 112.874 80.0585 113.677C79.7582 114.474 79.608 115.369 79.608 116.362C79.608 117.367 79.7613 118.28 80.0677 119.101C80.3803 119.916 80.8399 120.566 81.4467 121.05C82.0596 121.528 82.8195 121.767 83.7266 121.767ZM94.1792 123.422V109.301H96.3488V123.422H94.1792ZM95.2824 106.948C94.8595 106.948 94.4949 106.804 94.1884 106.516C93.8881 106.228 93.738 105.881 93.738 105.477C93.738 105.072 93.8881 104.726 94.1884 104.438C94.4949 104.15 94.8595 104.006 95.2824 104.006C95.7053 104.006 96.0669 104.15 96.3672 104.438C96.6736 104.726 96.8269 105.072 96.8269 105.477C96.8269 105.881 96.6736 106.228 96.3672 106.516C96.0669 106.804 95.7053 106.948 95.2824 106.948ZM102.492 114.927V123.422H100.323V109.301H102.419V111.508H102.602C102.933 110.79 103.436 110.214 104.11 109.779C104.784 109.338 105.655 109.117 106.721 109.117C107.677 109.117 108.514 109.313 109.231 109.706C109.948 110.092 110.506 110.68 110.904 111.471C111.302 112.255 111.501 113.248 111.501 114.449V123.422H109.332V114.596C109.332 113.487 109.044 112.623 108.468 112.004C107.892 111.379 107.101 111.066 106.096 111.066C105.403 111.066 104.784 111.216 104.239 111.517C103.7 111.817 103.274 112.255 102.961 112.831C102.648 113.407 102.492 114.106 102.492 114.927ZM121.166 129.011C120.118 129.011 119.217 128.876 118.463 128.607C117.709 128.343 117.081 127.994 116.578 127.559C116.082 127.13 115.687 126.67 115.392 126.18L117.121 124.966C117.317 125.224 117.565 125.518 117.865 125.849C118.166 126.186 118.576 126.477 119.097 126.722C119.624 126.974 120.314 127.099 121.166 127.099C122.306 127.099 123.247 126.823 123.988 126.272C124.73 125.72 125.1 124.856 125.1 123.679V120.811H124.917C124.757 121.068 124.531 121.387 124.236 121.767C123.948 122.141 123.532 122.475 122.986 122.769C122.447 123.057 121.717 123.201 120.798 123.201C119.658 123.201 118.635 122.932 117.728 122.392C116.827 121.853 116.113 121.068 115.586 120.039C115.065 119.009 114.804 117.759 114.804 116.288C114.804 114.842 115.058 113.582 115.567 112.51C116.076 111.431 116.784 110.597 117.691 110.009C118.598 109.415 119.646 109.117 120.835 109.117C121.754 109.117 122.484 109.271 123.023 109.577C123.568 109.877 123.985 110.22 124.273 110.607C124.567 110.987 124.794 111.299 124.953 111.544H125.174V109.301H127.27V123.826C127.27 125.04 126.994 126.027 126.443 126.787C125.897 127.553 125.162 128.113 124.236 128.469C123.317 128.831 122.294 129.011 121.166 129.011ZM121.092 121.252C121.963 121.252 122.698 121.053 123.299 120.655C123.899 120.256 124.356 119.683 124.668 118.936C124.981 118.188 125.137 117.293 125.137 116.251C125.137 115.234 124.984 114.336 124.678 113.558C124.371 112.779 123.918 112.169 123.317 111.728C122.716 111.287 121.975 111.066 121.092 111.066C120.173 111.066 119.407 111.299 118.794 111.765C118.187 112.231 117.731 112.856 117.424 113.64C117.124 114.425 116.974 115.295 116.974 116.251C116.974 117.232 117.127 118.099 117.433 118.853C117.746 119.601 118.206 120.189 118.812 120.618C119.425 121.041 120.185 121.252 121.092 121.252Z" fill="white"/>
<path d="M97.4727 55.4888V76.5767H85.875V61.8152H75.3311V76.5767H63.7324V55.4888" stroke="white" stroke-width="1.5"/>
<path d="M57.4062 57.5974L80.6025 34.4009L103.799 57.5974" stroke="white" stroke-width="1.5"/>
<path d="M79.9141 54.8945L82.667 49.3889H78.5381L81.291 43.8833" stroke="white" stroke-width="1.5"/>
<defs>
<linearGradient id="paint0_linear_26_638" x1="-1.40421e-06" y1="6.6037" x2="152.435" y2="153.536" gradientUnits="userSpaceOnUse">
<stop stop-color="#66CC00"/>
<stop offset="0.501884" stop-color="#191970"/>
</linearGradient>
</defs>
</svg>
