<svg width="161" height="161" viewBox="0 0 161 161" fill="none" xmlns="http://www.w3.org/2000/svg">
<rect width="160.69" height="160.69" fill="url(#paint0_linear_858_2)"/>
<path d="M60.9355 54.1008V76.8323L80.6216 88.2295L100.339 76.8323V54.1008L80.6216 42.7036L60.9355 54.1008Z" fill="#EDC74A"/>
<path d="M68.6279 75.2627L65.1113 74.3523V56.7698L79.9937 48.2925L82.7881 50.7102L68.6279 58.8105V75.2627Z" fill="#242424"/>
<path d="M79.2085 63.834L76.6025 61.3223L88.5332 53.9438L91.3906 56.2986L79.2085 63.834Z" fill="#242424"/>
<path d="M96.1323 74.2263L92.6475 75.2625V66.8167L80.3398 74.0381L66.0537 66.4399L67.6865 63.363L80.2769 70.0193L96.1323 60.7256V74.2263Z" fill="#242424"/>
<path d="M80.4019 83.6768L72.7725 80.4429L73.7144 77.052L80.2134 79.7834L86.7754 76.2983L88.0312 79.595L80.4019 83.6768Z" fill="#242424"/>
<path d="M41.2495 109.346V112.361C41.2495 114.182 40.8105 115.594 39.8994 116.568C39.0205 117.541 37.6704 118.043 35.9434 118.043C34.2168 118.043 32.8667 117.541 31.9878 116.568C31.1084 115.594 30.6377 114.182 30.6377 112.361V100.587C30.6377 98.7659 31.0767 97.3528 31.9878 96.3787C32.8667 95.4058 34.2168 94.9038 35.9434 94.9038C37.6704 94.9038 39.0205 95.4058 39.8994 96.3787C40.7788 97.3528 41.2495 98.7659 41.2495 100.587V102.784H37.8906V100.367C37.8906 99.5498 37.7334 98.9849 37.3877 98.6399C37.0425 98.2947 36.6025 98.1377 36.0376 98.1377C35.4727 98.1377 35.0327 98.2947 34.6875 98.6399C34.3428 98.9849 34.1855 99.5498 34.1855 100.367V112.58C34.1855 113.397 34.3428 113.962 34.6875 114.307C35.0327 114.621 35.4727 114.778 36.0376 114.778C36.6025 114.778 37.0425 114.621 37.3877 114.307C37.7334 113.993 37.8906 113.428 37.8906 112.58V109.346H41.2495Z" fill="#EDC74A"/>
<path d="M46.9629 117.792H43.415V95.1548H46.9629V104.857H51.0142V95.1548H54.624V117.792H51.0142V108.091H46.9629V117.792Z" fill="#EDC74A"/>
<path d="M68.7227 117.792H65.1426L64.5146 113.679H60.1504L59.5225 117.792H56.2578L59.8687 95.1548H65.0806L68.7227 117.792ZM60.5908 110.602H64.0127L62.2856 99.1738L60.5908 110.602Z" fill="#EDC74A"/>
<path d="M77.7949 117.792C77.7642 117.635 77.7012 117.51 77.6699 117.384C77.6382 117.258 77.5762 117.101 77.5439 116.913C77.5132 116.725 77.481 116.474 77.481 116.16C77.481 115.846 77.4502 115.469 77.4502 115.029V111.481C77.4502 110.414 77.2622 109.692 76.8853 109.252C76.5083 108.813 75.9121 108.593 75.0952 108.593H73.8711V117.792H70.3232V95.1548H75.6919C77.5439 95.1548 78.894 95.5938 79.7109 96.4419C80.5273 97.2898 80.9673 98.6089 80.9673 100.367V102.156C80.9673 104.48 80.1821 106.018 78.6431 106.74C79.5542 107.117 80.1821 107.714 80.4961 108.53C80.8413 109.346 80.998 110.383 80.998 111.544V115.029C80.998 115.594 81.0293 116.065 81.061 116.505C81.0923 116.913 81.2183 117.353 81.375 117.792H77.7949ZM73.9023 98.3887V105.328H75.2842C75.9429 105.328 76.4771 105.171 76.853 104.825C77.23 104.48 77.4189 103.852 77.4189 102.941V100.712C77.4189 99.8958 77.2622 99.2988 76.979 98.9229C76.6963 98.5459 76.2261 98.3567 75.5981 98.3567H73.9023V98.3887Z" fill="#EDC74A"/>
<path d="M82.3174 95.1548H93.3066V98.3887H89.6016V117.792H86.0537V98.3887H82.3486V95.1548H82.3174Z" fill="#EDC74A"/>
<path d="M102.379 111.23L104.797 95.1548H109.759V117.792H106.398V101.56L103.95 117.792H100.591L97.9526 101.78V117.792H94.8447V95.1548H99.8057L102.379 111.23Z" fill="#EDC74A"/>
<path d="M112.333 95.1548H115.881V117.792H112.333V95.1548Z" fill="#EDC74A"/>
<path d="M130.355 95.1548L126.65 106.144L130.638 117.792H126.902L123.982 108.844L121.03 117.792H117.702L121.69 106.144L117.985 95.1548H121.658L124.327 103.507L127.09 95.1548H130.355Z" fill="#EDC74A"/>
<defs>
<linearGradient id="paint0_linear_858_2" x1="-1.40421e-06" y1="6.6037" x2="152.435" y2="153.536" gradientUnits="userSpaceOnUse">
<stop stop-color="#F09100"/>
<stop offset="0.501884" stop-color="#191970"/>
</linearGradient>
</defs>
</svg>
