<svg width="28" height="28" viewBox="0 0 28 28" fill="none" xmlns="http://www.w3.org/2000/svg">
<path d="M10.2302 17.6478C13.9949 21.4128 18.3786 22.2828 19.824 22.2368C20.8699 20.7958 21.4841 19.5338 21.9099 18.4818C21.0525 17.4448 18.782 16.2657 17.739 15.9788L16.3874 17.3898C15.7556 17.1877 14.3562 16.7678 12.7331 15.1448C11.1091 13.5219 10.7273 12.1588 10.5251 11.5269L11.8982 10.1388C11.4285 8.63184 10.3347 6.98376 9.39525 5.9668C8.34447 6.39282 7.0808 7.00684 5.64135 8.05286C5.59545 9.49878 6.46459 13.8818 10.2302 17.6478Z" stroke="white" stroke-linejoin="round"/>
<path d="M22.1582 23.9911C19.9141 25.844 17.0361 26.958 13.8994 26.958C6.73047 26.958 0.920898 21.1471 0.920898 13.979C0.920898 6.81104 6.73047 1 13.8994 1C21.0674 1 26.8789 6.81104 26.8789 13.979C26.8789 15.8351 26.1562 17.6541 25.4277 18.723C24.2725 20.4191 22.626 21.28 20.8457 20.6691" stroke="white" stroke-linejoin="round"/>
</svg>
