<svg width="27" height="19" viewBox="0 0 27 19" fill="none" xmlns="http://www.w3.org/2000/svg">
<path d="M0.493164 2.76986C0.493164 1.7924 1.28556 1 2.26303 1H24.6813C25.6587 1 26.4511 1.79239 26.4511 2.76986V16.3388C26.4511 17.3163 25.6587 18.1087 24.6813 18.1087H2.26303C1.28556 18.1087 0.493164 17.3163 0.493164 16.3388V2.76986Z" stroke="white" stroke-linejoin="round"/>
<path d="M24.0918 3.35938C24.0918 3.35938 17.3828 10.2594 16.8223 10.7384C16.2109 11.2614 14.9326 12.2094 13.4717 12.2094C12.0117 12.2094 10.7334 11.2573 10.1211 10.7344C9.56055 10.2554 2.85254 3.35938 2.85254 3.35938" stroke="white" stroke-linejoin="round"/>
<line x1="19.7256" y1="10.6757" x2="24.4453" y2="15.3954" stroke="white"/>
<line x1="7.9268" y1="11.3829" x2="3.20716" y2="16.1025" stroke="white"/>
</svg>
