<svg width="26" height="28" viewBox="0 0 26 28" fill="none" xmlns="http://www.w3.org/2000/svg">
<line x1="13.4443" y1="26.458" x2="16.3253" y2="26.458" stroke="white" stroke-linejoin="round"/>
<line x1="9.40918" y1="26.458" x2="12.2901" y2="26.458" stroke="white" stroke-linejoin="round"/>
<line x1="21.5107" y1="26.458" x2="24.3917" y2="26.458" stroke="white" stroke-linejoin="round"/>
<line x1="17.4775" y1="26.458" x2="20.3585" y2="26.458" stroke="white" stroke-linejoin="round"/>
<path d="M5.44824 24.3052C5.61914 25.6761 6.70605 26.7632 8.07715 26.9342" stroke="white" stroke-linejoin="round"/>
<path d="M8.45801 20.8931C7.0459 20.8931 5.86035 21.858 5.52246 23.165" stroke="white" stroke-linejoin="round"/>
<line x1="12.8662" y1="21.1196" x2="9.40905" y2="21.1196" stroke="white" stroke-linejoin="round"/>
<line x1="16.9014" y1="21.1196" x2="14.0204" y2="21.1196" stroke="white" stroke-linejoin="round"/>
<path d="M24.5957 18.2397C24.4248 19.6118 23.3379 20.6989 21.9658 20.8698" stroke="white" stroke-linejoin="round"/>
<path d="M21.5869 14.8291C23 14.8291 24.1875 15.795 24.5244 17.103" stroke="white" stroke-linejoin="round"/>
<line x1="13.4443" y1="14.3579" x2="16.3253" y2="14.3579" stroke="white" stroke-linejoin="round"/>
<line x1="20.9346" y1="21.1196" x2="18.0536" y2="21.1196" stroke="white" stroke-linejoin="round"/>
<line x1="17.4775" y1="14.3579" x2="20.3585" y2="14.3579" stroke="white" stroke-linejoin="round"/>
<path d="M7.67871 5.06299H7.68262H7.68653C8.95606 5.06299 9.98633 6.026 9.98828 7.36401C9.99024 8.70203 8.96192 9.672 7.69336 9.672H7.68262H7.67285C6.4043 9.672 5.37598 8.70203 5.37793 7.36401C5.37989 6.026 6.41016 5.06299 7.67871 5.06299Z" stroke="white" stroke-linejoin="round"/>
<path d="M7.68167 1C11.1592 1 13.9776 3.81909 13.9776 7.29602C13.9815 8.80103 13.7569 9.84302 12.9024 11.2111C12.0479 12.578 7.68167 17.7681 7.68167 17.7681C7.68167 17.7681 3.31643 12.578 2.46194 11.2111C1.60745 9.84302 1.38284 8.80103 1.38577 7.29602C1.38577 3.81909 4.20511 1 7.68167 1Z" stroke="white" stroke-linejoin="round"/>
</svg>
