<svg width="69" height="69" viewBox="0 0 69 69" fill="none" xmlns="http://www.w3.org/2000/svg">
<rect y="0.280762" width="68.24" height="68.24" fill="url(#paint0_linear_1175_5)"/>
<path d="M39.1196 27.3716H33.4961L36.3081 13.313L22.2495 28.3086H27.873L25.061 42.3672L39.1196 27.3716Z" stroke="white"/>
<ellipse cx="38.1832" cy="43.3044" rx="6.56062" ry="2.81169" stroke="white"/>
<path d="M44.7437 43.3047V47.9907C44.7437 49.5439 41.8057 50.8018 38.1826 50.8018C34.5596 50.8018 31.6226 49.5439 31.6226 47.9907V43.3047" stroke="white"/>
<path d="M31.6226 47.9907V52.6768C31.6226 54.23 34.5596 55.4888 38.1826 55.4888C41.8057 55.4888 44.7437 54.23 44.7437 52.6768V47.9907" stroke="white"/>
<path d="M53.1792 38.6177V43.3047C53.1792 44.7207 50.7354 45.8926 47.5562 46.0879" stroke="white"/>
<ellipse cx="46.6177" cy="33.9318" rx="6.56062" ry="2.81169" stroke="white"/>
<line x1="39.5571" y1="37.6812" x2="39.5571" y2="33.9322" stroke="white"/>
<path d="M53.1787 33.9316V38.6177C53.1787 40.0869 50.5527 41.292 47.2036 41.4189" stroke="white"/>
<path d="M47.5542 50.7739C50.7344 50.5786 53.1792 49.4067 53.1792 47.9907V43.3047" stroke="white"/>
<path d="M48.3804 25.4263L52.8223 26.6797L53.6274 22.1772" stroke="white"/>
<path d="M41.3267 16.9097C45.5649 18.1196 48.4917 20.3569 50.8638 23.5459C51.3276 24.1689 52.8228 26.6797 52.8228 26.6797" stroke="white"/>
<path d="M25.0608 51.7397C14.7513 47.0537 17.8191 36.0366 17.8191 36.0366" stroke="white"/>
<path d="M20.4678 39.7725L17.8198 36.0366L14.3569 39.0239" stroke="white"/>
<defs>
<linearGradient id="paint0_linear_1175_5" x1="-5.96322e-07" y1="3.08515" x2="64.7345" y2="65.4827" gradientUnits="userSpaceOnUse">
<stop stop-color="#FF0000"/>
<stop offset="0.501884" stop-color="#191970"/>
</linearGradient>
</defs>
</svg>
