<svg width="69" height="69" viewBox="0 0 69 69" fill="none" xmlns="http://www.w3.org/2000/svg">
<rect y="0.280762" width="68.24" height="68.24" fill="url(#paint0_linear_1175_4)"/>
<path d="M26.4292 55.4878C26.4292 38.8037 37.9404 28.1006 37.9404 28.1006L38.1982 27.8428" stroke="white"/>
<path d="M29.9438 39.7635C35.2949 36.7064 39.8687 39.2665 45.4307 43.9012" stroke="white"/>
<path d="M35.7861 38.5154C37.8765 36.4246 43.2773 34.3314 46.3032 36.8323C49.478 39.4544 49.1973 43.6404 51.5664 48.5286C44.0771 49.8475 39.1104 51.1595 35.6304 41.8323" stroke="white"/>
<path d="M28.1694 44.3535C26.7021 38.0996 24.9902 33.9995 21.314 30.3198" stroke="white"/>
<path d="M26.0121 37.3628C28.242 33.7124 29.369 30.1855 26.2411 27.8687C23.1122 25.5508 20.056 26.5215 17.618 23.0464C15.1678 27.5435 12.0809 35.4526 22.9998 37.9658" stroke="white"/>
<path d="M38.1982 27.8428L40.2324 29.8774C41.0352 30.6797 42.3364 30.6797 43.1382 29.8774L46.0454 26.9707L47.6431 27.1167L50.5493 24.2104L46.1904 19.8516L41.8311 15.4927L38.9253 18.3984L39.0703 19.9966L36.1641 22.9023C35.3613 23.7056 35.3613 25.0063 36.1641 25.8086L38.1982 27.8428Z" stroke="white"/>
<line x1="48.7222" y1="13.6661" x2="44.3631" y2="18.0252" stroke="white"/>
<line x1="53.0816" y1="18.0254" x2="48.7225" y2="22.3845" stroke="white"/>
<defs>
<linearGradient id="paint0_linear_1175_4" x1="-5.96322e-07" y1="3.08515" x2="64.7345" y2="65.4827" gradientUnits="userSpaceOnUse">
<stop stop-color="#FF0000"/>
<stop offset="0.501884" stop-color="#191970"/>
</linearGradient>
</defs>
</svg>
