<svg width="69" height="69" viewBox="0 0 69 69" fill="none" xmlns="http://www.w3.org/2000/svg">
<rect y="0.280762" width="68.24" height="68.24" fill="url(#paint0_linear_1175_3)"/>
<path d="M34.0029 13.3213C32.3086 15.7251 21.0098 20.6553 16.5737 20.6553V38.0742C16.5737 46.2622 33.0249 55.2222 33.9927 55.48C34.9609 55.2212 51.4116 45.6372 51.4116 38.9902V20.6553C46.5728 20.6553 35.6958 15.7251 34.0029 13.3213Z" stroke="white"/>
<path d="M33.9927 50.9082C34.7568 50.7061 47.7446 43.2749 47.7446 38.0742" stroke="white"/>
<path d="M33.9927 17.9043C32.6558 19.7861 23.7427 23.4053 20.2407 23.4053V37.1572" stroke="white"/>
<path d="M41.3271 27.0723L32.1592 36.2402L28.4922 32.5728L25.7417 35.3232L32.1592 41.7407L44.0771 29.8228L41.3271 27.0723Z" stroke="white"/>
<defs>
<linearGradient id="paint0_linear_1175_3" x1="-5.96322e-07" y1="3.08515" x2="64.7345" y2="65.4827" gradientUnits="userSpaceOnUse">
<stop stop-color="#FF0000"/>
<stop offset="0.501884" stop-color="#191970"/>
</linearGradient>
</defs>
</svg>
