<svg width="69" height="69" viewBox="0 0 69 69" fill="none" xmlns="http://www.w3.org/2000/svg">
<rect y="0.280762" width="68.24" height="68.24" fill="url(#paint0_linear_1175_2)"/>
<path d="M29.8667 29.0996L32.6172 31.8501L38.1177 25.4326" stroke="white"/>
<path d="M37.5575 14.9916C38.5038 15.9364 39.7865 16.4686 41.1234 16.4686C43.9086 16.4686 46.1654 18.7255 46.1654 21.5106C46.1654 22.8475 46.6967 24.1302 47.6425 25.0756C49.6117 27.0443 49.6117 30.2372 47.6425 32.2064C46.6967 33.1522 46.1654 34.4344 46.1654 35.7723C46.1654 38.5565 43.9086 40.8143 41.1234 40.8143C39.7865 40.8143 38.5038 41.3456 37.5575 42.2914C35.5887 44.2606 32.3964 44.2606 30.4276 42.2914C29.4818 41.3456 28.1986 40.8143 26.8617 40.8143C24.0765 40.8143 21.8197 38.5565 21.8197 35.7723C21.8197 34.4344 21.2885 33.1522 20.3427 32.2064C18.3734 30.2372 18.3734 27.0443 20.3427 25.0756C21.2885 24.1302 21.8197 22.8475 21.8197 21.5106C21.8197 18.7255 24.0765 16.4686 26.8617 16.4686C28.1986 16.4686 29.4818 15.9364 30.4276 14.9916C32.3964 13.0223 35.5887 13.0223 37.5575 14.9916Z" stroke="white"/>
<path d="M40.3247 40.8784L46.4297 52.2109L41.5781 50.937L39.9731 55.6899L34.9976 46.4541" stroke="white"/>
<path d="M28.8486 41.2231L22.9292 52.2109L27.7812 50.937L29.3862 55.6899L32.7002 49.5381" stroke="white"/>
<circle cx="33.9921" cy="28.641" r="8.70937" stroke="white"/>
<defs>
<linearGradient id="paint0_linear_1175_2" x1="-5.96322e-07" y1="3.08515" x2="64.7345" y2="65.4827" gradientUnits="userSpaceOnUse">
<stop stop-color="#FF0000"/>
<stop offset="0.501884" stop-color="#191970"/>
</linearGradient>
</defs>
</svg>
