<svg width="28" height="40" viewBox="0 0 28 40" fill="none" xmlns="http://www.w3.org/2000/svg">
<path d="M13.6704 0.892578C6.12406 0.892578 0.00736062 7.00977 0.00736062 14.5557C0.00247781 17.8208 0.487341 20.0825 2.34232 23.0508C4.19633 26.0166 13.6704 39.7808 13.6704 39.7808C13.6704 39.7808 23.1451 26.0166 24.9991 23.0508C26.854 20.0825 27.3394 17.8208 27.334 14.5557C27.334 7.00977 21.2173 0.892578 13.6704 0.892578ZM13.6812 19.8105L13.6573 19.8096L13.6333 19.8105C10.7325 19.8076 8.38431 17.4517 8.38822 14.5488C8.3931 11.646 10.7471 9.29688 13.6485 9.30078H13.6573H13.6651C16.5674 9.29688 18.9214 11.646 18.9263 14.5488C18.9302 17.4517 16.5811 19.8076 13.6812 19.8105Z" fill="#FF0000"/>
</svg>
