<svg width="172" height="71" viewBox="0 0 172 71" fill="none" xmlns="http://www.w3.org/2000/svg">
<g clip-path="url(#clip0_2_18879)">
<path d="M129.74 51.1001H134.06V51.8001H130.57V53.7901H133.82V54.4901H130.57V56.6501H134.08V57.3501H129.74V51.1001Z" fill="white"/>
<path d="M135.19 51.1001H135.93V57.3501H135.19V51.1001Z" fill="white"/>
<path d="M141.13 55.92C141.03 56.42 140.81 56.8 140.47 57.07C140.13 57.33 139.7 57.46 139.19 57.46C138.83 57.46 138.51 57.4 138.25 57.28C137.99 57.16 137.76 57 137.58 56.79C137.4 56.58 137.26 56.33 137.17 56.04C137.08 55.75 137.03 55.43 137.02 55.09C137.02 54.75 137.07 54.44 137.18 54.15C137.28 53.86 137.43 53.61 137.62 53.4C137.81 53.19 138.03 53.03 138.29 52.91C138.55 52.79 138.83 52.73 139.14 52.73C139.54 52.73 139.88 52.81 140.14 52.98C140.4 53.15 140.62 53.36 140.78 53.61C140.94 53.86 141.05 54.15 141.11 54.45C141.17 54.75 141.2 55.04 141.18 55.32H137.79C137.79 55.52 137.81 55.71 137.86 55.89C137.91 56.07 138 56.22 138.11 56.36C138.23 56.5 138.38 56.61 138.56 56.69C138.74 56.77 138.95 56.81 139.2 56.81C139.51 56.81 139.77 56.74 139.97 56.59C140.17 56.44 140.31 56.22 140.37 55.92H141.11H141.13ZM140.41 54.66C140.4 54.49 140.36 54.32 140.29 54.16C140.22 54 140.13 53.87 140.02 53.75C139.91 53.63 139.77 53.55 139.61 53.48C139.45 53.41 139.28 53.38 139.1 53.38C138.91 53.38 138.73 53.41 138.58 53.48C138.43 53.55 138.29 53.64 138.18 53.76C138.07 53.88 137.98 54.01 137.92 54.17C137.86 54.32 137.82 54.49 137.81 54.66H140.41Z" fill="white"/>
<path d="M145.22 54.2802C145.16 53.9902 145.04 53.7702 144.85 53.6102C144.66 53.4502 144.41 53.3702 144.1 53.3702C143.83 53.3702 143.61 53.4202 143.43 53.5202C143.25 53.6202 143.1 53.7502 143 53.9102C142.89 54.0702 142.81 54.2602 142.77 54.4802C142.72 54.6902 142.7 54.9102 142.7 55.1402C142.7 55.3502 142.72 55.5602 142.77 55.7502C142.82 55.9502 142.9 56.1302 143 56.2802C143.1 56.4302 143.24 56.5602 143.41 56.6502C143.58 56.7402 143.78 56.7902 144.02 56.7902C144.38 56.7902 144.67 56.6902 144.88 56.5002C145.09 56.3002 145.22 56.0302 145.27 55.6902H146.03C145.95 56.2402 145.74 56.6802 145.4 56.9902C145.06 57.3002 144.61 57.4502 144.03 57.4502C143.69 57.4502 143.38 57.3902 143.11 57.2802C142.84 57.1702 142.62 57.0102 142.44 56.8002C142.26 56.6002 142.13 56.3502 142.04 56.0702C141.95 55.7902 141.9 55.4802 141.9 55.1402C141.9 54.8002 141.94 54.4902 142.03 54.1902C142.12 53.9002 142.25 53.6402 142.43 53.4202C142.61 53.2002 142.83 53.0302 143.1 52.9002C143.37 52.7702 143.68 52.7102 144.04 52.7102C144.3 52.7102 144.54 52.7402 144.76 52.8002C144.98 52.8602 145.18 52.9602 145.36 53.0902C145.53 53.2202 145.68 53.3802 145.78 53.5802C145.89 53.7802 145.96 54.0102 145.99 54.2802H145.22Z" fill="white"/>
<path d="M148.05 52.8302H148.95V53.4902H148.05V56.3002C148.05 56.3902 148.05 56.4602 148.07 56.5102C148.08 56.5602 148.11 56.6002 148.15 56.6302C148.19 56.6602 148.25 56.6802 148.32 56.6902C148.39 56.6902 148.49 56.7002 148.6 56.7002H148.94V57.3602H148.37C148.18 57.3602 148.01 57.3502 147.88 57.3202C147.74 57.2902 147.63 57.2502 147.55 57.1802C147.47 57.1102 147.4 57.0102 147.36 56.8802C147.32 56.7502 147.3 56.5802 147.3 56.3702V53.4902H146.53V52.8302H147.3V51.4702H148.04V52.8302H148.05Z" fill="white"/>
<path d="M149.93 52.8301H150.63V53.7901H150.65C150.83 53.4201 151.05 53.1501 151.32 52.9801C151.58 52.8001 151.92 52.7201 152.32 52.7301V53.5201C152.02 53.5201 151.77 53.5601 151.56 53.6401C151.35 53.7201 151.18 53.8401 151.05 54.0001C150.92 54.1601 150.83 54.3501 150.77 54.5801C150.71 54.8101 150.68 55.0701 150.68 55.3501V57.3601H149.94V52.8301H149.93Z" fill="white"/>
<path d="M153.83 52.0101H153.09V51.1001H153.83V52.0101ZM153.09 52.8301H153.83V57.3601H153.09V52.8301Z" fill="white"/>
<path d="M158.24 54.2802C158.18 53.9902 158.06 53.7702 157.87 53.6102C157.68 53.4502 157.43 53.3702 157.12 53.3702C156.85 53.3702 156.63 53.4202 156.45 53.5202C156.27 53.6202 156.12 53.7502 156.02 53.9102C155.91 54.0702 155.83 54.2602 155.79 54.4802C155.74 54.6902 155.72 54.9102 155.72 55.1402C155.72 55.3502 155.74 55.5602 155.79 55.7502C155.84 55.9502 155.92 56.1302 156.02 56.2802C156.12 56.4302 156.26 56.5602 156.43 56.6502C156.6 56.7402 156.8 56.7902 157.04 56.7902C157.4 56.7902 157.69 56.6902 157.9 56.5002C158.11 56.3002 158.24 56.0302 158.29 55.6902H159.05C158.97 56.2402 158.76 56.6802 158.42 56.9902C158.08 57.3002 157.63 57.4502 157.05 57.4502C156.71 57.4502 156.4 57.3902 156.13 57.2802C155.86 57.1702 155.64 57.0102 155.46 56.8002C155.28 56.6002 155.15 56.3502 155.06 56.0702C154.97 55.7902 154.92 55.4802 154.92 55.1402C154.92 54.8002 154.96 54.4902 155.05 54.1902C155.14 53.9002 155.27 53.6402 155.45 53.4202C155.63 53.2002 155.85 53.0302 156.12 52.9002C156.39 52.7702 156.7 52.7102 157.06 52.7102C157.32 52.7102 157.56 52.7402 157.78 52.8002C158 52.8602 158.2 52.9602 158.38 53.0902C158.55 53.2202 158.7 53.3802 158.8 53.5802C158.91 53.7802 158.98 54.0102 159.01 54.2802H158.24Z" fill="white"/>
<path d="M164.05 57.3402C163.92 57.4202 163.74 57.4602 163.52 57.4602C163.33 57.4602 163.17 57.4002 163.06 57.2902C162.95 57.1802 162.89 57.0002 162.89 56.7502C162.69 57.0002 162.45 57.1702 162.18 57.2902C161.91 57.4002 161.62 57.4602 161.3 57.4602C161.1 57.4602 160.9 57.4402 160.72 57.3902C160.54 57.3402 160.38 57.2702 160.24 57.1702C160.11 57.0702 160 56.9402 159.92 56.7802C159.84 56.6202 159.8 56.4302 159.8 56.2002C159.8 55.9402 159.84 55.7302 159.93 55.5702C160.02 55.4102 160.13 55.2802 160.28 55.1802C160.42 55.0802 160.59 55.0002 160.77 54.9502C160.95 54.8902 161.14 54.8502 161.33 54.8102C161.53 54.7702 161.73 54.7402 161.91 54.7202C162.09 54.7002 162.26 54.6702 162.4 54.6302C162.54 54.5902 162.65 54.5402 162.73 54.4602C162.81 54.3902 162.85 54.2802 162.85 54.1402C162.85 53.9802 162.82 53.8502 162.76 53.7502C162.7 53.6502 162.62 53.5802 162.52 53.5202C162.42 53.4702 162.32 53.4302 162.2 53.4102C162.08 53.3902 161.96 53.3802 161.85 53.3802C161.53 53.3802 161.27 53.4402 161.06 53.5602C160.85 53.6802 160.74 53.9102 160.72 54.2402H159.98C159.99 53.9602 160.05 53.7202 160.16 53.5302C160.26 53.3402 160.41 53.1802 160.58 53.0602C160.76 52.9402 160.96 52.8502 161.18 52.8002C161.41 52.7502 161.65 52.7202 161.9 52.7202C162.1 52.7202 162.31 52.7402 162.51 52.7602C162.71 52.7902 162.89 52.8502 163.06 52.9402C163.23 53.0302 163.35 53.1602 163.45 53.3202C163.55 53.4802 163.6 53.7002 163.6 53.9602V56.2902C163.6 56.4602 163.61 56.5902 163.63 56.6702C163.65 56.7502 163.72 56.7902 163.84 56.7902C163.91 56.7902 163.99 56.7702 164.07 56.7502V57.3302L164.05 57.3402ZM162.85 55.0202C162.78 55.0702 162.69 55.1102 162.59 55.1402C162.48 55.1702 162.37 55.1902 162.26 55.2102C162.15 55.2302 162.02 55.2502 161.89 55.2602C161.76 55.2702 161.63 55.2902 161.51 55.3202C161.39 55.3402 161.27 55.3702 161.16 55.4102C161.05 55.4502 160.95 55.4902 160.87 55.5502C160.79 55.6102 160.72 55.6902 160.67 55.7802C160.62 55.8702 160.6 55.9902 160.6 56.1302C160.6 56.2502 160.62 56.3602 160.67 56.4402C160.72 56.5202 160.78 56.5902 160.86 56.6502C160.94 56.7102 161.03 56.7402 161.14 56.7602C161.25 56.7802 161.36 56.8002 161.47 56.8002C161.72 56.8002 161.93 56.7702 162.1 56.7002C162.28 56.6302 162.42 56.5502 162.53 56.4502C162.64 56.3502 162.72 56.2402 162.78 56.1202C162.83 56.0002 162.86 55.8902 162.86 55.7802V55.0202H162.85Z" fill="white"/>
<path d="M164.97 51.1001H165.71V57.3501H164.97V51.1001Z" fill="white"/>
<path d="M77.99 28.1201C76.88 27.4601 75.67 26.9301 74.36 26.5201C73.05 26.1101 71.76 25.7601 70.49 25.4701C69.14 25.1401 68 24.8001 67.08 24.4601C66.16 24.1101 65.48 23.7001 65.05 23.2301C64.62 22.7601 64.4 22.1501 64.4 21.4201C64.4 20.4001 64.88 19.5901 65.85 18.9901C66.81 18.4001 68.01 18.1001 69.45 18.1001C70.97 18.1001 72.37 18.4101 73.66 19.0201C74.95 19.6401 76.01 20.6201 76.83 21.9701L80.58 19.0801C79.51 17.2001 78.02 15.7701 76.09 14.8101C74.16 13.8501 72.03 13.3601 69.7 13.3601C66.42 13.3601 63.79 14.1501 61.8 15.7301C59.81 17.3101 58.82 19.3901 58.82 21.9701C58.82 23.4501 59.12 24.6901 59.71 25.6901C60.3 26.6901 61.08 27.5101 62.05 28.1501C63.01 28.7901 64.09 29.3101 65.28 29.7201C66.47 30.1301 67.64 30.5001 68.78 30.8301C70.05 31.1201 71.22 31.4601 72.28 31.8401C73.35 32.2301 74.21 32.7201 74.86 33.3201C75.52 33.9201 75.84 34.7001 75.84 35.6901C75.84 36.9201 75.32 37.9101 74.27 38.6701C73.22 39.4301 71.8 39.8101 70 39.8101C67.95 39.8101 66.2 39.3101 64.74 38.3001C63.28 37.3001 62.17 36.1001 61.39 34.7001L57.27 38.2701C57.97 39.3401 58.9 40.3701 60.07 41.3801C61.24 42.3901 62.64 43.2001 64.28 43.8401C65.92 44.4801 67.8 44.7901 69.94 44.7901C72.32 44.7901 74.39 44.3801 76.15 43.5601C77.91 42.7401 79.29 41.6001 80.27 40.1501C81.25 38.7001 81.75 37.0001 81.75 35.0801C81.75 33.3201 81.4 31.8801 80.7 30.7801C80 29.6701 79.1 28.7901 77.99 28.1401V28.1201Z" fill="white"/>
<path d="M99.8099 13.3601C97.2299 13.3601 94.8399 13.8001 92.6499 14.6801C90.4599 15.5601 88.4599 16.9401 86.6499 18.8301L90.3999 22.7001C91.7499 21.2201 93.1799 20.1601 94.6699 19.5001C96.1699 18.8401 97.7299 18.5201 99.3699 18.5201C101.71 18.5201 103.49 19.1001 104.72 20.2401C105.95 21.3901 106.56 23.0301 106.56 25.1601V26.1401H97.4599C95.9399 26.1401 94.5199 26.2701 93.1899 26.5401C91.8599 26.8101 90.6799 27.2701 89.6499 27.9201C88.5399 28.5801 87.6399 29.5101 86.9399 30.7201C86.2399 31.9301 85.8899 33.3701 85.8899 35.0601C85.8899 36.9901 86.3599 38.6801 87.2999 40.1301C88.2399 41.5901 89.5699 42.7201 91.2999 43.5401C93.0199 44.3601 95.0099 44.7701 97.2599 44.7701C99.2299 44.7701 101 44.3601 102.58 43.5401C104.16 42.7201 105.48 41.5201 106.55 39.9401C106.59 39.8901 106.62 39.8201 106.65 39.7701V44.7701H112.57V25.1601C112.57 21.4301 111.45 18.5301 109.22 16.4601C106.99 14.3901 103.84 13.3501 99.7799 13.3501L99.8099 13.3601ZM106.57 31.5601C106.57 33.1601 106.18 34.5801 105.4 35.8301C104.62 37.0801 103.59 38.0701 102.3 38.7801C101.01 39.5001 99.5799 39.8601 98.0299 39.8601C96.1899 39.8601 94.7099 39.4301 93.5999 38.5701C92.4899 37.7101 91.9399 36.5601 91.9399 35.1301C91.9399 34.3901 92.0799 33.7501 92.3699 33.1901C92.6599 32.6301 93.0499 32.1801 93.5399 31.8101C94.1599 31.3601 94.8999 31.0601 95.7799 30.9201C96.6599 30.7801 97.5099 30.7101 98.3299 30.7101H106.57V31.5701V31.5601Z" fill="white"/>
<path d="M136.88 15.3899C135.98 14.8599 135.09 14.4799 134.21 14.2499C133.33 14.0299 132.4 13.9099 131.41 13.9099C130.02 13.9099 128.6 14.2899 127.17 15.0499C125.73 15.8099 124.5 16.8499 123.45 18.1899C123.23 18.4699 123.05 18.7599 122.87 19.0499V13.4399H116.78V44.7699H122.87V30.9399C122.87 29.3399 122.92 28.0799 123.02 27.1599C123.12 26.2399 123.26 25.4899 123.42 24.9199C123.79 23.7299 124.33 22.7699 125.05 22.0299C125.77 21.2899 126.58 20.7599 127.48 20.4299C128.38 20.0999 129.3 19.9399 130.25 19.9399C130.87 19.9399 131.52 20.0199 132.22 20.1899C132.92 20.3499 133.49 20.5599 133.94 20.7999L136.89 15.3899H136.88Z" fill="white"/>
<path d="M162.37 16.4701C160.14 14.4001 156.99 13.3601 152.93 13.3601C152.91 13.3601 152.89 13.3601 152.87 13.3601C152.86 13.3601 152.84 13.3601 152.83 13.3601C150.25 13.3601 147.86 13.8001 145.67 14.6801C143.48 15.5601 141.48 16.9401 139.67 18.8301L143.42 22.7001C143.42 22.7001 143.45 22.6701 143.47 22.6501L143.52 22.7001C144.87 21.2201 146.3 20.1601 147.79 19.5001C149.27 18.8501 150.83 18.5201 152.46 18.5201C154.77 18.5301 156.53 19.1001 157.75 20.2401C158.98 21.3901 159.6 23.0301 159.6 25.1601V26.1401H150.5C148.98 26.1401 147.56 26.2701 146.23 26.5401C144.9 26.8101 143.72 27.2701 142.69 27.9201C141.58 28.5801 140.68 29.5101 139.98 30.7201C139.28 31.9301 138.93 33.3701 138.93 35.0601C138.93 36.9901 139.4 38.6801 140.34 40.1301C141.28 41.5901 142.62 42.7201 144.34 43.5401C146.06 44.3601 148.05 44.7701 150.3 44.7701C150.32 44.7701 150.33 44.7701 150.35 44.7701C150.37 44.7701 150.38 44.7701 150.4 44.7701C152.37 44.7701 154.14 44.3601 155.72 43.5401C157.3 42.7201 158.62 41.5201 159.69 39.9401C159.69 39.9401 159.7 39.9201 159.71 39.9101L159.8 40.8801V44.7601H165.72V25.1501C165.72 21.4201 164.6 18.5201 162.37 16.4501V16.4701ZM159.6 30.7001V31.5601C159.6 33.1601 159.21 34.5801 158.43 35.8301C157.65 37.0801 156.62 38.0701 155.32 38.7801C154.04 39.4901 152.63 39.8501 151.1 39.8501C149.28 39.8501 147.82 39.4101 146.72 38.5601C145.61 37.7001 145.06 36.5501 145.06 35.1201C145.06 34.3801 145.2 33.7401 145.49 33.1801C145.78 32.6301 146.17 32.1701 146.66 31.8001C147.28 31.3501 148.02 31.0501 148.9 30.9101C149.78 30.7701 150.63 30.7001 151.45 30.7001H159.59H159.6Z" fill="white"/>
<path d="M171.17 13.3601L170.4 15.5401L169.61 13.3601H168.79V16.4901H169.29V13.8601L170.23 16.2601H170.56L171.47 13.9001V16.4901H171.98V13.3601H171.17Z" fill="white"/>
<path d="M165.72 13.8201H166.66V16.4901H167.17V13.8201H168.09V13.3601H165.72V13.8201Z" fill="white"/>
<path d="M5.06362 25.3268L0.000732422 30.3896L20.2593 50.6483L25.3222 45.5854L5.06362 25.3268Z" fill="#FF0000"/>
<path d="M40.52 50.6501L20.26 70.9101L0 50.6501L5.06 45.5901H5.07L20.26 60.7801L35.46 45.5901L40.52 50.6501Z" fill="#FF0000"/>
<path d="M40.52 20.26L35.46 25.32L20.26 10.13L5.06 25.32L0 20.26L20.25 0L40.52 20.26Z" fill="#FF0000"/>
<path d="M40.5199 40.52L35.4599 45.59L15.1899 25.32L20.2599 20.26L40.5199 40.52Z" fill="#FF0000"/>
</g>
<defs>
<clipPath id="clip0_2_18879">
<rect width="171.98" height="70.91" fill="white"/>
</clipPath>
</defs>
</svg>
