<svg width="165" height="42" viewBox="0 0 165 42" fill="none" xmlns="http://www.w3.org/2000/svg">
<path d="M0.288574 0.0398874C0.288574 0.0221736 0.302934 0.0078125 0.320648 0.0078125H164.613C164.63 0.0078125 164.645 0.0221701 164.645 0.0398811V41.0542C164.645 41.0719 164.63 41.0862 164.613 41.0862H0.320648C0.302931 41.0862 0.288574 41.0719 0.288574 41.0542V0.0398874Z" fill="#EC5224"/>
<path d="M12.6607 9.7452C12.6466 11.754 10.983 13.3722 8.94589 13.3585C6.90781 13.3448 5.26669 11.7032 5.28085 9.69345C5.29501 7.68466 6.95859 6.06649 8.99667 6.08016C11.0348 6.09481 12.6759 7.73544 12.6607 9.7452ZM8.98105 12.753C10.6139 12.7472 11.9317 11.3858 11.9259 9.71005C11.92 8.03427 10.5929 6.68173 8.95956 6.68759C7.32675 6.69345 6.00888 8.05575 6.01474 9.73055C6.01962 11.4063 7.34775 12.7599 8.98105 12.753Z" fill="white"/>
<path d="M24.458 34.8945C24.458 34.9062 24.4482 34.916 24.436 34.916H23.3594C23.3481 34.916 23.3374 34.9062 23.3374 34.8945V6.1748C23.3374 6.16406 23.3481 6.15332 23.3594 6.15332H24.436C24.4482 6.15332 24.458 6.16406 24.458 6.1748V34.8945Z" fill="white"/>
<path d="M26.6997 34.8936C26.6997 34.9062 26.6885 34.917 26.6768 34.917H25.6006C25.5889 34.917 25.5776 34.9062 25.5776 34.8936V6.18164C25.5776 6.16895 25.5889 6.1582 25.6006 6.1582H26.6768C26.6885 6.1582 26.6997 6.16895 26.6997 6.18164V34.8936Z" fill="white"/>
<path d="M41.4175 27.7285H54.6948C54.7148 27.7285 54.731 27.7441 54.731 27.7656L54.7178 34.873C54.7178 34.8936 54.7017 34.9092 54.6816 34.9092L30.1089 34.9111C30.0889 34.9111 30.0728 34.8955 30.0728 34.875V6.2002C30.0728 6.18066 30.0889 6.16406 30.1089 6.16406L41.3447 6.16016C41.3647 6.16016 41.3818 6.17676 41.3818 6.19727V27.6924C41.3818 27.7119 41.3979 27.7285 41.4175 27.7285Z" fill="white"/>
<path d="M19.9844 34.8662C19.9844 34.8955 19.9614 34.918 19.9331 34.918H18.9053C18.876 34.918 18.853 34.8955 18.853 34.8662V6.21777C18.853 6.18848 18.876 6.16504 18.9053 6.16504H19.9331C19.9614 6.16504 19.9844 6.18848 19.9844 6.21777V34.8662Z" fill="white"/>
<path d="M22.2222 34.8652C22.2222 34.8936 22.2012 34.9141 22.1733 34.9141H21.145C21.1172 34.9141 21.0952 34.8936 21.0952 34.8652V6.21289C21.0952 6.18652 21.1172 6.16406 21.145 6.16406H22.1733C22.2012 6.16406 22.2222 6.18652 22.2222 6.21289V34.8652Z" fill="white"/>
<path d="M28.9399 34.8711C28.9399 34.8955 28.9199 34.9141 28.8955 34.9141H27.8579C27.8345 34.9141 27.8149 34.8955 27.8149 34.8711V6.20703C27.8149 6.18359 27.8345 6.16406 27.8579 6.16406H28.8955C28.9199 6.16406 28.9399 6.18359 28.9399 6.20703V34.8711Z" fill="white"/>
<path d="M8.98146 12.7529C7.34816 12.7598 6.02004 11.4063 6.01516 9.73049C6.0093 8.05568 7.32717 6.69338 8.95998 6.68752C10.5933 6.68166 11.9204 8.0342 11.9263 9.70998C11.9321 11.3858 10.6143 12.7471 8.98146 12.7529ZM8.27639 10H8.88332C8.91604 10 8.94631 10.0176 8.9634 10.044L10.0264 11.7949C10.0342 11.8076 10.0454 11.8125 10.0591 11.8135C10.4331 11.8233 10.6612 11.8203 10.7451 11.8076C10.75 11.8076 10.7525 11.8018 10.75 11.7959L9.605 10.0244C9.58107 9.98635 9.59035 9.96389 9.63527 9.95607C10.209 9.86623 10.5401 9.57326 10.6275 9.07814C10.709 8.6133 10.5952 8.03225 10.1294 7.80861C9.87404 7.68654 9.57131 7.62502 9.22023 7.62404C8.68313 7.62307 8.15529 7.62111 7.63918 7.61916C7.59621 7.61818 7.57424 7.64064 7.57424 7.68361L7.57521 11.752C7.57521 11.7949 7.59719 11.8164 7.64016 11.8164L8.14943 11.8154C8.19045 11.8145 8.21242 11.794 8.21242 11.7529V10.0645C8.21242 10.0215 8.23342 10 8.27639 10Z" fill="#EC5224"/>
<path d="M8.21191 10.0645V11.753C8.21191 11.794 8.18994 11.8145 8.14893 11.8155L7.63965 11.8164C7.59668 11.8164 7.57471 11.795 7.57471 11.752L7.57373 7.68362C7.57373 7.64066 7.5957 7.61819 7.63867 7.61917C8.15479 7.62112 8.68262 7.62308 9.21973 7.62405C9.5708 7.62503 9.87354 7.68655 10.1289 7.80862C10.5947 8.03226 10.7085 8.61331 10.627 9.07816C10.5396 9.57327 10.2085 9.86624 9.63477 9.95609C9.58984 9.9639 9.58057 9.98636 9.60449 10.0244L10.7495 11.7959C10.752 11.8018 10.7495 11.8076 10.7446 11.8076C10.6606 11.8203 10.4326 11.8233 10.0586 11.8135C10.0449 11.8125 10.0337 11.8076 10.0259 11.795L8.96289 10.044C8.9458 10.0176 8.91553 10 8.88281 10H8.27588C8.23291 10 8.21191 10.0215 8.21191 10.0645ZM8.21094 8.20023L8.21191 9.42386C8.21191 9.44144 8.22559 9.45413 8.24268 9.45413L9.27783 9.45218C9.66748 9.4512 9.98291 9.19144 9.98193 8.8721V8.74417C9.98193 8.42484 9.66455 8.16702 9.27588 8.168L8.24072 8.16898C8.22363 8.16898 8.21094 8.18362 8.21094 8.20023Z" fill="white"/>
<path d="M89.0265 26.2327C89.0402 26.2835 89.0553 26.2835 89.0675 26.2327C89.4416 24.7268 89.8112 23.3469 90.1784 22.093C90.8122 19.9251 91.4601 17.7483 92.1242 15.5598C92.2135 15.263 92.3004 14.9407 92.3834 14.594C92.3913 14.5598 92.4215 14.5364 92.4562 14.5364C94.3024 14.5354 96.1916 14.5247 98.1232 14.5032C98.7692 14.4954 99.4254 14.4983 100.091 14.5139C100.178 14.5159 100.239 14.6018 100.213 14.6848L93.7282 34.6819C93.6803 34.8303 93.5773 34.9046 93.4215 34.9046H84.5963C84.5802 34.9046 84.5641 34.8938 84.5583 34.8762L77.6925 14.7317C77.6774 14.6868 77.6935 14.6624 77.7394 14.6594C78.8293 14.5803 79.9352 14.5286 81.0255 14.5364C82.3786 14.5471 83.7443 14.5471 85.1212 14.5403C85.2184 14.5393 85.3053 14.5696 85.3854 14.6301C85.4826 14.7044 85.5485 14.803 85.5866 14.9212C86.4406 17.638 87.2262 20.1702 87.9464 22.5208C88.3195 23.7385 88.6793 24.9768 89.0265 26.2327Z" fill="white"/>
<path d="M5.42725 34.8594V27.7861C5.42725 27.7549 5.45312 27.7285 5.48438 27.7285L6.49512 27.7305C6.52734 27.7305 6.55225 27.7549 6.55225 27.7881L6.54443 34.8633C6.54443 34.8945 6.51807 34.9199 6.4873 34.9199L5.48438 34.916C5.45215 34.916 5.42725 34.8916 5.42725 34.8594Z" fill="white"/>
<path d="M8.78271 34.8652C8.78271 34.8945 8.75879 34.9189 8.72852 34.9189H7.71582C7.68652 34.9189 7.66162 34.8945 7.66162 34.8652V27.7822C7.66162 27.7529 7.68652 27.7285 7.71582 27.7285H8.72852C8.75879 27.7285 8.78271 27.7529 8.78271 27.7822V34.8652Z" fill="white"/>
<path d="M11.0239 34.8848C11.0239 34.9033 11.0088 34.918 10.9897 34.918H9.93262C9.91455 34.918 9.8999 34.9033 9.8999 34.8848V27.7656C9.8999 27.7461 9.91455 27.7314 9.93262 27.7314H10.9897C11.0088 27.7314 11.0239 27.7461 11.0239 27.7656V34.8848Z" fill="white"/>
<path d="M13.27 34.8818C13.27 34.9023 13.2544 34.918 13.2344 34.918H12.1792C12.1582 34.918 12.1421 34.9023 12.1421 34.8818V27.7725C12.1421 27.752 12.1582 27.7363 12.1792 27.7363H13.2344C13.2544 27.7363 13.27 27.752 13.27 27.7725V34.8818Z" fill="white"/>
<path d="M15.4966 34.8564C15.4966 34.8877 15.4727 34.9111 15.4419 34.9111H14.4277C14.3979 34.9111 14.3726 34.8877 14.3726 34.8564V27.7881C14.3726 27.7568 14.3979 27.7334 14.4277 27.7334H15.4419C15.4727 27.7334 15.4966 27.7568 15.4966 27.7881V34.8564Z" fill="white"/>
<path d="M17.7339 34.8584C17.7339 34.8926 17.7065 34.9189 17.6729 34.9189H16.6816C16.6489 34.9189 16.6216 34.8926 16.6216 34.8584V27.7891C16.6216 27.7549 16.6489 27.7285 16.6816 27.7285H17.6729C17.7065 27.7285 17.7339 27.7549 17.7339 27.7891V34.8584Z" fill="white"/>
<path d="M77.1366 19.8495C76.8754 19.3153 76.5834 18.8221 76.2606 18.37C74.5658 15.993 71.7655 14.3632 68.8646 14.0956C67.0204 13.9237 65.2367 14.0966 63.5155 14.6102C60.3114 15.5673 57.6747 18.0126 56.6747 21.2714C56.1127 23.1005 55.9984 24.9862 56.3295 26.9305C56.5678 28.326 57.0995 29.6561 57.8544 30.8563C59.4628 33.4139 62.2138 35.2177 65.2445 35.5887C67.2157 35.8319 69.2035 35.6893 71.0228 35.0897C73.6464 34.2284 75.6635 32.6083 77.0736 30.2303C77.6044 29.3368 77.9608 28.3866 78.1444 27.3788C78.6288 24.7196 78.2924 22.2098 77.1366 19.8495ZM67.1708 30.4813C65.2216 30.4813 63.6405 27.9891 63.6405 24.9159C63.6405 21.8427 65.2216 19.3514 67.1708 19.3514C69.1205 19.3514 70.7015 21.8427 70.7015 24.9159C70.7015 27.9891 69.1205 30.4813 67.1708 30.4813Z" fill="white"/>
<path d="M154.498 15.7428C152.806 14.6051 150.723 13.9771 148.706 13.9049C146.694 13.8316 144.778 14.0806 142.937 14.7945C140.812 15.6197 139.112 17.0972 137.919 19.0133C136.422 21.4176 136.142 24.6217 136.775 27.3375C137.055 28.5465 137.599 29.6939 138.26 30.7232C140.262 33.8394 143.748 35.5094 147.438 35.5445C148.254 35.5533 148.931 35.525 149.472 35.4595C153.024 35.0367 156.065 32.9537 157.854 29.817C158.523 28.647 158.854 27.3013 158.974 25.9918C159.347 21.9244 157.938 18.0562 154.498 15.7428ZM147.787 30.481C145.838 30.481 144.257 27.9888 144.257 24.9156C144.257 21.8424 145.838 19.3512 147.787 19.3512C149.738 19.3512 151.319 21.8424 151.319 24.9156C151.319 27.9888 149.738 30.481 147.787 30.481Z" fill="white"/>
<path d="M135.673 19.3516V14.3945H131.945V8.08594H124.202L124.229 13.3848C124.226 13.623 124.221 13.8613 124.214 14.0986C124.211 14.1943 124.204 14.293 124.196 14.3945H121.454V19.3516H124.234C124.238 19.3633 124.24 19.377 124.24 19.3926C124.262 22.6592 124.285 25.9053 124.311 29.1309V29.1553L124.313 29.5684C124.325 30.7969 124.617 32.1738 125.317 33.1689C125.964 34.0889 126.841 34.5459 127.904 34.8311C130.387 35.499 133.151 35.3545 135.634 34.6777C135.66 34.6699 135.673 34.6533 135.673 34.626L135.625 29.0195C135.625 28.9951 135.603 28.9785 135.58 28.9824C134.796 29.1348 134.023 29.1523 133.26 29.0342C132.505 28.9189 131.979 28.1699 131.97 27.4141C131.962 26.7773 131.953 26.1436 131.945 25.5107V19.3516H135.673Z" fill="white"/>
<path d="M93.7012 34.9043L100.337 14.499H92.3257L89.0249 26.2324L85.5054 14.499H77.4937L84.4419 34.9043H93.7012Z" fill="white"/>
<path d="M120.331 32.0825C120.318 31.7787 120.31 31.4643 120.308 31.143C120.297 29.5932 120.307 27.7504 120.338 25.6157C120.352 24.5981 120.331 23.5112 120.271 22.353C120.199 20.9682 120.039 19.685 119.79 18.5053C119.724 18.1908 119.609 17.8901 119.445 17.6039C118.439 15.8471 116.488 14.8344 114.567 14.4291C112.692 14.0326 110.787 13.9184 108.855 14.0873C107.012 14.2485 105.3 14.6791 103.718 15.3783C103.068 15.6664 102.519 16.0444 102.071 16.5151C102.058 16.5278 102.045 16.5375 102.03 16.5463C102.012 16.5571 101.997 16.5698 101.983 16.5854C100.79 17.9604 100.399 19.7748 100.359 21.5815C100.358 21.6108 100.372 21.6254 100.402 21.6254L107.38 21.6244C107.409 21.6244 107.432 21.602 107.431 21.5727C107.416 20.7973 107.656 19.9496 108.305 19.519C109.104 18.9858 110.177 18.7739 111.143 18.9731C111.955 19.1401 112.488 19.6 112.702 20.3891C112.792 20.7192 112.739 21.0473 112.545 21.3754C112.381 21.6498 112.198 21.8256 111.998 21.9018C108.232 23.3285 103.721 22.8168 100.741 25.9887C100.335 26.4194 100.052 26.934 99.8731 27.4789C99.4571 28.7465 99.4342 30.0307 99.8014 31.3325C100.395 33.435 102.418 34.8549 104.519 35.2338C106.046 35.5102 107.67 35.5541 109.144 35.141C110.74 34.6928 111.97 33.8325 112.837 32.5629C112.852 32.5385 112.889 32.5444 112.896 32.5727C113.041 33.1459 113.198 33.6801 113.364 34.1742C113.437 34.392 113.537 34.5961 113.663 34.7875C113.68 34.8149 113.705 34.8285 113.738 34.8276L121.069 34.7914C121.069 34.7914 120.358 34.393 120.331 32.0825ZM112.833 27.4574C112.595 29.2729 111.541 30.392 109.727 30.683C108.901 30.8158 107.894 30.7328 107.233 30.2475C106.786 29.9213 106.496 29.266 106.568 28.7133C106.644 28.1196 106.979 27.7651 107.534 27.5063C108.04 27.2729 108.551 27.0844 109.067 26.9418C110.183 26.6352 111.37 26.4311 112.239 25.9457C112.459 25.8227 112.66 25.6889 112.897 25.5053C112.926 25.4838 112.952 25.5219 112.952 25.559C112.949 26.2416 112.909 26.8744 112.833 27.4574Z" fill="white"/>
</svg>
