<svg width="139" height="42" viewBox="0 0 139 42" fill="none" xmlns="http://www.w3.org/2000/svg">
<path d="M68.4844 26.1953H63.0986V30.0352H68.2847V31.6807H63.0986V35.6201H68.6338V37.2666H61.3042V24.5518H68.4844V26.1953Z" fill="#009F47"/>
<path d="M72.5972 24.5518H74.2427V37.2666H72.5972V24.5518Z" fill="#009F47"/>
<path d="M80.624 33.3271H86.5073C86.5073 30.2354 85.062 28.7393 82.8672 28.7393C80.5742 28.7393 78.978 30.4346 78.978 32.9775C78.978 35.2715 80.4233 37.416 83.0171 37.416C84.4121 37.416 85.3101 37.0664 86.3584 36.418V34.8232C85.3604 35.4697 84.4121 35.8203 83.416 35.8203C81.8213 35.8203 80.873 34.9717 80.624 33.3271ZM82.917 30.1367C84.0654 30.1367 84.812 30.9326 84.8633 32.2305H80.6743C80.873 30.8838 81.6221 30.1367 82.917 30.1367Z" fill="#009F47"/>
<path d="M96.9541 31.082C96.0063 30.4346 95.3594 30.2354 94.6602 30.2354C93.1143 30.2354 92.1172 31.3828 92.1172 33.0781C92.1172 34.8232 93.2134 35.8701 94.9092 35.8701C95.6064 35.8701 96.3052 35.6699 97.1533 35.3223V36.917C96.5552 37.165 95.5073 37.416 94.6602 37.416C92.166 37.416 90.4214 35.6699 90.4214 33.2266C90.4214 30.4854 92.0181 28.7393 94.5103 28.7393C95.5073 28.7393 96.1562 28.9395 96.9541 29.2891V31.082Z" fill="#009F47"/>
<path d="M104.384 28.8906H107.027V30.3857H104.384V34.6719C104.384 35.6201 105.081 35.9199 105.581 35.9199C106.179 35.9199 106.777 35.7217 107.475 35.3223V36.8672C106.877 37.165 105.979 37.416 105.43 37.416C103.635 37.416 102.738 36.2705 102.738 34.7725V30.3857H101.292V30.1855L104.384 27.1445V28.8906Z" fill="#009F47"/>
<path d="M112.986 28.8906V30.833C113.833 29.3379 114.63 28.7393 115.428 28.7393C116.076 28.7393 116.724 29.0381 117.422 29.6875L116.523 31.1328C116.026 30.6357 115.378 30.335 114.98 30.335C113.833 30.335 112.986 31.4824 112.986 32.8779V37.2676H111.341V28.8906H112.986Z" fill="#009F47"/>
<path d="M122.107 28.8906H123.753V37.2666H122.107V28.8906Z" fill="#009F47"/>
<path d="M134.45 31.082C133.503 30.4346 132.853 30.2354 132.155 30.2354C130.61 30.2354 129.613 31.3828 129.613 33.0781C129.613 34.8232 130.709 35.8701 132.405 35.8701C133.102 35.8701 133.8 35.6699 134.648 35.3223V36.917C134.05 37.165 133.003 37.416 132.155 37.416C129.662 37.416 127.917 35.6699 127.917 33.2266C127.917 30.4854 129.513 28.7393 132.007 28.7393C133.003 28.7393 133.651 28.9395 134.45 29.2891V31.082Z" fill="#009F47"/>
<path d="M16.3179 5.88379C13.1699 4.48633 11.2827 3.99512 9.46387 3.99512C7.50488 3.99512 6.24561 4.69434 6.24561 5.74414C6.24561 9.03027 17.2969 8.12207 17.2969 15.6738C17.2969 19.8008 13.7988 22.249 8.97363 22.249C5.12695 22.249 3.23877 21.2705 1.14062 20.1514V15.4648C4.21777 17.5645 6.10693 18.2637 8.55469 18.2637C10.6519 18.2637 11.7705 17.5645 11.7705 16.2363C11.7705 12.7373 0.649902 13.9971 0.649902 6.23438C0.649902 2.45605 3.9375 0.0078125 8.97363 0.0078125C11.4219 0.0078125 13.5898 0.498047 16.3179 1.68848V5.88379Z" fill="#009F47"/>
<path d="M31.8442 21.2705C29.9561 21.9004 28.417 22.249 26.8784 22.249C21.7031 22.249 18.3452 19.2422 18.3452 14.626C18.3452 10.1504 21.8433 7.00195 26.6694 7.00195C28.1372 7.00195 30.0972 7.35352 31.6353 7.98242V11.4092C30.376 10.7793 28.9761 10.3604 27.8574 10.3604C25.061 10.3604 23.312 12.0371 23.312 14.626C23.312 17.2139 25.061 18.9629 27.7183 18.9629C28.8364 18.9629 29.8174 18.6816 31.8442 17.9141V21.2705Z" fill="#009F47"/>
<path d="M43.8037 19.4521V13.5771C43.8037 11.4092 42.8955 10.3604 41.4268 10.3604C40.3755 10.3604 39.4678 11.0596 38.3486 12.5986V21.9707H33.7319V0.287109H38.3486V9.4502H38.4175C39.7476 7.77246 41.2158 7.00195 43.0337 7.00195C45.7627 7.00195 48.4189 8.61133 48.4189 12.5986V18.542C46.8809 18.542 44.9927 19.1025 43.8037 19.4521Z" fill="#009F47"/>
<path d="M50.5874 18.2637V7.2832H55.2031V9.38086C56.6724 7.70215 58.1411 7.00195 60.0303 7.00195C62.3374 7.00195 65.3442 8.33301 65.3442 12.5986V21.9707H60.728V13.0186C60.728 10.9189 59.749 10.0811 58.4204 10.0811C57.3003 10.0811 56.4624 10.71 55.2031 12.5283V18.9629C53.665 18.542 52.0571 18.4023 50.5874 18.2637Z" fill="#009F47"/>
<path d="M74.9277 7.00195C70.3818 7.00195 67.1626 10.2207 67.1626 14.6963C67.1626 19.2422 70.5195 22.249 75.6958 22.249C76.8848 22.249 79.6138 22.249 82.2695 20.292V17.4229C80.1035 18.9629 78.6338 19.5215 76.8149 19.5215C73.9468 19.5215 72.1299 17.9824 71.9888 15.3955H82.4819C82.7607 10.0117 79.1938 7.00195 74.9277 7.00195ZM72.0596 12.9482C72.2686 10.9189 73.4575 9.73047 75.2778 9.73047C77.0269 9.73047 78.2847 10.9902 78.4238 12.9482H72.0596Z" fill="#009F47"/>
<path d="M84.2983 7.2832H88.9141V21.9697H84.2983V7.2832Z" fill="#009F47"/>
<path d="M101.716 0.287109V7.91309C100.525 7.35352 99.2661 7.00195 97.938 7.00195C93.7412 7.00195 90.8042 10.0811 90.8042 14.626C90.8042 19.0322 93.7412 22.249 97.6582 22.249C99.1963 22.249 100.454 21.8301 101.716 20.7812V21.9707H106.332V0.287109H101.716ZM101.716 17.9824C100.806 18.8232 99.9673 19.1719 98.9873 19.1719C96.8193 19.1719 95.4204 17.3545 95.4204 14.6963C95.4204 11.7578 96.8193 10.0811 99.1284 10.0811C99.9673 10.0811 101.085 10.4316 101.716 10.9189V17.9824Z" fill="#009F47"/>
<path d="M116.053 7.00195C111.505 7.00195 108.29 10.2207 108.29 14.6963C108.29 19.2422 111.646 22.249 116.822 22.249C117.942 22.249 120.737 22.249 123.396 20.292V17.4229C121.228 18.9629 119.759 19.5215 117.942 19.5215C115.003 19.5215 113.255 17.9824 113.045 15.3955H123.604C123.815 10.0117 120.318 7.00195 116.053 7.00195ZM113.187 12.9482C113.395 10.9189 114.515 9.73047 116.333 9.73047C118.15 9.73047 119.339 10.9902 119.548 12.9482H113.187Z" fill="#009F47"/>
<path d="M130.529 11.4795H130.599C131.928 8.40137 133.466 7.00195 135.285 7.00195C136.193 7.00195 136.965 7.35352 138.292 8.33301L137.034 12.3896C135.845 11.6182 135.076 11.3389 134.307 11.3389C132.628 11.3389 131.509 12.9482 130.529 15.6045V21.9707H125.913V7.2832H130.529V11.4795Z" fill="#009F47"/>
<path d="M89.124 1.05716C89.5444 2.24564 88.7744 3.85404 87.3765 4.62455C85.9761 5.46341 84.5083 5.18509 84.0884 4.06498C83.6685 2.94681 84.4404 1.33548 85.8384 0.497592C87.2373 -0.341275 88.7041 -0.061978 89.124 1.05716Z" fill="#009F47"/>
<path d="M123.854 25.8986C124.004 26.296 123.705 26.8458 123.205 27.1447C122.706 27.4435 122.208 27.3449 122.058 26.9445C121.909 26.5451 122.159 25.9972 122.657 25.6984C123.156 25.3996 123.654 25.4982 123.854 25.8986Z" fill="#009F47"/>
<path d="M39.5974 24.8616C44.4055 19.8635 51.2527 18.2981 54.8406 21.3733C58.4284 24.4485 57.4333 31.0305 52.6267 36.0256C47.8196 41.0227 40.9714 42.5862 37.3835 39.5129C33.7956 36.4377 34.7903 29.8557 39.5974 24.8616Z" fill="#009F47"/>
<path d="M43.0161 36.7822H38.189L38.9541 33.8291L41.644 33.8555C42.0762 33.8584 42.6313 33.5645 42.7251 33.1426L43.9131 27.9199C44.4014 25.7686 47.0884 24.0684 49.2954 24.0684H54.0684L53.4351 26.7344L50.9292 26.7588C50.3711 26.7656 50.1772 26.8926 50.0591 27.3369L48.5562 33.0117C47.9834 35.1699 45.25 36.7822 43.0161 36.7822Z" fill="#009F47"/>
<path d="M36.8765 28.6299C37.2192 27.9961 37.6162 27.3633 38.0664 26.7441H40.8413L40.229 28.6299H36.8765Z" fill="white"/>
<path d="M35.5278 32.2168C35.6606 31.5947 35.8506 30.9639 36.0938 30.3301H39.9536L39.3408 32.2168H35.5278Z" fill="white"/>
<path d="M55.6328 31.9199C55.3076 32.5557 54.9316 33.1885 54.5005 33.8076H50.7837L51.3955 31.9199H55.6328Z" fill="white"/>
<path d="M56.8794 28.335C56.7632 28.9561 56.5933 29.5879 56.3662 30.2227H51.6714L52.2822 28.335H56.8794Z" fill="white"/>
<path d="M43.0161 36.7822H38.189L38.9541 33.8291L41.644 33.8555C42.0762 33.8584 42.6313 33.5645 42.7251 33.1426L43.9131 27.9199C44.4014 25.7686 47.0884 24.0684 49.2954 24.0684H54.0684L53.4351 26.7344L50.9292 26.7588C50.3711 26.7656 50.1772 26.8926 50.0591 27.3369L48.5562 33.0117C47.9834 35.1699 45.25 36.7822 43.0161 36.7822Z" fill="white"/>
</svg>
