<svg width="143" height="42" viewBox="0 0 143 42" fill="none" xmlns="http://www.w3.org/2000/svg">
<path d="M0.0874023 33.3301V0.0078125H43.6084V41.0869H0.0874023V33.3301Z" fill="#080806"/>
<path d="M1.70947 1.54004V32.377V39.5566H41.9868V1.54004H1.70947Z" fill="#FEFE02"/>
<path d="M38.5939 35.586C33.4977 30.7218 28.4318 25.8839 23.32 21.003C24.2858 20.0216 25.2379 19.0489 26.195 18.0821C29.3698 14.8712 32.547 11.6612 35.7228 8.44933C35.8717 8.29796 36.027 8.14953 36.15 7.97863C36.3849 7.65441 36.4718 7.30577 36.1549 6.98253C35.8287 6.65148 35.486 6.81652 35.2296 7.0587C34.5587 7.69445 33.9137 8.36046 33.2706 9.02648C29.7086 12.7228 26.1466 16.4191 22.6027 20.131C22.4049 20.339 22.2609 20.6925 22.2599 20.9796C22.2379 25.8819 22.2428 30.7862 22.2409 35.6905C22.2409 35.8448 22.2477 35.9991 22.2389 36.1534C22.2037 36.7628 21.8688 37.1573 21.319 37.2443C20.7819 37.3282 20.1876 37.0216 20.007 36.5148C19.9176 36.2677 19.8908 35.9864 19.8898 35.7218C19.8658 29.8331 19.8507 23.9454 19.8307 18.0577C19.819 14.7765 19.8038 11.4943 19.7848 8.213C19.778 6.85558 19.2838 6.36925 17.9279 6.36925C14.1827 6.36827 10.4367 6.36925 6.69202 6.36827C6.44105 6.36827 6.1886 6.37413 5.94007 6.34777C5.26868 6.27452 4.82093 5.75792 4.82972 5.08995C4.83899 4.40538 5.33069 3.86437 6.00208 3.81359C6.19397 3.79894 6.38782 3.8087 6.58069 3.8087C16.9489 3.8087 27.316 3.83995 37.6827 3.78234C39.9157 3.77062 40.193 4.68761 40.1876 6.30285C40.1666 12.6339 40.2096 18.965 40.2218 25.297C40.2296 29.1954 40.2238 33.0939 40.2238 37.1114C39.6608 36.5851 39.1417 36.0997 38.5939 35.586Z" fill="#030301"/>
<path d="M90.7209 29.6871C90.7209 30.6304 90.7199 31.521 90.7209 32.4107C90.7209 33.0083 90.759 33.608 90.717 34.2027C90.6061 35.7828 90.905 37.2798 91.4758 38.7505C91.8137 39.6216 91.5978 39.858 90.653 39.8589C88.8161 39.8599 86.9787 39.8609 85.1418 39.858C84.214 39.857 83.988 39.5767 84.3298 38.7398C84.882 37.3892 85.0588 36.0015 85.0471 34.5445C85.006 29.7456 85.0251 24.9468 85.0378 20.148C85.0397 19.3775 84.902 18.69 84.3317 18.1285C84.2067 18.0044 84.11 17.8462 84.0261 17.689C83.777 17.2242 83.944 16.8667 84.467 16.8628C86.7028 16.8472 88.9401 16.855 91.176 16.8706C91.5187 16.8736 91.8801 16.9888 92.0168 17.3413C92.1408 17.6636 91.882 17.9029 91.6931 18.1294C91.0309 18.9283 90.7018 19.8413 90.7057 20.8755C90.7097 22.1695 90.714 23.4644 90.7219 24.7583C90.7228 24.8921 90.676 25.0601 90.8298 25.1363C90.9709 25.2056 91.0348 25.0679 91.1071 24.9781C92.4611 23.2808 93.8098 21.5796 95.1721 19.8892C95.6179 19.3355 95.7751 18.774 95.5417 18.065C95.2331 17.1246 95.4518 16.8658 96.4367 16.8619C97.9338 16.856 99.4318 16.855 100.929 16.8619C101.155 16.8628 101.467 16.7818 101.546 17.0806C101.618 17.3521 101.3 17.399 101.141 17.5288C100.026 18.4429 99.0759 19.5142 98.133 20.5982C96.5759 22.3872 95.1091 24.2466 93.6379 26.105C93.5427 26.2251 93.362 26.3228 93.4367 26.5025C93.5119 26.6812 93.7067 26.6421 93.863 26.6421C94.402 26.6441 94.9421 26.6558 95.4797 26.6314C95.8019 26.6167 95.947 26.7251 95.9958 27.0503C96.5109 30.4566 98.3957 33.0581 100.906 35.2788C101.413 35.7281 101.957 36.1353 102.498 36.5425C102.773 36.7496 102.751 36.9214 102.494 37.0992C100.952 38.1626 99.4059 39.2222 97.863 40.2857C97.5598 40.4947 97.3928 40.2769 97.2018 40.0982C96.1579 39.1197 95.381 37.9371 94.6291 36.7388C93.2819 34.5943 92.1169 32.3511 91.0871 30.0376C91.0319 29.9136 90.988 29.772 90.7209 29.6871Z" fill="black"/>
<path d="M72.9629 39.8571C70.9859 39.8571 69.0088 39.86 67.0318 39.8561C66.212 39.8542 66.0196 39.6178 66.2256 38.8376C66.3169 38.4938 66.4839 38.1706 66.6045 37.8337C66.8418 37.1735 66.9649 36.4987 66.9629 35.7897C66.9507 30.6305 66.9439 25.4733 66.9688 20.3141C66.9727 19.4186 66.6739 18.737 65.9947 18.1852C65.7129 17.9548 65.4039 17.6794 65.5308 17.2878C65.671 16.8542 66.108 16.8571 66.4908 16.8571C69.9859 16.8542 73.481 16.8503 76.9756 16.861C77.4908 16.863 77.9698 16.8063 78.3877 16.4821C78.7095 16.2331 78.9708 16.3229 79.0918 16.6755C79.5259 17.9352 79.9336 19.2087 80.0479 20.5407C80.1148 21.3249 79.7349 21.5387 79.0586 21.1032C77.65 20.196 76.108 19.6178 74.5049 19.1823C73.3057 18.8571 72.7217 19.3288 72.731 20.5671C72.7408 22.0807 72.7237 23.5954 72.7437 25.1081C72.7598 26.28 73.3589 26.7038 74.5127 26.4225C75.1407 26.2692 75.6417 25.9421 76.0337 25.4323C76.2388 25.1637 76.4517 24.8981 76.6836 24.653C76.856 24.4723 77.0289 24.2048 77.3287 24.3141C77.65 24.4313 77.7427 24.7634 77.7505 25.0534C77.7818 26.0964 78.0709 27.0915 78.252 28.1081C78.3526 28.6794 78.5626 29.2155 78.7208 29.7692C78.8238 30.1286 78.9488 30.5553 78.5699 30.8171C78.171 31.0915 77.9039 30.6969 77.6407 30.4938C76.5767 29.6745 75.4859 28.9089 74.1607 28.569C73.3106 28.3522 72.8726 28.6413 72.733 29.5153C72.4976 30.9792 72.65 32.4557 72.6299 33.9255C72.6197 34.6579 72.5557 35.3942 72.7178 36.1276C72.8238 36.6081 73.106 36.7848 73.5469 36.8317C76.5718 37.1559 78.8228 35.8415 80.5977 33.5202C80.6827 33.4098 80.7549 33.2868 80.8497 33.1872C81.0157 33.0124 81.1968 32.8298 81.4678 32.9069C81.752 32.988 81.8589 33.2282 81.9117 33.4938C82.0396 34.1335 81.9219 34.7731 81.8209 35.3942C81.6426 36.4919 81.337 37.5641 80.8687 38.5856C80.4659 39.4684 79.795 39.8688 78.8345 39.8649C76.878 39.8552 74.9209 39.862 72.9629 39.862V39.8571Z" fill="black"/>
<path d="M119.732 39.849C118.853 39.849 117.975 39.8588 117.097 39.8451C116.392 39.8334 116.222 39.6225 116.468 38.9623C116.942 37.6957 116.401 36.5668 115.999 35.4428C115.526 34.1196 115.845 34.2319 114.304 34.2338C113.047 34.2348 111.789 34.2475 110.532 34.224C110.082 34.2143 109.844 34.3461 109.721 34.8041C109.531 35.5121 109.295 36.2114 109.025 36.894C108.76 37.5658 109.099 38.143 109.241 38.7475C109.459 39.6723 109.337 39.8588 108.401 39.8588C107.522 39.8588 106.644 39.8539 105.766 39.8471C104.698 39.8364 104.431 39.4604 104.939 38.5199C106.032 36.4955 106.739 34.3149 107.565 32.186C108.838 28.9037 110.026 25.5893 111.251 22.2895C111.654 21.2065 111.376 20.5785 110.291 20.1283C110.016 20.0151 109.736 19.9086 109.474 19.7699C109.249 19.6508 108.967 19.5229 108.987 19.2221C109.007 18.9252 109.299 18.8237 109.532 18.7221C110.298 18.3842 111.07 18.0619 111.842 17.7377C112.669 17.391 113.503 17.06 114.325 16.7016C114.77 16.5072 115.05 16.6059 115.203 17.0707C115.589 18.2387 115.954 19.4155 116.373 20.5717C118.187 25.5824 120.046 30.5776 121.987 35.5405C122.364 36.5033 122.736 37.4662 123.233 38.3803C123.708 39.2543 123.364 39.8227 122.366 39.8451C121.488 39.8637 120.61 39.849 119.732 39.849ZM112.952 31.3071C113.29 31.3071 113.549 31.3188 113.807 31.3041C114.584 31.2612 114.85 30.9311 114.627 30.184C114.231 28.8539 113.793 27.5365 113.361 26.2172C113.313 26.0717 113.208 25.9399 113.11 25.8168C112.834 25.4662 112.57 25.5033 112.387 25.892C112.209 26.268 112.068 26.6606 111.926 27.0512C111.548 28.0961 111.151 29.1332 110.815 30.1918C110.601 30.8627 110.841 31.1391 111.546 31.2035C112.041 31.2485 112.53 31.3549 112.952 31.3071Z" fill="black"/>
<path d="M59.4537 27.8973C59.4537 30.2274 59.4767 32.5585 59.4439 34.8876C59.4269 36.1639 59.6446 37.3759 60.1407 38.5468C60.2247 38.746 60.275 38.9647 60.3087 39.1796C60.3771 39.5975 60.1817 39.8495 59.7599 39.8514C57.524 39.8593 55.2867 39.8593 53.0509 39.8446C52.6036 39.8407 52.402 39.579 52.5128 39.1239C52.546 38.9882 52.5567 38.8417 52.6168 38.7206C53.256 37.4061 53.2848 36.0067 53.2789 34.5819C53.2589 29.743 53.2848 24.9032 53.2926 20.0634C53.294 19.2636 53.296 19.2772 52.5367 19.4794C50.776 19.9481 49.7198 21.1913 48.9239 22.7245C48.795 22.9716 48.7076 23.244 48.5528 23.4716C48.2237 23.954 47.8688 23.913 47.63 23.371C47.4117 22.8768 47.4669 22.3368 47.545 21.8387C47.7496 20.5438 47.9098 19.2372 48.3077 17.9803C48.4029 17.6786 48.5348 17.3856 48.6808 17.1044C48.8727 16.7352 49.15 16.6151 49.4967 16.9257C49.7867 17.1864 50.1256 17.2245 50.4986 17.2245C54.4127 17.2157 58.3268 17.2157 62.2408 17.2245C62.6339 17.2255 63.0006 17.1825 63.3087 16.9247C63.6749 16.621 63.9308 16.7733 64.1339 17.1161C64.4508 17.6542 64.6046 18.2538 64.7447 18.8553C65.0147 20.0175 65.2086 21.1932 65.317 22.3817C65.3307 22.5399 65.3326 22.703 65.3097 22.8593C65.254 23.2391 65.1778 23.6835 64.755 23.7636C64.3561 23.8397 64.2179 23.4208 64.0797 23.12C63.4859 21.828 62.7027 20.7059 61.443 19.9589C60.9869 19.6884 60.4996 19.5448 60.0021 19.4022C59.5929 19.285 59.4459 19.4325 59.4518 19.8309C59.461 20.4686 59.4537 21.1053 59.4537 21.743C59.4527 23.7938 59.4527 25.8456 59.4537 27.8973Z" fill="black"/>
<path d="M140.098 27.6637C139.404 27.1823 138.666 26.8034 137.852 26.57C137.741 26.5387 137.587 26.5446 137.562 26.4C137.54 26.2516 137.693 26.2203 137.789 26.1598C138.99 25.4157 139.693 24.3268 140.037 22.9772C140.521 21.0807 139.896 19.3815 138.35 18.1608C137.003 17.0973 135.475 17.1071 133.906 17.2731C132.087 17.4645 130.286 17.8366 128.433 17.5895C127.528 17.4694 126.603 17.4713 125.687 17.4743C124.865 17.4772 124.671 17.7897 125.046 18.5309C125.692 19.8131 125.868 21.1842 125.875 22.5817C125.893 26.485 125.874 30.3873 125.885 34.2897C125.89 35.8239 125.692 37.2887 124.869 38.6412C124.372 39.4547 124.644 39.8405 125.621 39.8453C127.098 39.8532 128.576 39.8473 130.053 39.8473C131.411 39.8483 132.769 39.8317 134.125 39.8512C137.938 39.9039 141.992 36.6813 142.321 32.7399C142.497 30.6315 141.885 28.9049 140.098 27.6637ZM130.988 21.0836C130.996 19.5592 132.204 19.1823 133.296 19.7741C134.446 20.3971 135.068 21.4078 134.969 22.7125C134.864 24.0875 134.29 25.2575 132.964 25.8893C132.231 26.2369 131.584 26.0778 131.261 25.5485L131.259 25.5504C131.259 25.5504 130.989 25.4196 130.988 23.8248C130.988 22.9108 130.984 21.9977 130.988 21.0836ZM135.038 36.1305C134.473 36.9869 133.709 37.4889 132.638 37.4C131.898 37.3385 131.414 36.8942 131.201 36.1842C130.968 35.4049 130.978 34.6149 130.979 33.82C131.025 32.3112 131.104 30.8043 131.103 29.2926C131.102 28.0436 132.004 27.4869 133.124 28.0465C134.851 28.9108 135.863 30.2828 135.972 32.2653C136.05 33.6549 135.815 34.9557 135.038 36.1305Z" fill="black"/>
</svg>
