<svg width="224" height="42" viewBox="0 0 224 42" fill="none" xmlns="http://www.w3.org/2000/svg">
<path d="M14.2371 13.8365L7.81185 29.4019L16.7161 29.5269L23.7489 12.3941C24.1248 12.3521 24.493 12.3121 24.9061 12.3121C38.5033 11.734 49.868 15.9742 50.119 21.7437C50.3651 27.5523 39.4442 32.7779 25.8143 33.3551C12.222 33.9342 0.89388 29.692 0.645833 23.8834C0.402181 19.7652 6.0013 15.8931 14.2371 13.8365ZM25.7733 15.107L15.848 39.0816H22.931L27.3382 29.5269C27.3382 29.5269 30.9588 29.609 34.1771 29.4439C37.3499 29.2789 43.8949 26.8912 44.7201 21.5367C45.5482 16.1842 42.0452 15.5621 38.4549 15.3199C34.8709 15.107 25.7733 15.107 25.7733 15.107ZM31.1239 20.4205L29.5208 24.5045C29.5208 24.5045 31.867 24.5855 33.8021 24.5855C35.6991 24.5855 37.1409 23.2232 37.0169 21.8248C36.931 20.4635 35.618 20.4635 34.5072 20.4635C33.3929 20.4635 31.1239 20.4205 31.1239 20.4205ZM22.1038 4.44197C19.9232 3.28865 17.0433 4.44197 15.638 6.99471C14.2811 9.54744 14.9002 12.6012 17.1229 13.7896C19.264 14.9429 22.1932 13.7896 23.5462 11.2388C24.9061 8.68514 24.2489 5.63924 22.1038 4.44197Z" fill="#023F88"/>
<path d="M62.6855 39.1172C62.6855 39.9424 63.6885 39.9424 63.6885 39.0439V37.3604H65.8018V38.9727C65.8018 40.2998 65.0498 41.0537 63.5098 41.085C61.5757 41.1211 60.5376 40.6201 60.5376 38.7588V34.1064C60.5376 32.2412 61.5757 31.7402 63.5098 31.7764C65.0498 31.8135 65.8018 32.5625 65.8018 33.8896V35.1807H63.6885V33.9248C63.6885 33.0312 62.6855 33.0635 62.6855 33.8535V39.1172ZM178.175 37.2217H180.396V39.0811C180.396 39.582 181.29 39.582 181.29 39.0439L181.325 38.2578C181.325 37.9697 181.039 37.5049 180.5 37.0762C179.464 36.2539 178.785 35.6826 178.534 35.4287C178.283 35.1445 178.175 34.8193 178.175 34.4971V33.46C178.175 32.2773 179.106 31.668 181.006 31.668C182.687 31.668 183.512 32.2051 183.512 33.2803V34.8555H181.29V33.4971C181.29 32.8496 180.469 32.8496 180.5 33.46L180.539 34.0342C180.539 34.3906 180.826 34.7832 181.364 35.2119C182.401 36.0371 183.047 36.5762 183.333 36.8955C183.655 37.3291 183.727 38.0059 183.727 38.6514C183.693 40.1182 182.865 40.9092 180.898 40.9824C179.106 41.0176 178.175 40.1543 178.175 39.0439V37.2217ZM205 37.2217H207.255V39.0811C207.255 39.582 208.149 39.582 208.149 39.0439L208.185 38.2578C208.185 37.9697 207.899 37.5049 207.323 37.0762C206.286 36.2539 205.644 35.6826 205.393 35.4287C205.143 35.1445 205 34.8193 205 34.4971V33.46C205 32.2773 205.963 31.668 207.828 31.668C209.547 31.668 210.369 32.2051 210.369 33.2803V34.8555H208.149V33.4971C208.149 32.8496 207.291 32.8496 207.361 33.46L207.398 34.0342C207.398 34.3906 207.682 34.7832 208.22 35.2119C209.258 36.0371 209.903 36.5762 210.155 36.8955C210.512 37.3291 210.583 38.0059 210.547 38.6514C210.547 40.1182 209.728 40.9092 207.755 40.9824C205.963 41.0176 205 40.1543 205 39.0439V37.2217ZM177.28 31.7402L176.169 35.3555L175.454 37.1846V40.7646H173.271V37.2559L171.549 31.7402H173.698L174.523 34.9629L175.31 31.7402H177.28ZM165.247 37.2217H167.466V39.0811C167.466 39.582 168.4 39.582 168.4 39.0439V38.2578C168.436 37.9697 168.112 37.5049 167.576 37.0762C166.539 36.2539 165.892 35.6826 165.642 35.4287C165.391 35.1445 165.247 34.8193 165.247 34.4971V33.46C165.247 32.2773 166.177 31.668 168.077 31.668C169.76 31.668 170.617 32.2051 170.617 33.2803V34.8555H168.4V33.4971C168.4 32.8496 167.538 32.8496 167.576 33.46L167.646 34.0342C167.646 34.3906 167.899 34.7832 168.47 35.2119C169.474 36.0371 170.152 36.5762 170.406 36.8955C170.763 37.3291 170.798 38.0059 170.798 38.6514C170.763 40.1182 169.975 40.9092 168.003 40.9824C166.215 41.0176 165.247 40.1543 165.247 39.0439V37.2217ZM160.737 33.1719H159.232V40.7646H157.153V33.1719H155.615V31.7402H160.737V33.1719ZM189.6 33.1719H188.133V40.7646H186.019V33.1719H184.513V31.7402H189.6V33.1719ZM128.146 40.9092H127L126.68 40.4082C126.144 40.7998 125.568 41.0176 124.997 41.0176C123.958 41.0176 122.848 40.4443 122.848 39.4414V33.4971C122.848 32.5986 123.742 31.7402 125.568 31.7402C127.29 31.7402 128.146 32.6328 128.146 33.3516V35.0361H125.965V33.6719C125.965 32.9219 124.959 32.959 124.959 33.6367V39.3691C124.959 39.5088 125.354 39.582 125.606 39.582C125.854 39.582 125.965 39.5088 125.965 39.3691V37.793H125.318V36.3936H128.146V40.9092ZM115.542 40.7646H112.676L111.282 33.709L111.244 40.7646H109.347V31.7402H112.462L113.571 37.1475V31.7402H115.542V40.7646ZM154.864 40.7646H152.033L150.672 33.709V40.7646H148.667V31.7402H151.783L152.928 37.1475V31.7402H154.864V40.7646ZM101.898 40.7646H99.9277V34.0693L98.7466 40.7646H96.9575L95.8477 34.0342V40.7646H93.9116V31.7402H97.0986L97.9229 37.2559L98.6738 31.7402H101.898V40.7646ZM142.401 40.7646H140.395V34.0693L139.248 40.7646H137.493L136.419 34.0342L136.383 40.7646H134.452V31.7402H137.637L138.463 37.2559L139.179 31.7402H142.401V40.7646ZM203.923 40.7646H201.919V34.0693L200.735 40.7646H198.947L197.871 34.0342L197.834 40.7646H195.903V31.7402H199.09L199.949 37.2559L200.665 31.7402H203.923V40.7646ZM89.7227 40.7646H85.1025V31.7402H89.6855V33.0635H87.2866V35.1074H89.4727V36.4316H87.2866V39.334H89.7227V40.7646ZM133.914 40.7646H129.292V31.7402H133.878V33.0635H131.478V35.1074H133.697V36.4316H131.478V39.334H133.914V40.7646ZM148.06 40.7646H143.438V31.7402H148.023V33.0635H145.625V35.1074H147.807V36.4316H145.625V39.334H148.06V40.7646ZM195.186 40.7646H190.567V31.7402H195.15V33.0635H192.75V35.1074H194.936V36.4316H192.75V39.334H195.186V40.7646ZM84.3149 40.7646H79.8745V31.7402H82.0605V39.3691H84.3149V40.7646ZM70.0249 37.1846L69.7036 34.3906L69.3467 37.1846H70.0249ZM72.5708 40.7646H70.4575L70.1709 38.5439H69.0249L68.7017 40.7646H66.6978L68.3428 31.7402H71.2085L72.5708 40.7646ZM106.051 36.9307L105.732 34.0693L105.299 36.9307H106.051ZM108.632 40.7646H106.446L106.197 38.5439H105.086L104.762 40.7646H102.759L104.406 31.7402H107.27L108.632 40.7646ZM119.554 37.0029L119.195 34.1064L118.767 37.0029H119.554ZM122.094 40.7646H119.91L119.661 38.5439H118.516L118.229 40.7646H116.223L117.869 31.7402H120.735L122.094 40.7646ZM76.5098 38.9043V37.0762C76.5098 36.8232 76.1519 36.7197 75.4697 36.7197V39.2959C76.1519 39.2959 76.5098 39.1533 76.5098 38.9043ZM76.5098 34.9287V33.46C76.5098 33.1719 76.1519 33.0312 75.4697 33.0312V35.3555C76.1519 35.3555 76.5098 35.2119 76.5098 34.9287ZM73.2866 40.7646V31.7402H76.0786C76.7598 31.7402 77.3335 31.8496 77.8345 32.0967C78.3335 32.3506 78.5859 32.7783 78.5859 33.3154V34.5713C78.5859 35.2119 78.1206 35.6455 77.1885 35.9307C78.1567 36.1104 78.6587 36.5391 78.6587 37.2217V38.9727C78.6587 39.5449 78.4067 40.0156 77.9399 40.2998C77.4756 40.583 76.9375 40.7646 76.2939 40.7646H73.2866Z" fill="#023F88"/>
<path d="M122.131 2.83887C115.542 2.83887 110.171 8.3916 110.171 15.1582C110.171 21.9619 115.542 27.4785 122.131 27.4785C128.72 27.4785 134.091 21.9619 134.091 15.1582C134.091 8.3916 128.72 2.83887 122.131 2.83887ZM122.131 22.4326C118.335 22.4326 115.256 19.1729 115.256 15.1582C115.256 11.1875 118.335 7.89062 122.131 7.89062C125.928 7.89062 129.043 11.1875 129.043 15.1582C129.043 19.1729 125.928 22.4326 122.131 22.4326Z" fill="#023F88"/>
<path d="M94.0908 7.89062V7.87305C95.4438 7.72363 96.4897 6.67578 96.4897 5.38672C96.4897 4.08984 95.4438 3.01074 94.0908 2.86133V2.83887C94.0239 2.83887 93.9526 2.84473 93.8857 2.84863C93.8477 2.84473 93.8066 2.83887 93.7695 2.83887C93.6646 2.83887 93.5596 2.84863 93.4585 2.85742C87.1948 3.20508 82.1655 8.6123 82.1655 15.1582C82.1655 21.7412 87.1919 27.1133 93.4497 27.46C93.5557 27.4707 93.6606 27.4785 93.7695 27.4785C93.8066 27.4785 93.8477 27.4746 93.8877 27.4746C93.9556 27.4746 94.0239 27.4785 94.0908 27.4785V27.46C95.4438 27.3115 96.4897 26.2695 96.4897 24.9736C96.4897 23.6787 95.4438 22.5986 94.0908 22.4492V22.4326C91.1426 22.4326 88.6348 20.459 87.6567 17.7002H94.3438H94.4507C95.5596 17.7002 96.4897 16.5586 96.4897 15.1582C96.4897 13.7988 95.5596 12.6543 94.4507 12.6543H94.3066H87.6519C88.6216 9.89062 91.1367 7.89062 94.0908 7.89062Z" fill="#023F88"/>
<path d="M109.595 22.4541V22.4326C105.764 22.4326 102.686 19.1729 102.686 15.1582C102.686 11.1875 105.764 7.89062 109.595 7.89062V7.86816C110.931 7.70508 111.96 6.66699 111.96 5.38672C111.96 4.09863 110.931 3.02832 109.595 2.86621V2.83887C109.519 2.83887 109.444 2.84473 109.365 2.84863C109.324 2.84473 109.282 2.83887 109.24 2.83887C109.12 2.83887 109.003 2.85352 108.887 2.86621C102.626 3.24512 97.6362 8.63672 97.6362 15.1582C97.6362 21.7129 102.622 27.0713 108.879 27.4561C108.997 27.4707 109.117 27.4785 109.24 27.4785C109.283 27.4785 109.325 27.4746 109.368 27.4746C109.446 27.4746 109.519 27.4785 109.595 27.4785V27.4561C110.931 27.293 111.96 26.2559 111.96 24.9736C111.96 23.6865 110.931 22.6172 109.595 22.4541Z" fill="#023F88"/>
<path d="M191.391 7.89062V7.87305C192.744 7.72363 193.788 6.67578 193.788 5.38672C193.788 4.08984 192.744 3.01074 191.391 2.86133V2.83887C191.321 2.83887 191.25 2.84473 191.183 2.84863C191.145 2.84473 191.107 2.83887 191.067 2.83887C190.964 2.83887 190.861 2.84863 190.759 2.85742C184.463 3.20117 179.464 8.60938 179.464 15.1582C179.464 21.7451 184.46 27.1182 190.753 27.46C190.857 27.4746 190.961 27.4785 191.067 27.4785C191.107 27.4785 191.145 27.4746 191.183 27.4746C191.254 27.4746 191.321 27.4785 191.391 27.4785V27.46C192.744 27.3115 193.788 26.2695 193.788 24.9736C193.788 23.6787 192.744 22.5986 191.391 22.4492V22.4326C187.595 22.4326 184.513 19.1729 184.513 15.1582C184.513 11.1875 187.595 7.89062 191.391 7.89062Z" fill="#023F88"/>
<path d="M144.44 2.84863V2.83887H137.566H137.458C136.878 2.83887 136.364 3.13672 135.996 3.60742C135.642 3.95898 135.417 4.40137 135.417 4.88281V5.02441V11.4717V18.8477V25.3291V25.4746C135.417 26.585 136.563 27.4785 137.923 27.4785C139.282 27.4785 140.431 26.585 140.431 25.4746V25.3291V15.1582V7.89062H144.155C147.951 7.89062 151.067 11.1875 151.067 15.1582C151.067 19.1729 147.951 22.4326 144.155 22.4326V22.4414C144.083 22.4355 144.013 22.4326 143.94 22.4326C142.436 22.4326 141.22 23.5732 141.22 24.9736C141.22 26.3682 142.436 27.4785 143.94 27.4785C144.013 27.4785 144.083 27.4746 144.155 27.4707V27.4785C150.744 27.4785 156.116 21.9619 156.116 15.1582C156.116 8.49121 150.899 3.00586 144.44 2.84863Z" fill="#023F88"/>
<path d="M175.705 2.44629C174.308 2.44629 173.198 3.375 173.198 4.4873V4.63086V17.7002C173.16 20.3906 170.594 22.3711 168.042 22.4326H167.719H167.431C164.9 22.3877 162.272 20.374 162.275 17.7002V4.59668V4.4873C162.275 3.375 161.164 2.44629 159.768 2.44629C158.373 2.44629 157.228 3.375 157.228 4.4873V4.63086V17.7725H157.23C157.273 23.1504 161.98 27.4785 167.719 27.4785C173.494 27.4785 178.199 23.1504 178.244 17.7725H178.247V4.59668H178.212C178.247 4.55859 178.247 4.52344 178.247 4.4873C178.247 3.375 177.101 2.44629 175.705 2.44629Z" fill="#023F88"/>
<path d="M69.6338 2.84863V2.83887H62.7217H62.5776C62.0537 2.83887 61.5757 3.10059 61.2129 3.5166C60.7969 3.88184 60.5376 4.36035 60.5376 4.88281C60.5376 4.91504 60.5396 4.97559 60.5679 5.01562V5.02441H60.5376V11.4717V18.8477V25.3291H60.5728C60.5376 25.3652 60.5376 25.4023 60.5376 25.4746C60.5376 26.585 61.6836 27.4785 63.0796 27.4785C64.4766 27.4785 65.5879 26.585 65.5879 25.4746V25.3291V15.1582V7.89062H69.3467C73.1406 7.89062 76.2227 11.1875 76.2227 15.1582C76.2227 19.1729 73.1406 22.4326 69.3467 22.4326V22.4414C69.2637 22.4355 69.1797 22.4326 69.0957 22.4326C67.5908 22.4326 66.3735 23.5732 66.3735 24.9736C66.3735 26.3682 67.5908 27.4785 69.0957 27.4785C69.1797 27.4785 69.2637 27.4746 69.3467 27.4648V27.4785C75.8999 27.4785 81.2715 21.9619 81.2715 15.1582C81.2715 8.49121 76.0566 3.00586 69.6338 2.84863Z" fill="#023F88"/>
<path d="M211.838 2.91113H211.695H204.861C204.661 2.87012 204.459 2.83887 204.246 2.83887C204.03 2.83887 203.821 2.87012 203.621 2.91113H196.773H196.76C195.65 2.91113 194.72 4.05859 194.72 5.4209C194.72 6.81641 195.65 7.96289 196.76 7.96289H196.785H200.557H201.704V11.4717V18.8477V25.3291V25.4746C201.704 26.584 202.847 27.4785 204.246 27.4785C205.607 27.4785 206.752 26.584 206.752 25.4746V25.3291V15.1582V7.96289H207.934H211.695H211.838C212.95 7.96289 213.843 6.81641 213.843 5.4209C213.843 4.05859 212.95 2.91113 211.838 2.91113Z" fill="#023F88"/>
<path d="M219.794 0.0078125C221.628 0.0078125 223.093 1.50293 223.093 3.34082C223.093 5.20508 221.628 6.68066 219.777 6.68066C217.943 6.68066 216.448 5.20508 216.448 3.34082C216.448 1.50293 217.943 0.0078125 219.777 0.0078125H219.794ZM219.764 0.677734C218.372 0.677734 217.247 1.87207 217.247 3.35352C217.247 4.84863 218.372 6.01758 219.777 6.01758C221.182 6.03027 222.323 4.84863 222.323 3.35352C222.323 1.87207 221.182 0.677734 219.777 0.677734H219.764ZM219.202 5.27734H218.415V1.5791C218.713 1.53418 219.037 1.47656 219.602 1.47656C220.237 1.47656 220.62 1.5791 220.875 1.76953C221.08 1.93164 221.201 2.18457 221.201 2.56836C221.201 3.01074 220.888 3.32227 220.488 3.4248V3.45801C220.813 3.5166 221.02 3.81445 221.08 4.36035C221.156 4.93848 221.228 5.15918 221.288 5.27734H220.475C220.384 5.14648 220.326 4.82227 220.25 4.31445C220.191 3.91699 219.956 3.75 219.556 3.75H219.202V5.27734ZM219.202 3.14551H219.569C220.029 3.14551 220.384 2.99707 220.384 2.61328C220.384 2.30273 220.164 2.06836 219.632 2.06836C219.44 2.06836 219.304 2.06836 219.202 2.08008V3.14551Z" fill="#023F88"/>
</svg>
