<svg width="1400" height="1403" viewBox="0 0 1400 1403" fill="none" xmlns="http://www.w3.org/2000/svg">
<g style="mix-blend-mode:multiply" opacity="0.02">
<path d="M1400 0.50293H1399.36C1399.58 0.950684 1399.79 1.39893 1400 1.84473V0.50293Z" fill="#191970"/>
<path d="M1400.01 108.211C1381.53 72.3047 1363.27 36.4517 1345.22 0.50293H1344.22C1362.6 37.0996 1381.19 73.5986 1400.01 110.153V108.211Z" fill="#191970"/>
<path d="M1400 198.983C1362.53 132.72 1326.24 67.0039 1291.52 0.50293H1290.32C1325.41 67.7407 1362.1 134.171 1400 201.163V198.983Z" fill="#191970"/>
<path d="M1400 273.876C1341.5 179.855 1288 91.981 1238.97 0.50293H1237.57C1287 92.8008 1340.95 181.39 1400 276.268V273.876Z" fill="#191970"/>
<path d="M1400.01 338.539V335.936C1396.61 330.917 1393.24 325.921 1389.87 320.94C1314.12 208.833 1246.56 108.839 1187.78 0.50293H1186.17C1245.12 109.312 1312.92 209.649 1388.96 322.189C1392.62 327.611 1396.31 333.063 1400.01 338.539Z" fill="#191970"/>
<path d="M1343.57 313.446C1361.66 338.271 1380.51 364.136 1400 391.241V388.416C1380.86 361.812 1362.34 336.403 1344.56 311.999C1266.11 204.358 1196.38 108.67 1138.06 0.50293H1136.27C1153.49 32.5269 1171.71 63.4478 1190.86 93.9009C1236.75 166.879 1287.98 237.175 1343.57 313.446Z" fill="#191970"/>
<path d="M1167.84 132.076C1207.77 190.167 1252.95 247.732 1300.79 308.678C1331.96 348.385 1365.07 390.567 1400 437.025V433.963C1365.46 388.051 1332.7 346.325 1301.85 307.019C1254.03 246.098 1208.86 188.555 1168.98 130.514C1138.11 85.606 1112.36 43.2588 1090.02 0.50293H1088.06C1102.32 27.876 1117.95 55.0659 1135.42 82.8486C1145.58 99.0059 1156.36 115.363 1167.84 132.076Z" fill="#191970"/>
<path d="M1260.59 307.357C1303.6 358.259 1350.1 413.291 1400.01 477.79V474.468C1350.52 410.592 1304.39 356.001 1261.7 305.474C1172.51 199.929 1100.4 114.588 1044.12 0.50293H1042.01C1056.69 30.3999 1072.44 58.3159 1089.3 85.1279C1137.31 161.471 1194.24 228.839 1260.59 307.357Z" fill="#191970"/>
<path d="M1222.88 309.041C1276.25 367.706 1335.28 432.607 1400 515.102V511.506C1335.73 429.715 1277.09 365.244 1224.04 306.93C1130.45 204.071 1055.92 122.145 1000.72 0.50293H998.487C1013.77 34.3467 1030.51 65.126 1048.74 94.106C1096.64 170.288 1154.72 234.121 1222.88 309.041Z" fill="#191970"/>
<path d="M1012.24 107.402C1059.71 182.885 1118.39 242.757 1187.61 313.377C1250.54 377.571 1321.03 449.497 1400 549.835V545.959C1321.51 446.419 1251.41 374.9 1188.81 311.033C1093.46 213.756 1018.14 136.923 964.75 11.606C963.189 7.94482 961.655 4.24072 960.136 0.50293H957.78C959.493 4.75 961.234 8.94678 963.004 13.0977C977.77 47.7578 994.192 78.7056 1012.24 107.402Z" fill="#191970"/>
<path d="M978.939 123.57C1025.86 198.182 1084.86 253.981 1154.72 320.058C1226.25 387.707 1307.26 464.327 1400 582.767V578.586C1307.75 461.06 1227.15 384.823 1155.94 317.47C1061.79 228.432 987.426 158.102 935.945 35.23C931.255 24.0449 926.791 12.4688 922.53 0.50293H920.072C924.506 13.0308 929.161 25.1328 934.058 36.8169C947.497 68.8926 962.473 97.3877 978.939 123.57Z" fill="#191970"/>
<path d="M1124.13 328.815C1198.21 393.668 1282.19 467.178 1379.36 588.184C1386.27 596.781 1393.15 605.515 1400 614.374V609.884C1393.66 601.709 1387.29 593.64 1380.91 585.688C1283.59 464.496 1199.53 390.911 1125.36 325.985C1017.49 231.562 937.489 161.515 887.877 0.50293H885.223C902.544 57.1558 923.592 102.632 948.255 141.853C994.435 215.284 1053.3 266.812 1124.13 328.815Z" fill="#191970"/>
<path d="M919.909 161.316C965.862 234.393 1025.14 282.321 1095.76 339.422C1179.98 407.509 1281.86 489.878 1400.01 645.095V640.26C1282.42 486.27 1180.93 404.198 1097 336.345C1049.91 298.269 1009.24 265.39 973.576 226.558C934.532 184.05 905.899 138.711 883.464 83.8706C873.147 58.645 864.001 30.9556 855.956 0.50293H853.291C861.463 31.6279 870.774 59.9106 881.3 85.645C892.871 113.925 905.756 138.809 919.909 161.316Z" fill="#191970"/>
<path d="M893.529 181.938C939.185 254.539 998.6 298.803 1069.56 351.671C1160.15 419.154 1270.69 501.499 1400 674.935V669.751C1271.26 497.703 1161.1 415.622 1070.8 348.345C1024.1 313.557 983.776 283.511 948.496 246.927C909.902 206.911 881.649 162.995 859.583 108.727C846.729 77.1187 835.753 41.2368 826.502 0.50293H823.714C833.078 41.9678 844.215 78.4678 857.282 110.603C868.171 137.381 880.268 160.849 893.529 181.938Z" fill="#191970"/>
<path d="M869.011 203.507C884.597 228.29 902.593 250.573 923.674 271.38C958.854 306.105 998.982 333.572 1045.44 365.376C1120.64 416.849 1214.23 480.911 1320 603.379C1346.95 634.575 1373.59 668.241 1400 704.49V698.971C1374.17 663.66 1348.12 630.797 1321.78 600.296C1215.75 477.538 1122 413.358 1046.67 361.794C1000.31 330.063 960.276 302.658 925.28 268.117C887.011 230.343 859.007 187.686 837.149 133.855C821.892 96.2798 809.307 52.1729 799.147 0.50293H796.228C806.489 52.9619 819.236 97.7158 834.715 135.838C844.739 160.525 856.04 182.879 869.011 203.507Z" fill="#191970"/>
<path d="M846.021 225.402C861.952 250.738 880.433 273.069 902.202 293.503C937.229 326.378 977.135 351.399 1023.34 380.372C1099.84 428.334 1195.05 488.024 1303 610.487C1335.72 647.606 1368.02 688.602 1400.01 733.663V727.75C1368.62 683.737 1336.94 643.614 1304.85 607.209C1196.6 484.41 1101.2 424.598 1024.54 376.531C978.456 347.641 938.656 322.688 903.838 290.008C865.766 254.272 837.882 212.707 816.08 159.205C798.499 116.05 784.445 63.687 773.548 0.50293H770.498C781.488 64.5327 795.698 117.574 813.516 161.297C823.081 184.779 833.801 205.973 846.021 225.402Z" fill="#191970"/>
<path d="M824.434 247.528C870.307 320.474 930.605 354.977 1003.17 396.504C1080.86 440.958 1177.54 496.285 1287.34 618.554C1325.72 661.29 1362.99 708.927 1400 762.625V756.311C1363.62 703.788 1326.98 657.08 1289.27 615.087C1179.11 492.425 1082.21 436.972 1004.34 392.41C958.456 366.156 918.831 343.481 884.083 312.493C846.08 278.603 818.186 238.004 796.296 184.725C776.419 136.344 760.961 75.708 749.385 0.50293H746.196C757.859 76.606 773.48 137.963 793.605 186.944C803.011 209.842 813.298 229.814 824.434 247.528Z" fill="#191970"/>
<path d="M804.249 270.065C850.615 343.797 911.456 375.449 984.859 413.639C1024.43 434.228 1069.28 457.559 1117.35 490.571C1172.51 528.448 1223.42 573.256 1273 627.555C1316.33 674.998 1358.27 729.114 1400.01 791.51V784.785C1358.93 723.705 1317.64 670.581 1275.01 623.889C1163.25 501.514 1064.96 450.38 985.987 409.291C940.231 385.487 900.715 364.928 865.936 335.49C827.878 303.271 799.851 263.521 777.73 210.387C755.539 157.073 738.662 88.1616 726.368 0.50293H723.039C735.416 89.1138 752.459 158.792 774.915 212.736C783.933 234.402 793.714 253.316 804.249 270.065Z" fill="#191970"/>
<path d="M785.273 292.731C832.367 367.618 893.899 396.6 968.329 431.651C1008.41 450.53 1053.84 471.926 1102.49 503.392C1158.3 539.497 1209.8 583.348 1259.94 637.448C1307.79 689.074 1353.95 749.329 1400 820.366V813.214C1354.65 743.648 1309.15 684.446 1262.02 633.594C1211.67 579.27 1159.95 535.24 1103.91 498.985C1055.1 467.406 1009.57 445.968 969.409 427.049C879.923 384.906 809.242 351.617 760.314 236.145C735.744 178.162 717.378 100.981 704.25 0.50293H700.767C713.98 101.995 732.523 179.982 757.378 238.64C766.026 259.048 775.324 276.91 785.273 292.731Z" fill="#191970"/>
<path d="M740.932 264.621C749.211 283.735 758.036 300.527 767.405 315.425C815.471 391.862 877.837 418.325 953.503 450.43C994.07 467.643 1040.05 487.154 1089.19 517.1C1145.56 551.454 1197.54 594.335 1248.12 648.207C1300.07 703.539 1350.04 769.67 1400 849.276V841.662C1350.77 763.694 1301.48 698.709 1250.27 644.158C1199.46 590.043 1147.24 546.959 1090.61 512.451C1041.27 482.381 995.188 462.827 954.53 445.579C864.843 407.523 794.002 377.473 743.983 261.971C717.297 200.356 697.191 115.392 682.841 0.50293H679.188C679.703 4.65088 680.223 8.75977 680.752 12.8276C694.885 121.389 714.572 203.75 740.932 264.621Z" fill="#191970"/>
<path d="M750.537 338.068C799.831 416.456 863.189 440.55 940.301 469.87C981.328 485.473 1027.83 503.154 1077.4 531.623C1134.23 564.254 1186.59 606.18 1237.48 659.789C1293.15 718.432 1346.52 790.165 1400 878.281V870.179C1347.29 783.889 1294.61 713.393 1239.7 655.552C1188.55 601.665 1135.92 559.528 1078.8 526.728C1029.02 498.135 982.398 480.406 941.268 464.769C851.204 430.52 780.066 403.475 728.682 287.838C699.406 221.955 677.495 128.856 661.884 0.50293H658.116C673.83 130.08 695.941 224.077 725.525 290.653C733.414 308.406 741.751 324.096 750.537 338.068Z" fill="#191970"/>
<path d="M734.403 360.268C754.42 392.099 777.836 416.693 806.203 435.996C842.503 460.697 882.421 474.221 928.642 489.883C1046.72 529.89 1195.22 580.177 1371.61 860.669C1381 875.591 1390.46 891.175 1400 907.44V898.812C1211.71 580.144 1053.82 526.64 929.546 484.533C838.934 453.828 767.363 429.578 714.356 313.707C682.326 243.699 658.42 142.5 641.288 0.50293H637.365C654.611 143.805 678.732 245.956 711.095 316.702C718.356 332.573 726.083 347.04 734.403 360.268Z" fill="#191970"/>
<path d="M697.593 342.743C704.385 357.123 711.551 370.322 719.178 382.449C740.312 416.053 764.978 441.414 794.981 460.702C831.83 484.396 873.904 497.017 918.449 510.385C960.342 522.948 1007.82 537.19 1058.05 562.838C1115.53 592.194 1168.36 632.26 1219.55 685.315C1281.56 749.586 1340.62 831.895 1400 936.796V927.659C1341.45 824.993 1283.14 744.13 1221.94 680.698C1170.43 627.312 1117.27 587.005 1059.41 557.459C1008.93 531.677 961.307 517.388 919.288 504.787C874.963 491.49 833.098 478.93 796.649 455.497C756.534 429.697 726.124 392.863 700.95 339.563C672.124 278.525 649.601 193.939 632.087 80.9727C628.165 55.6636 624.482 28.8628 621.026 0.50293H616.929C620.428 29.3086 624.163 56.5176 628.144 82.1997C645.765 195.876 668.482 281.1 697.593 342.743Z" fill="#191970"/>
<path d="M684.969 368.744C691.229 381.55 697.772 393.396 704.664 404.359C727.059 439.966 753.121 466.216 784.938 485.532C822.419 508.296 864.789 519.467 909.645 531.296C951.941 542.449 999.882 555.089 1050.34 579.418C1108.04 607.237 1160.97 646.416 1212.16 699.195C1275.01 764.002 1334.75 848.299 1394.8 956.904C1396.53 960.045 1398.27 963.217 1400 966.402V956.578C1383.15 925.964 1366.22 897.127 1349.2 870.064C1305.06 799.87 1260.28 741.467 1214.62 694.393C1163.09 641.259 1109.8 601.811 1051.69 573.794C1000.95 549.332 952.849 536.646 910.413 525.457C865.792 513.689 823.644 502.576 786.588 480.076C745.735 455.268 714.539 418.819 688.416 365.365C658.425 303.998 634.633 218.455 615.682 103.847C610.381 71.7959 605.441 37.395 600.846 0.50293H596.591C601.234 37.8989 606.231 72.7466 611.6 105.202C630.672 220.547 654.673 306.756 684.969 368.744Z" fill="#191970"/>
<path d="M673.177 394.687C678.819 405.824 684.67 416.219 690.77 425.917C714.583 463.783 742.188 491.052 776.009 510.442C814.202 532.336 856.919 542.156 902.146 552.555C990.735 572.925 1091.15 596.015 1205.73 713.776C1272.17 782.063 1336.63 875.641 1400.01 996.176V985.914C1379.22 946.731 1358.32 910.419 1337.26 876.937C1294.97 809.691 1252.05 753.779 1208.28 708.797C1156.81 655.901 1103.47 617.273 1045.18 590.713C994.235 567.493 947.773 556.813 902.841 546.484C751.769 511.748 643.132 486.764 580.707 0.50293H576.302C582.217 46.6187 588.61 89.0728 595.506 128.123C616.165 245.116 641.572 332.31 673.177 394.687Z" fill="#191970"/>
<path d="M662.164 420.539C667.078 429.878 672.087 438.584 677.197 446.71C737.539 542.662 811.395 557.333 895.867 574.11C985.027 591.819 1086.08 611.895 1200.2 729.04C1241.74 771.69 1282.45 824.677 1322.59 888.506C1348.62 929.907 1374.41 975.854 1400 1026.47V1015.6C1335.83 889.904 1270.42 793.256 1202.84 723.879C1087.82 605.801 986.171 585.612 896.494 567.8C851.103 558.785 808.231 550.269 769.729 529.427C727.119 506.363 694.084 470.556 665.771 416.728C633.088 354.603 606.4 267.127 584.184 149.311C575.694 104.299 567.841 54.8276 560.57 0.50293H555.994C563.326 55.4536 571.257 105.47 579.836 150.956C602.205 269.569 629.135 357.75 662.164 420.539Z" fill="#191970"/>
<path d="M651.886 446.268C655.979 453.753 660.125 460.823 664.327 467.507C727.655 568.213 803.629 581.11 890.737 595.903C980.412 611.126 1082.05 628.386 1195.51 744.95C1265.79 817.138 1333.59 920.523 1400 1057.21V1045.65C1334.5 912.191 1267.58 810.842 1198.25 739.613C1083.8 622.045 981.527 604.68 891.291 589.36C845.441 581.572 802.133 574.22 762.799 554.114C719.181 531.821 685.108 496.266 655.566 442.234C621.373 379.687 593.072 291.255 569.043 171.874C558.725 120.615 549.185 63.6826 540.348 0.50293H535.605C544.519 64.3789 554.148 121.909 564.566 173.68C588.761 293.886 617.324 383.047 651.886 446.268Z" fill="#191970"/>
<path d="M642.295 471.858C645.436 477.382 648.602 482.674 651.794 487.75C718.467 593.776 796.717 604.995 886.668 617.889C976.807 630.813 1078.97 645.46 1191.61 761.48C1263.43 835.454 1332.5 943.66 1400 1088.42V1076.14C1333.44 934.937 1265.28 828.948 1194.43 755.969C1080.75 638.872 977.897 624.127 887.151 611.118C793.965 597.756 713.481 586.206 646.039 467.585C610.234 404.605 580.217 315.218 554.271 194.303C541.961 136.943 530.572 72.6006 519.995 0.50293H515.085C525.753 73.3696 537.245 138.364 549.67 196.283C575.8 318.043 606.098 408.189 642.295 471.858Z" fill="#191970"/>
<path d="M633.346 497.272C635.394 500.732 637.456 504.117 639.538 507.427C670.866 557.246 706.22 589.999 750.092 610.034C791.813 629.088 836.39 634.406 883.581 640.036C974.137 650.838 1076.77 663.08 1188.42 778.604C1261.56 854.294 1331.68 967.296 1400 1120.18V1107.12C1332.65 958.17 1263.48 847.58 1191.34 772.932C1078.57 656.246 975.203 643.915 883.999 633.035C789.381 621.743 707.667 612.001 637.15 492.755C599.639 429.331 567.814 338.991 539.849 216.581C525.382 153.252 511.973 81.562 499.473 0.50293H494.396C506.999 82.4087 520.522 154.811 535.13 218.747C563.291 342.03 595.419 433.137 633.346 497.272Z" fill="#191970"/>
<path d="M624.992 522.486C625.777 523.763 626.564 525.024 627.354 526.282C661.092 579.936 698.803 614.467 745.735 634.754C788.482 653.237 833.614 657.643 881.397 662.303C927.979 666.848 976.148 671.548 1026.92 689.555C1084.52 709.977 1136.51 744.895 1185.88 796.312C1260.16 873.669 1331.09 991.482 1400 1152.56V1138.68C1332.09 981.924 1262.15 866.738 1188.91 790.471C1138.99 738.493 1086.41 703.18 1028.16 682.523C976.951 664.362 928.552 659.644 881.749 655.076C834.266 650.444 789.417 646.066 747.23 627.827C700.152 607.477 662.542 572.508 628.85 517.728C568.439 419.524 519.615 252.268 478.763 0.50293H473.5C488.228 91.48 503.958 171.224 520.912 241.048C551.205 365.818 585.249 457.876 624.992 522.486Z" fill="#191970"/>
<path d="M617.186 547.478C653.072 603.574 692.766 639.124 742.1 659.353C785.915 677.315 831.631 680.888 880.033 684.664C926.929 688.33 975.423 692.116 1026.1 709.361C1083.48 728.885 1135.11 763.3 1183.93 814.559C1243.37 876.972 1299 963.98 1354.01 1080.57C1369.38 1113.16 1384.72 1148.21 1400.01 1185.66V1170.83C1386.17 1137.39 1372.29 1105.9 1358.39 1076.43C1303.04 959.113 1247 871.495 1187.07 808.57C1137.67 756.692 1085.41 721.87 1027.33 702.101C976.189 684.704 927.455 680.897 880.322 677.217C832.23 673.459 786.805 669.912 743.563 652.181C695.21 632.355 656.292 597.494 621.089 542.468C620.474 541.501 619.858 540.535 619.243 539.553C555.099 437.549 502.628 263.303 457.784 0.50293H452.375C497.523 265.579 550.466 441.404 615.317 544.532C615.936 545.515 616.563 546.507 617.186 547.478Z" fill="#191970"/>
<path d="M603.287 562.022C605.467 565.492 607.667 568.896 609.876 572.216C647.362 628.588 688.425 664.047 739.112 683.795C784.036 701.297 830.36 704.118 879.404 707.104C926.6 709.972 975.4 712.943 1025.94 729.51C1083.07 748.241 1134.28 782.204 1182.51 833.347C1241.12 895.506 1295.81 982.798 1349.71 1100.21C1366.53 1136.83 1383.34 1176.71 1400 1219.43V1203.64C1384.83 1165.3 1369.55 1129.33 1354.26 1096.02C1300 977.841 1244.89 889.909 1185.76 827.196C1136.92 775.407 1085.04 741.002 1027.16 722.026C976.134 705.302 927.079 702.316 879.636 699.428C830.909 696.461 784.882 693.666 740.549 676.387C690.865 657.025 650.598 622.255 613.823 566.955C570.704 502.102 532.95 409.004 498.407 282.332C476.458 201.842 455.965 108.538 436.565 0.50293H430.97C450.526 109.65 471.195 203.857 493.35 285.1C526.387 406.252 562.409 497.017 603.287 562.022Z" fill="#191970"/>
<path d="M591.239 578.793C595.125 584.974 599.054 590.942 603.02 596.679C688.788 720.862 781.395 725.098 879.437 729.584C926.913 731.761 976.005 734.007 1026.38 749.985C1083.22 768.018 1133.97 801.594 1181.55 852.641C1239.28 914.58 1292.97 1002.13 1345.69 1120.28C1363.88 1161.05 1382.05 1205.86 1400.01 1254.17V1237.32C1383.59 1193.83 1367.01 1153.27 1350.4 1116.06C1297.32 997.094 1243.19 908.872 1184.91 846.342C1136.69 794.601 1085.23 760.561 1027.6 742.279C976.712 726.137 927.352 723.876 879.616 721.695C830.23 719.433 783.586 717.296 738.125 700.424C687.062 681.466 645.4 646.75 607.004 591.159C561.867 525.815 522.003 431.825 485.117 303.824C460.343 217.852 437.147 117.502 415.064 0.50293H409.294C431.554 118.71 454.949 220.033 479.956 306.808C513.892 424.572 550.397 513.85 591.239 578.793Z" fill="#191970"/>
<path d="M579.066 594.758C584.818 603.902 590.651 612.602 596.56 620.847C686.088 745.745 780.3 748.835 880.042 752.106C976.501 755.272 1076.25 758.542 1180.99 872.423C1237.78 934.18 1290.42 1021.96 1341.9 1140.79C1361.4 1185.79 1380.85 1235.74 1400 1289.94V1271.92C1382.44 1223.04 1364.63 1177.74 1346.79 1136.55C1294.93 1016.85 1241.84 928.353 1184.48 865.985C1136.91 814.27 1085.9 780.529 1028.55 762.838C977.836 747.196 928.188 745.57 880.175 743.993C781.6 740.76 688.49 737.706 600.583 615.064C553.382 549.21 511.336 454.352 472.043 325.063C444.285 233.728 418.219 126.429 393.266 0.50293H387.315C412.471 127.733 438.762 236.082 466.78 328.272C501.47 442.419 538.351 530.012 579.066 594.758Z" fill="#191970"/>
<path d="M566.694 609.855C574.485 622.243 582.4 633.846 590.45 644.677C612.913 674.903 636.056 698.787 661.199 717.69C683.677 734.59 707.287 747.12 733.384 755.993C781.821 772.471 830.065 773.529 881.143 774.645C977.779 776.767 1077.7 778.957 1180.77 892.681C1236.59 954.271 1288.13 1042.27 1338.32 1161.71C1359.07 1211.09 1379.74 1266.45 1400 1326.86V1307.59C1381.37 1253.01 1362.41 1202.73 1343.38 1157.45C1292.8 1037.1 1240.79 948.344 1184.39 886.102C1079.77 770.669 978.839 768.456 881.234 766.315C780.94 764.115 686.209 762.037 594.504 638.639C545.181 572.27 500.91 476.557 459.157 346.039C428.261 249.457 399.161 135.299 371.155 0.50293H365.021C393.262 136.707 422.611 251.986 453.797 349.477C489.079 459.77 526.208 545.478 566.694 609.855Z" fill="#191970"/>
<path d="M554.056 624.07C564.059 639.978 574.246 654.664 584.636 668.165C608.029 698.559 632.039 722.534 658.038 741.472C681.252 758.377 705.549 770.858 732.319 779.622C781.974 795.876 833.159 796.545 882.657 797.196C930.893 797.827 980.772 798.476 1030.48 813.195C1086.25 829.705 1135.43 862.481 1180.84 913.391C1235.65 974.847 1286.04 1063.04 1334.91 1183.03C1356.87 1236.96 1378.71 1298.06 1400 1365.14V1344.46C1380.37 1283.83 1360.31 1228.29 1340.14 1178.76C1290.88 1057.82 1240 968.826 1184.58 906.687C1081.63 791.247 980.509 789.922 882.712 788.642C831.276 787.97 782.691 787.335 733.679 771.291C707.401 762.688 683.563 750.445 660.798 733.865C635.285 715.288 611.706 691.733 588.718 661.858C537.231 594.96 490.691 498.423 446.43 366.72C412.248 265.005 379.961 144.101 348.713 0.50293H342.398C373.903 145.611 406.472 267.719 440.977 370.396C476.679 476.63 513.912 560.23 554.056 624.07Z" fill="#191970"/>
<path d="M541.078 637.346C553.48 657.072 566.136 675.023 579.066 691.266C603.401 721.842 628.292 745.93 655.158 764.921C679.116 781.86 704.11 794.312 731.564 803.003C782.451 819.103 834.331 819.426 884.503 819.739C932.969 820.04 983.082 820.353 1032.53 834.814C1087.9 851.004 1136.51 883.622 1181.13 934.537C1234.9 995.888 1284.13 1084.27 1331.63 1204.73C1354.84 1263.59 1377.37 1329.35 1399.44 1402.82H1400V1382.47C1379.48 1315.49 1358.56 1255.03 1337.04 1200.45C1289.14 1078.99 1239.41 989.775 1185.01 927.706C1139.6 875.898 1090.14 842.701 1033.79 826.226C983.731 811.588 933.3 811.273 884.529 810.968C834.688 810.656 783.147 810.335 732.913 794.443C705.956 785.912 681.426 773.688 657.921 757.075C631.547 738.436 607.097 714.763 583.172 684.708C529.488 617.273 480.638 519.918 433.833 387.091C396.222 280.362 360.599 152.815 325.942 0.50293H319.438C354.386 154.437 390.324 283.254 428.293 391.009C464.226 492.975 501.402 574.256 541.078 637.346Z" fill="#191970"/>
<path d="M415.711 411.286C451.671 508.785 488.625 587.527 527.697 649.658C542.69 673.499 558.001 694.905 573.679 713.973C598.971 744.73 624.75 768.95 652.493 788.019C677.205 805.001 702.899 817.462 731.042 826.114C783.172 842.133 835.752 842.2 886.601 842.27C935.283 842.334 985.625 842.401 1034.8 856.683C1061.19 864.348 1085.22 875.389 1108.27 890.442C1134.12 907.327 1158.1 928.806 1181.59 956.103C1234.3 1017.37 1282.34 1105.92 1328.46 1226.8C1348.63 1279.67 1368.23 1338.15 1387.43 1402.82H1394.31C1374.7 1336.49 1354.67 1276.59 1334.04 1222.53C1287.53 1100.6 1238.98 1011.18 1185.61 949.154C1140.97 897.263 1092.05 864.135 1036.08 847.881C986.272 833.416 935.605 833.347 886.605 833.284C836.091 833.216 783.856 833.148 732.387 817.33C704.743 808.837 679.514 796.602 655.262 779.932C628.019 761.206 602.685 737.4 577.814 707.156C521.903 639.157 470.716 541.016 421.334 407.125C394.514 334.408 367.938 249.87 342.341 155.864C329.121 107.307 315.936 55.3916 302.876 0.50293H296.181C309.491 56.5767 322.938 109.575 336.421 159.097C362.104 253.422 388.781 338.267 415.711 411.286Z" fill="#191970"/>
<path d="M403.198 431.214C438.976 524.063 475.524 600.028 513.842 660.958C531.621 689.237 549.79 714.282 568.428 736.254C677.739 865.136 785.071 864.955 888.868 864.785C940.014 864.698 988.322 864.616 1037.22 878.801C1063.43 886.404 1087.24 897.405 1110 912.439C1135.5 929.285 1159.11 950.757 1182.16 978.072C1233.8 1039.29 1280.64 1127.98 1325.36 1249.22C1342.57 1295.88 1359.33 1346.95 1375.74 1402.82H1382.77C1365.95 1345.31 1348.77 1292.83 1331.12 1244.96C1286 1122.62 1238.64 1033.02 1186.33 971.016C1162.84 943.172 1138.77 921.285 1112.74 904.094C1089.52 888.753 1065.24 877.529 1038.52 869.783C988.976 855.412 938.081 855.499 888.86 855.582C693.383 855.907 491.633 856.232 279.383 0.50293H272.515C288.021 63.1387 303.686 122.118 319.373 176.894C346.608 271.983 374.811 357.545 403.198 431.214Z" fill="#191970"/>
<path d="M390.722 450.768C426.089 538.773 462.045 611.749 499.448 671.223C520.22 704.252 541.44 733.124 563.25 758.091C676.62 887.865 785.716 887.564 891.22 887.273C942.582 887.127 991.095 886.99 1039.7 901.147C1094.53 917.119 1140 948.67 1182.79 1000.44C1233.36 1061.62 1278.99 1150.44 1322.3 1271.98C1336.63 1312.21 1350.62 1355.73 1364.33 1402.82H1371.52C1357.42 1354.13 1343.01 1309.19 1328.24 1267.73C1284.53 1145.05 1238.36 1055.28 1187.11 993.273C1164.04 965.368 1140.34 943.445 1114.63 926.247C1091.67 910.881 1067.6 899.657 1041.04 891.919C991.767 877.567 942.921 877.703 891.207 877.85C786.864 878.136 678.967 878.438 567.432 750.765C507.006 681.592 451.094 581.935 396.504 446.107C366.776 372.137 337.153 286.236 308.458 190.777C290.769 131.937 273.085 68.2949 255.568 0.50293H248.483C266.313 69.6616 284.323 134.544 302.337 194.472C331.132 290.254 360.867 376.488 390.722 450.768Z" fill="#191970"/>
<path d="M378.252 469.931C412.98 552.915 448.132 622.647 484.454 680.408C508.419 718.517 532.896 751.416 558.086 779.455C610.677 837.994 666.962 875.37 730.162 893.72C786.042 909.943 840.711 909.831 893.583 909.725C995.254 909.516 1091.29 909.318 1183.43 1023.17C1232.92 1084.34 1277.35 1173.27 1319.25 1295.06C1330.8 1328.62 1342.1 1364.49 1353.19 1402.82H1360.54C1349.05 1362.91 1337.35 1325.64 1325.37 1290.83C1283.07 1167.87 1238.1 1077.94 1187.9 1015.91C1165.26 987.929 1141.91 965.951 1116.53 948.718C1093.84 933.31 1069.97 922.042 1043.57 914.284C994.567 899.876 945.51 899.977 893.572 900.084C787.527 900.297 677.871 900.527 562.292 771.872C499.596 702.087 441.312 601.713 384.105 465.012C352.917 390.478 321.764 303.968 291.511 207.886C271.417 144.062 251.295 74.6636 231.37 0.50293H224.091C244.361 76.1235 264.842 146.843 285.294 211.814C315.653 308.232 346.928 395.076 378.252 469.931Z" fill="#191970"/>
<path d="M365.749 488.669C399.594 566.468 433.731 632.715 468.788 688.467C496.159 731.993 524.097 769.12 552.879 800.321C607.256 859.271 665.141 896.987 729.847 915.624C786.971 932.081 842.333 932.105 895.87 932.134C997.612 932.188 1093.71 932.232 1184.01 1046.27C1232.45 1107.44 1275.69 1196.47 1316.19 1318.45C1325.03 1345.08 1333.71 1373.18 1342.25 1402.82H1349.77C1340.84 1371.65 1331.75 1342.15 1322.49 1314.25C1281.58 1191.05 1237.79 1100.99 1188.64 1038.91C1096.37 922.376 998.979 922.327 895.872 922.275C842.678 922.25 787.675 922.222 731.233 905.964C667.586 887.632 610.63 850.513 557.11 792.494C492.145 722.071 431.488 620.997 371.673 483.495C339.021 408.436 306.34 321.378 274.533 224.741C251.925 156.049 229.255 80.9648 206.805 0.50293H199.323C222.15 82.5239 245.22 159.005 268.226 228.907C300.145 325.887 332.956 413.285 365.749 488.669Z" fill="#191970"/>
<path d="M353.179 506.961C385.893 579.422 418.79 641.939 452.397 695.379C483.384 744.658 514.982 786.214 547.566 820.671C603.717 880.053 663.194 918.168 729.397 937.192C787.76 953.962 843.803 954.233 897.999 954.495C950.011 954.746 999.138 954.984 1046.89 969.501C1100.43 985.768 1144.15 1017.61 1184.5 1069.71C1231.9 1130.91 1273.96 1220.02 1313.08 1342.13C1319.3 1361.57 1325.44 1381.78 1331.5 1402.82H1339.18C1332.73 1380.29 1326.19 1358.69 1319.56 1337.97C1280.03 1214.59 1237.42 1124.41 1189.29 1062.26C1098.78 945.393 1001.26 944.922 898.025 944.421C844.171 944.159 788.486 943.891 730.811 927.317C665.659 908.593 607.114 871.073 551.82 812.599C519.932 778.872 488.294 737.178 457.769 688.636C457.604 688.373 457.434 688.101 457.269 687.84C424.215 635.176 391.212 572.492 359.173 501.533C325.065 425.995 290.86 338.451 257.509 241.325C232.283 167.87 206.949 87.1938 181.869 0.50293H174.184C199.682 88.8428 225.451 171.006 251.112 245.733C284.584 343.209 318.925 431.097 353.179 506.961Z" fill="#191970"/>
<path d="M340.506 524.797C371.543 591.125 403.406 650.372 435.337 701.144C437.951 705.302 440.564 709.404 443.177 713.443C475.309 763.125 508.588 805.865 542.087 840.479C599.995 900.322 661.048 938.892 728.735 958.401C788.324 975.578 845.043 976.2 899.896 976.803C952.137 977.369 1001.48 977.908 1048.97 992.68C1102.11 1009.21 1145.28 1041.24 1184.84 1093.48C1231.22 1154.73 1272.13 1243.9 1309.9 1366.1C1313.59 1378.03 1317.24 1390.28 1320.87 1402.82H1328.76C1287.18 1257.89 1241.42 1154.11 1189.8 1085.95C1149.24 1032.4 1104.99 999.565 1050.53 982.627C1002.29 967.627 952.583 967.083 899.951 966.507C845.445 965.913 789.084 965.296 730.184 948.32C663.542 929.11 603.415 891.112 546.37 832.169C513.258 797.953 480.343 755.667 448.535 706.492C414.242 653.459 379.931 590.417 346.563 519.106C311.013 443.136 275.3 355.166 240.417 257.631C212.477 179.52 184.375 93.333 156.562 0.50293H148.669C176.94 95.0806 205.518 182.842 233.933 262.282C268.944 360.171 304.8 448.491 340.506 524.797Z" fill="#191970"/>
<path d="M327.69 542.148C357.081 602.841 387.139 657.674 417.272 705.592C422.918 714.569 428.565 723.303 434.211 731.788C467.462 781.748 501.835 824.794 536.373 859.728C596.019 920.046 658.627 959.145 727.783 979.245C788.583 996.92 845.972 997.997 901.472 999.036C953.954 1000.02 1003.53 1000.95 1050.78 1016.05C1103.53 1032.91 1146.18 1065.16 1184.98 1117.57C1231.42 1180.28 1272.78 1273.88 1310.33 1402.82H1318.31C1280 1270.33 1237.72 1174.27 1190.1 1109.96C1150.28 1056.19 1106.53 1023.09 1052.41 1005.79C1004.4 990.454 954.453 989.517 901.572 988.525C846.418 987.492 789.385 986.423 729.275 968.953C661.155 949.15 599.469 910.624 540.687 851.174C506.539 816.637 472.531 774.043 439.611 724.574C404.086 671.199 368.49 607.821 333.811 536.2C296.835 459.841 259.631 371.508 223.234 273.643C192.489 190.988 161.521 99.3789 130.878 0.50293H122.773C153.914 101.227 185.404 194.488 216.667 278.545C253.2 376.764 290.554 465.452 327.69 542.148Z" fill="#191970"/>
<path d="M314.698 558.988C342.159 613.869 370.151 664.018 398.224 708.656C407.147 722.846 416.081 736.484 425.004 749.532C459.356 799.768 494.805 843.119 530.367 878.385C667.7 1014.55 792.523 1018.08 902.65 1021.2C955.394 1022.69 1005.21 1024.09 1052.25 1039.59C1104.66 1056.85 1146.8 1089.38 1184.88 1141.96C1227.36 1200.63 1265.3 1286.37 1299.69 1402.82H1307.91C1272.96 1283.29 1234.41 1195.38 1190.17 1134.28C1151.06 1080.27 1107.78 1046.86 1053.96 1029.13C1006.15 1013.39 955.954 1011.97 902.802 1010.47C847.007 1008.89 789.312 1007.26 728.006 989.196C658.43 968.696 595.204 929.57 534.712 869.591C385.278 721.42 244.426 436.782 104.814 0.50293H96.5054C130.606 107.265 165.102 205.94 199.296 294.498C237.323 392.97 276.151 481.96 314.698 558.988Z" fill="#191970"/>
<path d="M524.003 896.424C665.137 1033.86 791.692 1038.85 903.349 1043.26C1010.29 1047.48 1102.64 1051.12 1184.48 1166.64C1223.56 1221.8 1257.89 1299.31 1289.03 1402.82H1297.43C1265.55 1295.83 1230.27 1215.81 1189.94 1158.88C1151.5 1104.62 1108.66 1070.86 1055.12 1052.64C1007.48 1036.42 957.002 1034.43 903.564 1032.32C847.133 1030.09 788.78 1027.79 726.298 1009.04C655.29 987.729 590.55 947.946 528.381 887.403C479.378 839.687 431.228 778.26 383.627 702.57C279.979 537.75 179.064 305.387 78.3828 0.50293H69.855C171.364 308.629 273.183 543.361 377.915 709.909C425.912 786.229 474.54 848.255 524.003 896.424Z" fill="#191970"/>
<path d="M517.213 913.833C662.06 1052.59 790.322 1059.3 903.484 1065.22C1010.73 1070.83 1103.35 1075.67 1183.74 1191.59C1218.91 1242.31 1249.99 1311.79 1278.15 1402.82H1286.75C1257.84 1308.31 1225.79 1236.29 1189.36 1183.76C1151.56 1129.25 1109.12 1095.09 1055.81 1076.29C1008.3 1059.53 957.53 1056.87 903.775 1054.06C791.669 1048.2 664.606 1041.55 521.628 904.585C359.679 749.441 205.794 453.527 51.5752 0.50293H42.8296C146.67 306.285 250.449 541.191 356.739 710.214C409.504 794.118 462.903 861.806 517.213 913.833Z" fill="#191970"/>
<path d="M509.933 930.582C658.391 1070.73 788.333 1079.4 902.979 1087.05C1010.61 1094.24 1103.56 1100.44 1182.61 1216.81C1213.88 1262.84 1241.71 1324.15 1266.96 1402.82H1275.77C1249.74 1320.68 1220.93 1256.8 1188.4 1208.91C1107.14 1089.28 1012.7 1082.98 903.357 1075.68C789.756 1068.1 660.993 1059.51 514.391 921.11C346.225 762.363 185.877 461.123 24.3975 0.50293H15.4272C121.341 303.367 226.862 538.021 334.507 709.195C392.24 801.007 450.593 874.564 509.933 930.582Z" fill="#191970"/>
<path d="M502.096 946.644C569.875 1009.8 639.818 1052.52 715.926 1077.24C782.468 1098.86 843.108 1103.88 901.75 1108.73C955.803 1113.21 1006.86 1117.43 1053.4 1135.17C1104.88 1154.78 1145.44 1188.81 1181.05 1242.27C1208.38 1283.3 1232.93 1336.33 1255.29 1402.82H1264.34C1241.17 1332.87 1215.61 1277.23 1187.01 1234.31C1106.93 1114.1 1012.07 1106.24 902.229 1097.16C787.149 1087.63 656.716 1076.84 506.599 936.955C467.568 900.584 428.438 856.417 390.291 805.67C349.001 750.75 307.373 686.155 266.555 613.675C222.909 536.161 178.74 447.065 135.279 348.851C90.4194 247.48 44.9282 133.276 0.00537109 9.26172V34.5757C103.561 317.728 206.542 540.453 311.17 706.836C374.054 806.836 437.558 886.502 502.096 946.644Z" fill="#191970"/>
<path d="M245.678 634.929C259.326 658.531 273.056 681.315 286.837 703.229C315.632 749.022 344.631 790.991 373.459 828.561C412.896 879.967 453.331 924.858 493.641 962.001C562.896 1025.81 634.185 1069.46 711.58 1095.45C779.19 1118.16 843.221 1124.59 899.715 1130.25C954.19 1135.72 1005.64 1140.88 1052.19 1159.34C1103.57 1179.72 1143.87 1214.24 1179.01 1267.96C1202.35 1303.65 1223.54 1348.29 1242.97 1402.82H1252.3C1232.01 1344.86 1209.75 1297.6 1185.13 1259.93C1106.11 1139.12 1010.74 1129.55 900.305 1118.46C841.383 1112.55 780.458 1106.44 713.505 1083.95C637.058 1058.28 566.628 1015.15 498.189 952.092C458.269 915.312 418.202 870.825 379.108 819.865C336.776 764.684 294.055 699.941 252.131 627.437C207.282 549.866 161.861 460.842 117.131 362.841C78.3271 277.827 39.0405 183.855 0.00537109 82.7275V107.271C36.7275 201.488 73.6362 289.313 110.124 369.259C155.024 467.629 200.628 557.013 245.678 634.929Z" fill="#191970"/>
<path d="M230.788 648.326C240.875 665.338 250.999 681.922 261.157 698.078C294.535 751.155 328.226 799.496 361.668 842.265C402.008 893.856 443.334 939.061 484.493 976.618C555.165 1041.1 627.75 1085.76 706.389 1113.14C775.035 1137.04 839.721 1144.76 896.794 1151.57C951.737 1158.14 1003.63 1164.33 1050.23 1183.59C1101.6 1204.83 1141.71 1239.87 1176.44 1293.88C1195.69 1323.82 1213.41 1359.96 1229.8 1402.82H1239.45C1222.11 1356.55 1203.28 1317.74 1182.72 1285.78C1146.89 1230.06 1105.55 1193.92 1052.61 1172.04C1005.2 1152.44 952.887 1146.19 897.507 1139.58C837.975 1132.48 776.415 1125.12 708.418 1101.45C630.706 1074.39 558.964 1030.25 489.095 966.501C448.319 929.294 407.362 884.492 367.363 833.333C324.03 777.913 280.269 713.064 237.293 640.586C191.298 563.014 144.684 474.143 98.7476 376.459C66.0405 306.907 32.9873 231.407 0.00537109 150.961V174.845C30.6362 248.849 61.3022 318.537 91.6743 383.128C137.784 481.187 184.589 570.411 230.788 648.326Z" fill="#191970"/>
<path d="M215.442 661.089C221.719 671.425 228.006 681.6 234.312 691.632C272.433 752.245 311.016 807.166 349.256 855.218C390.454 906.983 432.623 952.49 474.593 990.476C546.613 1055.67 620.436 1101.39 700.276 1130.27C769.922 1155.46 835.259 1164.6 892.903 1172.67C948.371 1180.43 1000.76 1187.76 1047.48 1207.9C1098.92 1230.06 1138.89 1265.69 1173.29 1320.01C1173.53 1320.38 1173.76 1320.75 1173.99 1321.12C1188.74 1344.57 1202.54 1371.71 1215.51 1402.82H1225.51C1211.52 1368.41 1196.55 1338.56 1180.45 1312.97C1180.21 1312.59 1179.97 1312.21 1179.73 1311.83C1144.23 1255.77 1103.01 1219.02 1050 1196.18C1002.46 1175.69 949.657 1168.3 893.754 1160.48C836.416 1152.45 771.426 1143.36 702.417 1118.4C623.482 1089.85 550.483 1044.63 479.252 980.151C437.662 942.508 395.857 897.389 354.999 846.048C310.72 790.412 265.974 725.492 222 653.1C174.92 575.587 127.18 486.963 80.1074 389.687C53.5645 334.845 26.7954 276.336 0.00537109 214.653V237.956C24.4082 293.625 48.7852 346.635 72.9702 396.615C120.22 494.262 168.156 583.241 215.442 661.089Z" fill="#191970"/>
<path d="M887.965 1193.51C944.01 1202.58 996.945 1211.15 1043.86 1232.24C1095.45 1255.42 1135.37 1291.67 1169.53 1346.33C1180.08 1363.23 1190.14 1382.04 1199.72 1402.82H1210.19C1199.44 1378.79 1188.1 1357.24 1176.12 1338.07C1175.9 1337.7 1175.67 1337.35 1175.45 1336.99C1140.35 1281.17 1099.35 1244.09 1046.53 1220.35C998.793 1198.9 945.446 1190.26 888.966 1181.12C831.051 1171.74 765.407 1161.11 695.422 1134.77C615.315 1104.61 541.116 1058.24 468.592 993.027C426.235 954.936 383.629 909.501 341.959 857.996C296.791 802.166 251.118 737.241 206.212 664.965C158.116 587.582 109.323 499.287 61.1855 402.528C40.8975 361.744 20.4766 318.951 0.00537109 274.35V297.193C71.8564 452.25 140.628 579.455 206.425 684.087C485.794 1128.34 711.22 1164.89 887.965 1193.51Z" fill="#191970"/>
<path d="M177.108 674.966C179.147 678.207 181.195 681.446 183.234 684.656C229.262 757.112 276.071 822.423 322.36 878.778C365.114 930.834 408.824 976.943 452.272 1015.82C526.764 1082.48 602.879 1130.54 684.965 1162.75C756.491 1190.82 823.116 1203.16 881.897 1214.05C938.583 1224.54 992.125 1234.46 1039.31 1256.58C1091.13 1280.87 1131.08 1317.81 1165.09 1372.84C1170.9 1382.25 1176.56 1392.24 1182.06 1402.82H1193.12C1186.27 1389.13 1179.18 1376.36 1171.83 1364.48C1136.76 1307.69 1095.53 1269.57 1042.13 1244.53C994.129 1222.04 940.177 1212.04 883.06 1201.46C666.056 1161.27 376.167 1107.57 0.00537109 330.592V352.914C11.6074 376.663 23.1802 399.838 34.7124 422.408C81.9756 514.908 129.843 599.802 177.108 674.966Z" fill="#191970"/>
<path d="M146.503 664.436C153.112 674.94 159.709 685.276 166.295 695.427C213.12 767.616 260.717 832.861 307.771 889.355C351.215 941.519 395.613 987.913 439.726 1027.25C515.327 1094.67 592.484 1143.98 675.612 1178.03C748.014 1207.68 815.272 1221.79 874.616 1234.25C932.007 1246.29 986.216 1257.67 1033.76 1280.9C1085.92 1306.4 1126.01 1344.12 1159.94 1399.51C1160.6 1400.59 1161.26 1401.71 1161.93 1402.82H1173.77C1171.48 1398.81 1169.17 1394.88 1166.82 1391.06C1131.79 1333.82 1090.47 1294.96 1036.73 1268.7C988.391 1245.07 933.774 1233.61 875.95 1221.48C816.894 1209.09 749.955 1195.04 678.143 1165.63C595.847 1131.93 519.448 1083.09 444.581 1016.33C400.83 977.317 356.782 931.285 313.659 879.512C266.898 823.361 219.574 758.489 173.004 686.697C123.104 609.777 72.4463 522.399 22.4336 427.005C14.9756 412.776 7.49756 398.299 0.00537109 383.6V405.596C5.05127 415.402 10.0884 425.106 15.1172 434.701C58.7222 517.869 102.826 594.979 146.503 664.436Z" fill="#191970"/>
<path d="M148.752 705.515C196.295 777.369 244.607 842.499 292.352 899.1C336.428 951.349 381.45 998.021 426.169 1037.82C502.791 1106.01 580.919 1156.64 665.023 1192.61C738.254 1223.94 806.142 1239.94 866.04 1254.06C977.416 1280.32 1066.95 1301.44 1138.6 1402.82H1151.53C1118.5 1353.14 1079.62 1317.97 1030.27 1292.82C981.504 1267.98 926.157 1254.93 867.562 1241.12C807.938 1227.06 740.361 1211.12 667.702 1180.04C584.401 1144.42 507.008 1094.26 431.101 1026.71C386.735 987.224 342.053 940.907 298.297 889.029C250.84 832.77 202.799 768.01 155.512 696.539C104.837 619.959 53.3774 533.181 2.56055 438.625C1.70947 437.045 0.858398 435.447 0.00537109 433.861V455.501C38.0112 525.796 76.3545 591.732 114.449 652.313C125.909 670.537 137.353 688.286 148.752 705.515Z" fill="#191970"/>
<path d="M130.568 714.905C178.745 786.355 227.694 851.32 276.054 907.997C320.694 960.306 366.279 1007.24 411.548 1047.5C489.089 1116.47 568.111 1168.46 653.125 1206.46C727.131 1239.54 795.643 1257.55 856.086 1273.44C958.444 1300.35 1042.63 1322.48 1111.13 1402.82H1125.57C1096.65 1366.22 1063.19 1338.38 1022.69 1316.87C973.396 1290.71 917.249 1275.95 857.808 1260.33C797.626 1244.5 729.416 1226.58 655.96 1193.74C571.719 1156.08 493.412 1104.56 416.558 1036.2C371.635 996.255 326.383 949.659 282.059 897.715C233.981 841.373 185.304 776.767 137.381 705.685C91.8843 638.215 45.7563 562.959 0.00537109 481.606V502.954C26.9375 550.419 53.9824 595.757 80.9395 638.628C97.5283 665.008 114.092 690.466 130.568 714.905Z" fill="#191970"/>
<path d="M111.71 723.584C160.436 794.569 209.935 859.316 258.835 916.025C303.964 968.37 350.047 1015.56 395.8 1056.28C474.163 1126.01 553.987 1179.42 639.841 1219.54C714.57 1254.46 783.692 1274.58 844.676 1292.34C936.427 1319.05 1013.77 1341.58 1078.26 1402.82H1094.91C1071.21 1378.09 1044.56 1357.76 1013.89 1340.81C963.988 1313.23 909.592 1297.39 846.604 1279.06C785.875 1261.38 717.042 1241.33 642.839 1206.66C557.731 1166.89 478.59 1113.95 400.895 1044.79C355.478 1004.37 309.722 957.519 264.899 905.536C216.278 849.15 167.048 784.748 118.574 714.132C79.2866 656.891 39.7134 594.413 0.00537109 526.965V548.196C15.3223 573.963 30.6592 599.058 45.9814 623.424C67.9604 658.371 89.9082 691.821 111.71 723.584Z" fill="#191970"/>
<path d="M92.1475 731.556C141.329 801.995 191.291 866.47 240.644 923.182C286.19 975.519 332.698 1022.93 378.871 1064.11C457.943 1134.62 538.485 1189.47 625.1 1231.79C700.489 1268.62 770.212 1290.97 831.727 1310.68C911.005 1336.09 979.704 1358.13 1038.68 1402.82H1058.41C1041.68 1388.62 1023.58 1375.97 1003.83 1364.61C953.207 1335.49 897.905 1317.77 833.873 1297.25C772.603 1277.61 703.156 1255.35 628.27 1218.77C542.371 1176.8 462.484 1122.39 384.052 1052.45C338.208 1011.57 292.021 964.475 246.773 912.483C197.691 856.087 147.996 791.957 99.0625 721.864C66.2124 674.809 33.1636 624.283 0.00537109 570.44V591.344C3.44336 596.879 6.88037 602.388 10.3174 607.848C37.6895 651.38 64.9883 692.65 92.1475 731.556Z" fill="#191970"/>
<path d="M71.8496 738.804C121.389 808.638 171.72 872.777 221.441 929.444C267.327 981.739 314.181 1029.36 360.704 1070.98C440.373 1142.26 521.532 1198.58 608.83 1243.17C684.817 1281.98 755.125 1306.65 817.153 1328.42C882.058 1351.2 939.99 1371.53 991.379 1402.82H1015.11C1007.78 1397.76 1000.23 1392.89 992.406 1388.21C940.971 1357.45 884.692 1337.7 819.529 1314.83C757.732 1293.15 687.688 1268.57 612.179 1230C525.567 1185.76 445.034 1129.87 365.98 1059.15C319.774 1017.81 273.229 970.505 227.636 918.541C178.183 862.178 128.113 798.371 78.8174 728.885C52.6562 692.005 26.3716 653.037 0.00537109 612.064V632.793C24.0322 669.81 47.9922 705.176 71.8496 738.804Z" fill="#191970"/>
<path d="M50.7822 745.333C147.665 879.844 242.676 988.293 341.249 1076.86C421.389 1148.88 503.072 1206.7 590.958 1253.63C667.479 1294.49 738.347 1321.58 800.874 1345.48C850.061 1364.28 895.319 1381.58 936.825 1402.82H964.998C916.549 1374.98 862.84 1354.44 803.489 1331.76C741.183 1307.94 670.562 1280.94 594.499 1240.33C507.26 1193.75 426.18 1136.35 346.624 1064.86C248.653 976.831 154.183 868.99 57.8076 735.182C38.5996 708.516 19.3262 680.761 0.00537109 651.987V672.588C16.9756 697.64 33.9053 721.9 50.7822 745.333Z" fill="#191970"/>
<path d="M28.9253 751.139C126.113 884.167 221.474 992.302 320.452 1081.74C400.943 1154.47 483.037 1213.8 571.421 1263.12C648.393 1306.07 719.803 1335.67 782.806 1361.79C816.292 1375.67 847.993 1388.81 877.965 1402.82H909.377C871.113 1383.37 829.931 1366.29 785.67 1347.94C722.874 1321.91 651.698 1292.4 575.154 1249.69C487.387 1200.72 405.866 1141.8 325.931 1069.57C227.533 980.66 132.698 873.106 36.0044 740.76C24.0283 724.372 12.0273 707.558 0.00537109 690.388V710.852C9.66162 724.526 19.3013 737.963 28.9253 751.139Z" fill="#191970"/>
<path d="M298.271 1085.57C378.979 1158.98 461.368 1219.82 550.15 1271.58C627.497 1316.66 699.416 1348.86 762.867 1377.27C782.26 1385.95 801.063 1394.37 819.294 1402.82H851.906C824.566 1389.53 795.931 1376.71 765.986 1363.3C702.728 1334.98 631.029 1302.88 554.084 1258.02C465.885 1206.61 384.038 1146.17 303.86 1073.25C205.208 983.516 110.191 876.345 13.3872 745.614C8.93018 739.594 4.46826 733.508 0.00537109 727.386V747.735C2.0874 750.571 4.17041 753.408 6.25049 756.218C103.537 887.597 199.056 995.331 298.271 1085.57Z" fill="#191970"/>
<path d="M527.076 1278.94C604.712 1326.19 677.104 1361.07 740.977 1391.84C748.649 1395.54 756.227 1399.19 763.722 1402.82H795.95C779.215 1394.56 762.022 1386.27 744.356 1377.76C551.483 1284.85 305.771 1166.48 0.00537109 763.173V783.389C91.2412 902.808 181.281 1002.76 274.66 1088.35C355.443 1162.39 438.009 1224.74 527.076 1278.94Z" fill="#191970"/>
<path d="M743.072 1402.82C735.714 1399 728.262 1395.15 720.692 1391.24C532.385 1293.97 293.877 1170.77 0.00537109 797.579V817.856C289.371 1182.54 525.122 1306.25 712.017 1402.82H743.072Z" fill="#191970"/>
<path d="M475.288 1290.2C542.437 1334.68 606.073 1370.85 663.716 1402.82H693.417C629.357 1367.44 556.864 1327.35 479.864 1276.34C391.061 1217.5 308.977 1152.58 228.926 1077.86C151.755 1005.83 75.6436 923.891 0.00537109 831.275V851.431C73.6196 941.007 147.127 1019.84 222.981 1090.64C303.472 1165.77 386.003 1231.04 475.288 1290.2Z" fill="#191970"/>
<path d="M618.042 1402.82H646.477C516.894 1326.41 370.735 1237.36 200.91 1077.18C133.204 1013.32 66.3652 942.383 0.00537109 863.865V884.054C64.3643 959.651 129.191 1028.18 194.836 1090.1C355.018 1241.18 494.061 1329.18 618.042 1402.82Z" fill="#191970"/>
<path d="M574.277 1402.82H601.582C475.41 1323.5 333.714 1230.29 171.318 1075.36C113.613 1020.3 56.5903 960.524 0.00537109 895.696V915.911C54.5513 977.963 109.514 1035.37 165.111 1088.41C318.568 1234.81 453.462 1326.25 574.277 1402.82Z" fill="#191970"/>
<path d="M531.789 1402.82H558.113C434.623 1320.31 296.48 1223.39 140.118 1072.37C92.9634 1026.83 46.3052 978.394 0.00537109 926.905V947.169C44.2212 996.006 88.7695 1042.09 133.772 1085.55C281.811 1228.53 413.435 1323.12 531.789 1402.82Z" fill="#191970"/>
<path d="M490.081 1402.82H515.56C394.125 1316.87 258.75 1216.42 107.282 1068.2C71.2266 1032.91 35.4902 996.095 0.00537109 957.679V978.016C33.3564 1013.89 66.9336 1048.37 100.793 1081.5C244.464 1222.1 373.579 1319.79 490.081 1402.82Z" fill="#191970"/>
<path d="M448.741 1402.82H473.483C353.57 1313.19 220.276 1209.18 72.7876 1062.81C48.3726 1038.58 24.1196 1013.73 0.00537109 988.222V1008.66C21.9302 1031.71 43.9712 1054.23 66.1465 1076.23C206.311 1215.34 333.572 1316.22 448.741 1402.82Z" fill="#191970"/>
<path d="M431.533 1402.82C302.324 1301.1 158.814 1183.47 0.00537109 1018.78V1039.38C149.051 1193.09 284.582 1305.63 407.437 1402.82H431.533Z" fill="#191970"/>
<path d="M389.409 1402.82C271.587 1305.31 141.158 1193.95 0.00537109 1049.63V1070.37C131.976 1204.63 254.42 1310.2 365.892 1402.82H389.409Z" fill="#191970"/>
<path d="M346.849 1402.82C240.602 1310.53 124.15 1207.06 0.00537109 1081.17V1102.12C115.378 1218.61 223.979 1315.81 323.853 1402.82H346.849Z" fill="#191970"/>
<path d="M303.625 1402.82C209.569 1317.17 107.481 1222.76 0.00537109 1113.87V1135.09C99.0742 1235.1 193.444 1322.82 281.106 1402.82H303.625Z" fill="#191970"/>
<path d="M259.533 1402.82C176.55 1323.66 90.1582 1240.49 0.00537109 1148.48V1169.98C82.0576 1253.53 160.679 1329.5 237.448 1402.82H259.533Z" fill="#191970"/>
<path d="M214.388 1402.82C145.331 1333.83 73.8765 1262.11 0.00537109 1185.43V1207.36C66.1846 1275.91 130.417 1340.53 192.716 1402.82H214.388Z" fill="#191970"/>
<path d="M168.021 1402.82C112.917 1345.19 56.9932 1286.58 0.00537109 1225.91V1248.32C49.6665 1301.12 98.5186 1352.37 146.729 1402.82H168.021Z" fill="#191970"/>
<path d="M120.256 1402.82C80.4053 1359.17 40.3413 1315.28 0.00537109 1270.86V1293.82C33.2842 1330.45 66.3804 1366.73 99.3252 1402.82H120.256Z" fill="#191970"/>
<path d="M70.9463 1402.82C68.3271 1399.81 65.7075 1396.8 63.0845 1393.8C42.1216 1369.76 21.0942 1345.64 0.00537109 1321.43V1345.05C16.8315 1364.36 33.6133 1383.61 50.3584 1402.82H70.9463Z" fill="#191970"/>
<path d="M19.9404 1402.82C13.3003 1394.84 6.65918 1386.86 0.00537109 1378.86V1402.82H19.9404Z" fill="#191970"/>
</g>
</svg>
