<svg width="173" height="72" viewBox="0 0 173 72" fill="none" xmlns="http://www.w3.org/2000/svg">
<path d="M144.154 58.2114H142.172V51.7868H144.242C144.865 51.7868 145.398 51.9154 145.842 52.1727C146.285 52.4278 146.625 52.7948 146.861 53.2737C147.098 53.7506 147.216 54.3215 147.216 54.9866C147.216 55.6558 147.097 56.232 146.858 56.7151C146.62 57.1961 146.273 57.5662 145.817 57.8256C145.361 58.0828 144.807 58.2114 144.154 58.2114ZM142.95 57.5213H144.104C144.635 57.5213 145.075 57.4188 145.425 57.2139C145.774 57.0089 146.034 56.7172 146.206 56.3386C146.377 55.9601 146.463 55.5094 146.463 54.9866C146.463 54.4679 146.378 54.0214 146.209 53.6471C146.039 53.2706 145.786 52.982 145.45 52.7812C145.113 52.5784 144.694 52.4769 144.192 52.4769H142.95V57.5213ZM148.597 58.2114V53.393H149.338V58.2114H148.597ZM148.974 52.5899C148.829 52.5899 148.705 52.5407 148.6 52.4424C148.498 52.3441 148.447 52.226 148.447 52.088C148.447 51.9499 148.498 51.8318 148.6 51.7335C148.705 51.6352 148.829 51.586 148.974 51.586C149.118 51.586 149.241 51.6352 149.344 51.7335C149.448 51.8318 149.501 51.9499 149.501 52.088C149.501 52.226 149.448 52.3441 149.344 52.4424C149.241 52.5407 149.118 52.5899 148.974 52.5899ZM152.815 60.1187C152.457 60.1187 152.15 60.0727 151.893 59.9807C151.636 59.8908 151.421 59.7716 151.25 59.6231C151.08 59.4767 150.945 59.3198 150.845 59.1525L151.435 58.7384C151.502 58.8263 151.586 58.9267 151.689 59.0396C151.791 59.1546 151.932 59.254 152.109 59.3376C152.289 59.4234 152.524 59.4662 152.815 59.4662C153.204 59.4662 153.525 59.3721 153.778 59.1839C154.031 58.9957 154.158 58.7008 154.158 58.2993V57.3205H154.095C154.041 57.4083 153.963 57.5171 153.863 57.6468C153.765 57.7743 153.622 57.8883 153.436 57.9887C153.252 58.087 153.003 58.1361 152.69 58.1361C152.301 58.1361 151.951 58.0441 151.642 57.8601C151.334 57.676 151.091 57.4083 150.911 57.057C150.733 56.7057 150.644 56.279 150.644 55.7771C150.644 55.2835 150.731 54.8538 150.905 54.4878C151.078 54.1197 151.32 53.8353 151.629 53.6345C151.939 53.4316 152.296 53.3302 152.702 53.3302C153.016 53.3302 153.265 53.3825 153.449 53.4871C153.635 53.5895 153.777 53.7067 153.875 53.8384C153.976 53.9681 154.053 54.0747 154.108 54.1584H154.183V53.393H154.898V58.3495C154.898 58.7635 154.804 59.1002 154.616 59.3596C154.43 59.621 154.179 59.8124 153.863 59.9337C153.549 60.057 153.2 60.1187 152.815 60.1187ZM152.79 57.4711C153.087 57.4711 153.338 57.4031 153.543 57.2672C153.748 57.1312 153.904 56.9357 154.01 56.6806C154.117 56.4254 154.17 56.1201 154.17 55.7645C154.17 55.4174 154.118 55.111 154.013 54.8454C153.909 54.5798 153.754 54.3717 153.549 54.2211C153.344 54.0706 153.091 53.9953 152.79 53.9953C152.476 53.9953 152.215 54.0747 152.006 54.2337C151.799 54.3926 151.643 54.6059 151.538 54.8736C151.436 55.1413 151.385 55.4383 151.385 55.7645C151.385 56.0992 151.437 56.3951 151.541 56.6523C151.648 56.9075 151.805 57.1082 152.012 57.2546C152.221 57.3989 152.48 57.4711 152.79 57.4711ZM156.43 58.2114V53.393H157.17V58.2114H156.43ZM156.806 52.5899C156.662 52.5899 156.538 52.5407 156.433 52.4424C156.331 52.3441 156.279 52.226 156.279 52.088C156.279 51.9499 156.331 51.8318 156.433 51.7335C156.538 51.6352 156.662 51.586 156.806 51.586C156.951 51.586 157.074 51.6352 157.177 51.7335C157.281 51.8318 157.333 51.9499 157.333 52.088C157.333 52.226 157.281 52.3441 157.177 52.4424C157.074 52.5407 156.951 52.5899 156.806 52.5899ZM160.798 53.393V54.0204H158.301V53.393H160.798ZM159.029 52.2385H159.77V56.8311C159.77 57.0403 159.8 57.1971 159.861 57.3017C159.923 57.4042 160.003 57.4732 160.099 57.5087C160.197 57.5422 160.301 57.5589 160.41 57.5589C160.491 57.5589 160.558 57.5547 160.61 57.5464C160.663 57.5359 160.704 57.5276 160.736 57.5213L160.886 58.1863C160.836 58.2052 160.766 58.224 160.676 58.2428C160.586 58.2637 160.472 58.2742 160.334 58.2742C160.125 58.2742 159.92 58.2292 159.719 58.1393C159.521 58.0493 159.355 57.9124 159.224 57.7283C159.094 57.5443 159.029 57.3121 159.029 57.0319V52.2385ZM163.507 58.3244C163.201 58.3244 162.924 58.2668 162.675 58.1518C162.427 58.0347 162.229 57.8664 162.083 57.6468C161.936 57.4251 161.863 57.1574 161.863 56.8437C161.863 56.5676 161.917 56.3439 162.026 56.1724C162.135 55.9988 162.28 55.8628 162.462 55.7645C162.644 55.6663 162.845 55.5931 163.064 55.545C163.286 55.4948 163.509 55.455 163.733 55.4257C164.025 55.3881 164.263 55.3599 164.445 55.341C164.629 55.3201 164.763 55.2856 164.846 55.2375C164.932 55.1894 164.975 55.1058 164.975 54.9866V54.9615C164.975 54.6519 164.89 54.4114 164.721 54.24C164.553 54.0685 164.299 53.9827 163.958 53.9827C163.605 53.9827 163.328 54.0601 163.127 54.2149C162.926 54.3696 162.785 54.5348 162.704 54.7105L162.001 54.4595C162.126 54.1668 162.294 53.9388 162.503 53.7757C162.714 53.6105 162.944 53.4954 163.193 53.4306C163.444 53.3637 163.691 53.3302 163.933 53.3302C164.088 53.3302 164.266 53.349 164.467 53.3867C164.67 53.4222 164.865 53.4965 165.053 53.6094C165.244 53.7223 165.402 53.8928 165.527 54.1207C165.652 54.3487 165.715 54.654 165.715 55.0368V58.2114H164.975V57.5589H164.937C164.887 57.6635 164.803 57.7754 164.686 57.8946C164.569 58.0138 164.413 58.1152 164.219 58.1989C164.024 58.2825 163.787 58.3244 163.507 58.3244ZM163.62 57.6593C163.912 57.6593 164.159 57.6018 164.36 57.4868C164.563 57.3717 164.716 57.2233 164.818 57.0413C164.923 56.8594 164.975 56.668 164.975 56.4672V55.7896C164.944 55.8273 164.874 55.8618 164.768 55.8932C164.663 55.9224 164.542 55.9486 164.404 55.9716C164.268 55.9925 164.135 56.0113 164.006 56.0281C163.878 56.0427 163.774 56.0552 163.695 56.0657C163.503 56.0908 163.323 56.1316 163.155 56.188C162.99 56.2424 162.856 56.325 162.754 56.4359C162.653 56.5446 162.603 56.6931 162.603 56.8813C162.603 57.1386 162.698 57.3331 162.889 57.4648C163.081 57.5945 163.325 57.6593 163.62 57.6593ZM167.984 51.7868V58.2114H167.243V51.7868H167.984Z" fill="#191970"/>
<path d="M78.6914 28.5227C77.5854 27.8618 76.3755 27.3237 75.0645 26.9109C73.7515 26.4978 72.4604 26.1458 71.1904 25.8557C69.8374 25.5247 68.6997 25.1848 67.7778 24.8328C66.8555 24.4817 66.1787 24.0679 65.7485 23.5928C65.3184 23.1177 65.1025 22.5068 65.1025 21.7627C65.1025 20.7297 65.5845 19.9128 66.5474 19.3127C67.5107 18.7139 68.7095 18.4138 70.1455 18.4138C71.6606 18.4138 73.0654 18.7239 74.3564 19.3438C75.6475 19.9639 76.7026 20.9558 77.5234 22.3208L81.2744 19.4058C80.2075 17.5049 78.7114 16.0669 76.7856 15.0947C74.8584 14.1248 72.7275 13.6377 70.3906 13.6377C67.1118 13.6377 64.4766 14.4338 62.4897 16.0259C60.5015 17.6177 59.5078 19.7158 59.5078 22.3208C59.5078 23.8088 59.8047 25.0598 60.3994 26.0728C60.9927 27.0867 61.7715 27.9128 62.7358 28.5537C63.6978 29.1948 64.7744 29.7227 65.9634 30.1348C67.1528 30.5498 68.3208 30.9209 69.4688 31.2517C70.7388 31.5417 71.9067 31.8828 72.9736 32.2747C74.0386 32.6687 74.8994 33.1648 75.5557 33.7627C76.2114 34.3638 76.5396 35.1587 76.5396 36.1509C76.5396 37.3918 76.0176 38.3948 74.9717 39.1587C73.9268 39.9248 72.5015 40.3069 70.6987 40.3069C68.6484 40.3069 66.8955 39.8008 65.4414 38.7869C63.9858 37.7747 62.8677 36.5647 62.0898 35.1587L57.9707 38.7559C58.6675 39.8318 59.5996 40.8757 60.7676 41.8877C61.9365 42.9019 63.3408 43.7278 64.9805 44.3689C66.6187 45.0098 68.5054 45.3298 70.6367 45.3298C73.0137 45.3298 75.0835 44.9158 76.8477 44.0898C78.6084 43.2627 79.9824 42.1157 80.9668 40.6477C81.9507 39.1797 82.4424 37.4749 82.4424 35.5317C82.4424 33.7537 82.0938 32.3057 81.3975 31.1897C80.7007 30.0728 79.7988 29.1848 78.6914 28.5227Z" fill="#191970"/>
<path d="M100.511 13.6377C97.9292 13.6377 95.54 14.0828 93.3472 14.9717C91.1543 15.8608 89.1562 17.2559 87.3521 19.1577L91.103 23.0647C92.4561 21.5767 93.8789 20.5017 95.377 19.8398C96.8721 19.1787 98.4399 18.8477 100.08 18.8477C102.417 18.8477 104.2 19.4277 105.43 20.5837C106.659 21.7417 107.275 23.3958 107.275 25.5459V26.5378H98.1743C96.6572 26.5378 95.2319 26.6729 93.8999 26.9419C92.5679 27.2097 91.3892 27.6758 90.3652 28.3367C89.2583 28.9988 88.356 29.9387 87.6602 31.1587C86.9619 32.3787 86.6143 33.8367 86.6143 35.5317C86.6143 37.4749 87.085 39.1797 88.0293 40.6477C88.9712 42.1157 90.3032 43.2627 92.0249 44.0898C93.7471 44.9158 95.7349 45.3298 97.9902 45.3298C99.957 45.3298 101.73 44.9158 103.308 44.0898C104.886 43.2627 106.208 42.0527 107.275 40.4617C107.311 40.4067 107.34 40.3457 107.376 40.2898V45.3298H113.3V25.5459C113.3 21.7837 112.183 18.8577 109.949 16.7698C107.714 14.6829 104.569 13.6377 100.511 13.6377ZM107.275 31.9958C107.275 33.6089 106.884 35.0447 106.106 36.3057C105.327 37.5679 104.292 38.5598 103.001 39.2837C101.71 40.0068 100.285 40.3677 98.7271 40.3677C96.8833 40.3677 95.4082 39.9338 94.3003 39.0657C93.1938 38.1978 92.6401 37.0408 92.6401 35.5928C92.6401 34.8489 92.7832 34.1968 93.0703 33.6399C93.3569 33.0818 93.7471 32.6167 94.2393 32.2439C94.854 31.7898 95.6021 31.4897 96.4829 31.3438C97.3643 31.1997 98.2139 31.1277 99.0352 31.1277H107.275V31.9958Z" fill="#191970"/>
<path d="M137.578 15.6841C136.676 15.1479 135.785 14.7651 134.904 14.5371C134.021 14.3101 133.09 14.1951 132.105 14.1951C130.711 14.1951 129.297 14.5781 127.863 15.343C126.428 16.1091 125.188 17.1631 124.143 18.5061C123.927 18.7849 123.74 19.0801 123.559 19.3779V13.7241H117.471V45.3301H123.559V31.375C123.559 29.7629 123.609 28.491 123.712 27.561C123.814 26.6311 123.949 25.877 124.113 25.2971C124.48 24.0991 125.023 23.127 125.742 22.3821C126.458 21.6389 127.268 21.1011 128.17 20.77C129.072 20.4399 129.995 20.2739 130.938 20.2739C131.553 20.2739 132.208 20.3569 132.906 20.522C133.602 20.687 134.175 20.894 134.626 21.1421L137.578 15.6841Z" fill="#191970"/>
<path d="M163.074 16.7698C160.838 14.6829 157.693 13.6377 153.636 13.6377C153.616 13.6377 153.596 13.6387 153.577 13.6387L153.538 13.6377C150.955 13.6377 148.566 14.0828 146.374 14.9717C144.181 15.8608 142.182 17.2559 140.378 19.1577L144.129 23.0647C144.146 23.0469 144.162 23.0308 144.178 23.0137L144.228 23.0647C145.581 21.5767 147.003 20.5017 148.501 19.8398C149.984 19.1838 151.541 18.8547 153.167 18.8489C155.474 18.8599 157.238 19.4377 158.456 20.5837C159.687 21.7417 160.302 23.3958 160.302 25.5459V26.5378H151.299H151.201C149.684 26.5378 148.259 26.6729 146.927 26.9419C145.595 27.2097 144.416 27.6758 143.392 28.3367C142.285 28.9988 141.383 29.9387 140.687 31.1587C139.989 32.3787 139.642 33.8367 139.642 35.5317C139.642 37.4749 140.112 39.1797 141.055 40.6477C141.998 42.1157 143.331 43.2627 145.052 44.0898C146.773 44.9158 148.761 45.3298 151.017 45.3298L151.062 45.3289C151.08 45.3289 151.097 45.3298 151.115 45.3298C153.082 45.3298 154.854 44.9158 156.433 44.0898C158.011 43.2627 159.333 42.0527 160.398 40.4617L160.416 40.4348L160.5 41.4128V45.3298H166.425V25.5459C166.425 21.7837 165.308 18.8577 163.074 16.7698ZM160.302 31.1277V31.9958C160.302 33.6089 159.911 35.0447 159.133 36.3057C158.354 37.5679 157.318 38.5598 156.028 39.2837C154.75 39.9988 153.342 40.3589 151.804 40.3667C149.981 40.3589 148.521 39.9268 147.425 39.0657C146.317 38.1978 145.765 37.0408 145.765 35.5928C145.765 34.8489 145.908 34.1968 146.195 33.6399C146.481 33.0818 146.872 32.6167 147.364 32.2439C147.979 31.7898 148.726 31.4897 149.607 31.3438C150.489 31.1997 151.338 31.1277 152.16 31.1277H160.302Z" fill="#191970"/>
<path d="M171.869 13.6372L171.097 15.8401L170.315 13.6372H169.493V16.7927H169.994V14.1436L170.927 16.5645H171.258L172.17 14.1831V16.7927H172.682V13.6372H171.869Z" fill="#191970"/>
<path d="M166.425 14.1038H167.357V16.7927H167.869V14.1038H168.791V13.6372H166.425V14.1038Z" fill="#191970"/>
<path d="M26.0269 46.1443L20.9653 51.2493L0.702148 30.8198L5.76318 25.7056L26.0269 46.1443Z" fill="#F09100"/>
<path d="M41.2197 51.249L20.9653 71.6875L0.702148 51.249L5.76318 46.144H5.77246L20.9653 61.4683L36.1582 46.144L41.2197 51.249Z" fill="#F09100"/>
<path d="M41.2197 20.6001L36.1582 25.7053L20.9653 10.3809L5.76318 25.7053L0.702148 20.6001L20.9565 0.161621L41.2197 20.6001Z" fill="#F09100"/>
<path d="M41.2192 41.0295L36.1577 46.144L15.8945 25.7053L20.9648 20.6001L41.2192 41.0295Z" fill="#F09100"/>
</svg>
