<svg width="173" height="72" viewBox="0 0 173 72" fill="none" xmlns="http://www.w3.org/2000/svg">
<path d="M80.6276 58.1655V51.7411H84.5049V52.4312H81.4056V54.602H84.3041V55.2921H81.4056V57.4754H84.5551V58.1655H80.6276ZM86.7237 55.267V58.1655H85.9834V53.3472H86.6986V54.1H86.7614C86.8743 53.8554 87.0458 53.6588 87.2758 53.5103C87.5059 53.3597 87.8028 53.2844 88.1667 53.2844C88.493 53.2844 88.7784 53.3514 89.0231 53.4852C89.2678 53.617 89.4581 53.8177 89.594 54.0875C89.73 54.3552 89.7979 54.694 89.7979 55.1039V58.1655H89.0576V55.1541C89.0576 54.7755 88.9593 54.4807 88.7627 54.2694C88.5662 54.0561 88.2964 53.9495 87.9534 53.9495C87.7171 53.9495 87.5059 54.0007 87.3197 54.1032C87.1357 54.2057 86.9904 54.3552 86.8837 54.5518C86.7771 54.7483 86.7237 54.9868 86.7237 55.267ZM93.2723 60.0728C92.9147 60.0728 92.6073 60.0268 92.3501 59.9348C92.0928 59.8448 91.8785 59.7256 91.707 59.5772C91.5376 59.4308 91.4027 59.2739 91.3023 59.1066L91.8921 58.6925C91.959 58.7804 92.0437 58.8808 92.1462 58.9937C92.2486 59.1087 92.3888 59.208 92.5665 59.2917C92.7464 59.3774 92.9816 59.4203 93.2723 59.4203C93.6613 59.4203 93.9823 59.3262 94.2354 59.138C94.4884 58.9498 94.6149 58.6549 94.6149 58.2534V57.2746H94.5522C94.4978 57.3625 94.4204 57.4712 94.3201 57.6009C94.2218 57.7284 94.0796 57.8424 93.8934 57.9428C93.7094 58.0411 93.4605 58.0902 93.1468 58.0902C92.7579 58.0902 92.4086 57.9982 92.0991 57.8142C91.7917 57.6302 91.548 57.3625 91.3682 57.0111C91.1904 56.6598 91.1016 56.2332 91.1016 55.7313C91.1016 55.2377 91.1883 54.8079 91.3619 54.442C91.5355 54.0739 91.777 53.7895 92.0866 53.5887C92.3961 53.3859 92.7537 53.2844 93.1594 53.2844C93.4731 53.2844 93.722 53.3367 93.906 53.4413C94.0921 53.5438 94.2343 53.6609 94.3326 53.7926C94.433 53.9223 94.5104 54.0289 94.5647 54.1126H94.64V53.3472H95.3553V58.3036C95.3553 58.7176 95.2612 59.0543 95.0729 59.3137C94.8868 59.5751 94.6359 59.7664 94.3201 59.8877C94.0064 60.0111 93.6571 60.0728 93.2723 60.0728ZM93.2472 57.4252C93.5442 57.4252 93.7951 57.3572 94.0001 57.2213C94.205 57.0854 94.3608 56.8898 94.4675 56.6347C94.5742 56.3796 94.6275 56.0742 94.6275 55.7187C94.6275 55.3716 94.5752 55.0652 94.4706 54.7996C94.3661 54.534 94.2113 54.3259 94.0064 54.1753C93.8014 54.0248 93.5484 53.9495 93.2472 53.9495C92.9335 53.9495 92.6721 54.0289 92.463 54.1879C92.256 54.3468 92.1002 54.5601 91.9956 54.8278C91.8931 55.0955 91.8419 55.3925 91.8419 55.7187C91.8419 56.0533 91.8942 56.3492 91.9987 56.6065C92.1054 56.8616 92.2622 57.0624 92.4693 57.2088C92.6784 57.3531 92.9377 57.4252 93.2472 57.4252ZM96.8871 58.1655V53.3472H97.6274V58.1655H96.8871ZM97.2635 52.5441C97.1192 52.5441 96.9948 52.495 96.8902 52.3967C96.7878 52.2984 96.7365 52.1802 96.7365 52.0422C96.7365 51.9042 96.7878 51.786 96.8902 51.6877C96.9948 51.5894 97.1192 51.5403 97.2635 51.5403C97.4078 51.5403 97.5312 51.5894 97.6337 51.6877C97.7383 51.786 97.7905 51.9042 97.7905 52.0422C97.7905 52.1802 97.7383 52.2984 97.6337 52.3967C97.5312 52.495 97.4078 52.5441 97.2635 52.5441ZM99.9004 55.267V58.1655H99.16V53.3472H99.8753V54.1H99.938C100.051 53.8554 100.222 53.6588 100.452 53.5103C100.682 53.3597 100.979 53.2844 101.343 53.2844C101.67 53.2844 101.955 53.3514 102.2 53.4852C102.444 53.617 102.635 53.8177 102.771 54.0875C102.907 54.3552 102.975 54.694 102.975 55.1039V58.1655H102.234V55.1541C102.234 54.7755 102.136 54.4807 101.939 54.2694C101.743 54.0561 101.473 53.9495 101.13 53.9495C100.894 53.9495 100.682 54.0007 100.496 54.1032C100.312 54.2057 100.167 54.3552 100.06 54.5518C99.9537 54.7483 99.9004 54.9868 99.9004 55.267ZM106.524 58.2659C106.06 58.2659 105.659 58.1634 105.323 57.9585C104.988 57.7515 104.73 57.4629 104.548 57.0927C104.368 56.7204 104.278 56.2875 104.278 55.794C104.278 55.3004 104.368 54.8655 104.548 54.489C104.73 54.1105 104.983 53.8156 105.307 53.6044C105.633 53.3911 106.014 53.2844 106.449 53.2844C106.7 53.2844 106.948 53.3263 107.192 53.4099C107.437 53.4936 107.66 53.6295 107.861 53.8177C108.061 54.0038 108.221 54.2506 108.341 54.558C108.46 54.8655 108.519 55.244 108.519 55.6936V56.0073H104.805V55.3674H107.766C107.766 55.0955 107.712 54.8529 107.603 54.6396C107.497 54.4263 107.344 54.2579 107.145 54.1345C106.949 54.0112 106.717 53.9495 106.449 53.9495C106.154 53.9495 105.899 54.0227 105.684 54.1691C105.47 54.3134 105.306 54.5016 105.191 54.7337C105.076 54.9658 105.019 55.2147 105.019 55.4803V55.9069C105.019 56.2708 105.081 56.5793 105.207 56.8323C105.334 57.0833 105.511 57.2746 105.737 57.4064C105.963 57.536 106.225 57.6009 106.524 57.6009C106.719 57.6009 106.894 57.5737 107.051 57.5193C107.21 57.4629 107.347 57.3792 107.462 57.2684C107.577 57.1554 107.666 57.0153 107.729 56.848L108.444 57.0488C108.369 57.2914 108.242 57.5047 108.064 57.6887C107.887 57.8707 107.667 58.0129 107.406 58.1153C107.144 58.2157 106.85 58.2659 106.524 58.2659ZM111.842 58.2659C111.378 58.2659 110.978 58.1634 110.641 57.9585C110.306 57.7515 110.048 57.4629 109.866 57.0927C109.686 56.7204 109.596 56.2875 109.596 55.794C109.596 55.3004 109.686 54.8655 109.866 54.489C110.048 54.1105 110.301 53.8156 110.625 53.6044C110.951 53.3911 111.332 53.2844 111.767 53.2844C112.018 53.2844 112.266 53.3263 112.511 53.4099C112.755 53.4936 112.978 53.6295 113.179 53.8177C113.379 54.0038 113.539 54.2506 113.659 54.558C113.778 54.8655 113.837 55.244 113.837 55.6936V56.0073H110.123V55.3674H113.085C113.085 55.0955 113.03 54.8529 112.921 54.6396C112.815 54.4263 112.662 54.2579 112.463 54.1345C112.267 54.0112 112.035 53.9495 111.767 53.9495C111.472 53.9495 111.217 54.0227 111.002 54.1691C110.788 54.3134 110.624 54.5016 110.509 54.7337C110.394 54.9658 110.337 55.2147 110.337 55.4803V55.9069C110.337 56.2708 110.399 56.5793 110.525 56.8323C110.652 57.0833 110.829 57.2746 111.055 57.4064C111.281 57.536 111.543 57.6009 111.842 57.6009C112.037 57.6009 112.213 57.5737 112.369 57.5193C112.528 57.4629 112.665 57.3792 112.78 57.2684C112.895 57.1554 112.984 57.0153 113.047 56.848L113.762 57.0488C113.687 57.2914 113.56 57.5047 113.383 57.6887C113.205 57.8707 112.985 58.0129 112.724 58.1153C112.462 58.2157 112.169 58.2659 111.842 58.2659ZM115.14 58.1655V53.3472H115.856V54.0749H115.906C115.994 53.8365 116.153 53.6431 116.383 53.4946C116.613 53.3461 116.872 53.2719 117.161 53.2719C117.215 53.2719 117.283 53.2729 117.364 53.275C117.446 53.2771 117.508 53.2803 117.549 53.2844V54.0373C117.524 54.031 117.467 54.0216 117.377 54.0091C117.289 53.9944 117.196 53.9871 117.098 53.9871C116.864 53.9871 116.654 54.0363 116.47 54.1345C116.288 54.2307 116.144 54.3646 116.037 54.5361C115.933 54.7055 115.881 54.8989 115.881 55.1164V58.1655H115.14ZM118.604 58.1655V53.3472H119.344V58.1655H118.604ZM118.98 52.5441C118.836 52.5441 118.711 52.495 118.607 52.3967C118.504 52.2984 118.453 52.1802 118.453 52.0422C118.453 51.9042 118.504 51.786 118.607 51.6877C118.711 51.5894 118.836 51.5403 118.98 51.5403C119.124 51.5403 119.248 51.5894 119.35 51.6877C119.455 51.786 119.507 51.9042 119.507 52.0422C119.507 52.1802 119.455 52.2984 119.35 52.3967C119.248 52.495 119.124 52.5441 118.98 52.5441ZM121.617 55.267V58.1655H120.877V53.3472H121.592V54.1H121.655C121.768 53.8554 121.939 53.6588 122.169 53.5103C122.399 53.3597 122.696 53.2844 123.06 53.2844C123.386 53.2844 123.672 53.3514 123.916 53.4852C124.161 53.617 124.351 53.8177 124.487 54.0875C124.623 54.3552 124.691 54.694 124.691 55.1039V58.1655H123.951V55.1541C123.951 54.7755 123.853 54.4807 123.656 54.2694C123.459 54.0561 123.19 53.9495 122.847 53.9495C122.61 53.9495 122.399 54.0007 122.213 54.1032C122.029 54.2057 121.884 54.3552 121.777 54.5518C121.67 54.7483 121.617 54.9868 121.617 55.267ZM128.166 60.0728C127.808 60.0728 127.501 60.0268 127.243 59.9348C126.986 59.8448 126.772 59.7256 126.6 59.5772C126.431 59.4308 126.296 59.2739 126.196 59.1066L126.785 58.6925C126.852 58.7804 126.937 58.8808 127.039 58.9937C127.142 59.1087 127.282 59.208 127.46 59.2917C127.64 59.3774 127.875 59.4203 128.166 59.4203C128.555 59.4203 128.876 59.3262 129.129 59.138C129.382 58.9498 129.508 58.6549 129.508 58.2534V57.2746H129.445C129.391 57.3625 129.314 57.4712 129.213 57.6009C129.115 57.7284 128.973 57.8424 128.787 57.9428C128.603 58.0411 128.354 58.0902 128.04 58.0902C127.651 58.0902 127.302 57.9982 126.992 57.8142C126.685 57.6302 126.441 57.3625 126.261 57.0111C126.084 56.6598 125.995 56.2332 125.995 55.7313C125.995 55.2377 126.082 54.8079 126.255 54.442C126.429 54.0739 126.67 53.7895 126.98 53.5887C127.289 53.3859 127.647 53.2844 128.053 53.2844C128.366 53.2844 128.615 53.3367 128.799 53.4413C128.985 53.5438 129.128 53.6609 129.226 53.7926C129.326 53.9223 129.404 54.0289 129.458 54.1126H129.533V53.3472H130.249V58.3036C130.249 58.7176 130.154 59.0543 129.966 59.3137C129.78 59.5751 129.529 59.7664 129.213 59.8877C128.9 60.0111 128.55 60.0728 128.166 60.0728ZM128.14 57.4252C128.437 57.4252 128.688 57.3572 128.893 57.2213C129.098 57.0854 129.254 56.8898 129.361 56.6347C129.467 56.3796 129.521 56.0742 129.521 55.7187C129.521 55.3716 129.468 55.0652 129.364 54.7996C129.259 54.534 129.105 54.3259 128.9 54.1753C128.695 54.0248 128.442 53.9495 128.14 53.9495C127.827 53.9495 127.565 54.0289 127.356 54.1879C127.149 54.3468 126.993 54.5601 126.889 54.8278C126.786 55.0955 126.735 55.3925 126.735 55.7187C126.735 56.0533 126.787 56.3492 126.892 56.6065C126.999 56.8616 127.155 57.0624 127.363 57.2088C127.572 57.3531 127.831 57.4252 128.14 57.4252ZM136.261 58.2534C135.838 58.2534 135.475 58.176 135.169 58.0212C134.864 57.8665 134.629 57.6542 134.463 57.3844C134.298 57.1146 134.216 56.8062 134.216 56.459C134.216 56.1913 134.272 55.954 134.385 55.7469C134.5 55.5378 134.658 55.3444 134.859 55.1666C135.062 54.9868 135.295 54.8069 135.558 54.627L136.487 53.9369C136.669 53.8177 136.814 53.6901 136.923 53.5542C137.034 53.4183 137.089 53.2405 137.089 53.0209C137.089 52.8578 137.017 52.6999 136.873 52.5473C136.73 52.3946 136.543 52.3183 136.311 52.3183C136.148 52.3183 136.004 52.3601 135.878 52.4437C135.755 52.5253 135.658 52.6299 135.586 52.7574C135.517 52.8829 135.483 53.0126 135.483 53.1464C135.483 53.297 135.524 53.4496 135.605 53.6044C135.689 53.7571 135.795 53.9139 135.922 54.0749C136.052 54.2339 136.186 54.397 136.324 54.5643L139.272 58.1655H138.381L135.947 55.2293C135.721 54.9575 135.516 54.7107 135.332 54.489C135.148 54.2673 135.002 54.0488 134.893 53.8334C134.784 53.618 134.73 53.3848 134.73 53.1339C134.73 52.8453 134.794 52.5922 134.921 52.3747C135.051 52.1551 135.232 51.9847 135.464 51.8634C135.698 51.74 135.972 51.6783 136.286 51.6783C136.608 51.6783 136.885 51.7411 137.117 51.8665C137.349 51.9899 137.528 52.1541 137.654 52.359C137.779 52.5619 137.842 52.7825 137.842 53.0209C137.842 53.3284 137.766 53.595 137.613 53.8209C137.46 54.0467 137.252 54.2569 136.989 54.4514L135.709 55.405C135.42 55.6183 135.225 55.8254 135.122 56.0261C135.02 56.2269 134.968 56.3712 134.968 56.459C134.968 56.6598 135.021 56.847 135.125 57.0205C135.23 57.1941 135.377 57.3342 135.568 57.4409C135.758 57.5475 135.981 57.6009 136.236 57.6009C136.478 57.6009 136.715 57.5496 136.945 57.4472C137.175 57.3426 137.383 57.192 137.569 56.9954C137.757 56.7989 137.906 56.5625 138.014 56.2865C138.125 56.0104 138.181 55.6999 138.181 55.3548H138.896C138.896 55.7814 138.847 56.1296 138.749 56.3994C138.65 56.6692 138.539 56.8804 138.416 57.0331C138.293 57.1858 138.193 57.2997 138.118 57.375C138.093 57.4064 138.07 57.4378 138.049 57.4691C138.028 57.5005 138.005 57.5319 137.98 57.5632C137.773 57.7954 137.512 57.9689 137.196 58.084C136.88 58.1969 136.568 58.2534 136.261 58.2534ZM143.03 58.1655V51.7411H146.907V52.4312H143.808V54.602H146.707V55.2921H143.808V57.4754H146.958V58.1655H143.03ZM149.126 55.267V58.1655H148.386V53.3472H149.101V54.1H149.164C149.277 53.8554 149.448 53.6588 149.678 53.5103C149.908 53.3597 150.205 53.2844 150.569 53.2844C150.895 53.2844 151.181 53.3514 151.426 53.4852C151.67 53.617 151.861 53.8177 151.997 54.0875C152.132 54.3552 152.2 54.694 152.2 55.1039V58.1655H151.46V55.1541C151.46 54.7755 151.362 54.4807 151.165 54.2694C150.969 54.0561 150.699 53.9495 150.356 53.9495C150.12 53.9495 149.908 54.0007 149.722 54.1032C149.538 54.2057 149.393 54.3552 149.286 54.5518C149.18 54.7483 149.126 54.9868 149.126 55.267ZM155.75 58.2659C155.286 58.2659 154.885 58.1634 154.549 57.9585C154.214 57.7515 153.956 57.4629 153.774 57.0927C153.594 56.7204 153.504 56.2875 153.504 55.794C153.504 55.3004 153.594 54.8655 153.774 54.489C153.956 54.1105 154.209 53.8156 154.533 53.6044C154.859 53.3911 155.24 53.2844 155.675 53.2844C155.926 53.2844 156.174 53.3263 156.418 53.4099C156.663 53.4936 156.886 53.6295 157.086 53.8177C157.287 54.0038 157.447 54.2506 157.566 54.558C157.686 54.8655 157.745 55.244 157.745 55.6936V56.0073H154.031V55.3674H156.992C156.992 55.0955 156.938 54.8529 156.829 54.6396C156.723 54.4263 156.57 54.2579 156.371 54.1345C156.175 54.0112 155.942 53.9495 155.675 53.9495C155.38 53.9495 155.125 54.0227 154.909 54.1691C154.696 54.3134 154.532 54.5016 154.417 54.7337C154.302 54.9658 154.244 55.2147 154.244 55.4803V55.9069C154.244 56.2708 154.307 56.5793 154.433 56.8323C154.56 57.0833 154.737 57.2746 154.963 57.4064C155.189 57.536 155.451 57.6009 155.75 57.6009C155.945 57.6009 156.12 57.5737 156.277 57.5193C156.436 57.4629 156.573 57.3792 156.688 57.2684C156.803 57.1554 156.892 57.0153 156.955 56.848L157.67 57.0488C157.595 57.2914 157.468 57.5047 157.29 57.6887C157.113 57.8707 156.893 58.0129 156.632 58.1153C156.37 58.2157 156.076 58.2659 155.75 58.2659ZM159.048 58.1655V53.3472H159.763V54.0749H159.813C159.901 53.8365 160.06 53.6431 160.29 53.4946C160.52 53.3461 160.78 53.2719 161.068 53.2719C161.123 53.2719 161.191 53.2729 161.272 53.275C161.354 53.2771 161.415 53.2803 161.457 53.2844V54.0373C161.432 54.031 161.375 54.0216 161.285 54.0091C161.197 53.9944 161.104 53.9871 161.005 53.9871C160.771 53.9871 160.562 54.0363 160.378 54.1345C160.196 54.2307 160.052 54.3646 159.945 54.5361C159.841 54.7055 159.788 54.8989 159.788 55.1164V58.1655H159.048ZM164.31 60.0728C163.952 60.0728 163.645 60.0268 163.387 59.9348C163.13 59.8448 162.916 59.7256 162.744 59.5772C162.575 59.4308 162.44 59.2739 162.34 59.1066L162.929 58.6925C162.996 58.7804 163.081 58.8808 163.184 58.9937C163.286 59.1087 163.426 59.208 163.604 59.2917C163.784 59.3774 164.019 59.4203 164.31 59.4203C164.699 59.4203 165.02 59.3262 165.273 59.138C165.526 58.9498 165.652 58.6549 165.652 58.2534V57.2746H165.59C165.535 57.3625 165.458 57.4712 165.357 57.6009C165.259 57.7284 165.117 57.8424 164.931 57.9428C164.747 58.0411 164.498 58.0902 164.184 58.0902C163.795 58.0902 163.446 57.9982 163.136 57.8142C162.829 57.6302 162.585 57.3625 162.406 57.0111C162.228 56.6598 162.139 56.2332 162.139 55.7313C162.139 55.2377 162.226 54.8079 162.399 54.442C162.573 54.0739 162.814 53.7895 163.124 53.5887C163.433 53.3859 163.791 53.2844 164.197 53.2844C164.51 53.2844 164.759 53.3367 164.943 53.4413C165.129 53.5438 165.272 53.6609 165.37 53.7926C165.47 53.9223 165.548 54.0289 165.602 54.1126H165.677V53.3472H166.393V58.3036C166.393 58.7176 166.299 59.0543 166.11 59.3137C165.924 59.5751 165.673 59.7664 165.357 59.8877C165.044 60.0111 164.694 60.0728 164.31 60.0728ZM164.285 57.4252C164.582 57.4252 164.833 57.3572 165.037 57.2213C165.242 57.0854 165.398 56.8898 165.505 56.6347C165.612 56.3796 165.665 56.0742 165.665 55.7187C165.665 55.3716 165.613 55.0652 165.508 54.7996C165.403 54.534 165.249 54.3259 165.044 54.1753C164.839 54.0248 164.586 53.9495 164.285 53.9495C163.971 53.9495 163.709 54.0289 163.5 54.1879C163.293 54.3468 163.138 54.5601 163.033 54.8278C162.93 55.0955 162.879 55.3925 162.879 55.7187C162.879 56.0533 162.932 56.3492 163.036 56.6065C163.143 56.8616 163.3 57.0624 163.507 57.2088C163.716 57.3531 163.975 57.4252 164.285 57.4252ZM168.401 59.9724C168.276 59.9724 168.164 59.962 168.066 59.941C167.967 59.9222 167.899 59.9034 167.862 59.8846L168.05 59.2321C168.23 59.2781 168.389 59.2948 168.527 59.2823C168.665 59.2697 168.787 59.208 168.894 59.0972C169.003 58.9885 169.102 58.8117 169.192 58.5671L169.33 58.1906L167.548 53.3472H168.351L169.681 57.1868H169.731L171.061 53.3472H171.864L169.819 58.8682C169.727 59.1171 169.613 59.3231 169.477 59.4862C169.341 59.6514 169.183 59.7737 169.004 59.8532C168.826 59.9327 168.625 59.9724 168.401 59.9724Z" fill="#191970"/>
<path d="M78.543 28.4768C77.4355 27.8148 76.2256 27.2778 74.915 26.8638C73.6025 26.4508 72.3105 26.0988 71.041 25.8088C69.6875 25.4788 68.5508 25.1378 67.6289 24.7858C66.707 24.4348 66.0293 24.0217 65.5986 23.5458C65.1689 23.0708 64.9531 22.4597 64.9531 21.7158C64.9531 20.6827 65.4346 19.8657 66.3984 19.2657C67.3604 18.6677 68.5605 18.3668 69.9951 18.3668C71.5117 18.3668 72.917 18.6768 74.208 19.2968C75.499 19.9177 76.5537 20.9098 77.375 22.2748L81.125 19.3588C80.0586 17.4578 78.5625 16.0208 76.6357 15.0488C74.709 14.0778 72.5781 13.5908 70.2412 13.5908C66.9619 13.5908 64.3271 14.3878 62.3408 15.9788C60.3516 17.5708 59.3584 19.6688 59.3584 22.2748C59.3584 23.7628 59.6543 25.0138 60.25 26.0267C60.8438 27.0398 61.623 27.8668 62.5869 28.5078C63.5488 29.1488 64.625 29.6758 65.8145 30.0878C67.0029 30.5028 68.1709 30.8738 69.3193 31.2048C70.5898 31.4948 71.7578 31.8358 72.8232 32.2288C73.8896 32.6218 74.751 33.1178 75.4062 33.7168C76.0615 34.3168 76.3896 35.1128 76.3896 36.1047C76.3896 37.3447 75.8672 38.3488 74.8223 39.1118C73.7773 39.8778 72.3516 40.2598 70.5498 40.2598C68.499 40.2598 66.7451 39.7538 65.292 38.7397C63.8369 37.7278 62.7188 36.5178 61.9404 35.1128L57.8203 38.7087C58.5176 39.7848 59.4502 40.8287 60.6182 41.8418C61.7861 42.8558 63.1904 43.6808 64.8311 44.3218C66.4697 44.9628 68.3555 45.2828 70.4873 45.2828C72.8643 45.2828 74.9346 44.8698 76.6973 44.0427C78.46 43.2158 79.834 42.0698 80.8174 40.6008C81.8018 39.1338 82.2939 37.4277 82.2939 35.4847C82.2939 33.7068 81.9443 32.2598 81.248 31.1428C80.5508 30.0267 79.6484 29.1378 78.543 28.4768Z" fill="#191970"/>
<path d="M100.361 13.5908C97.7783 13.5908 95.3896 14.0367 93.1973 14.9248C91.0039 15.8148 89.0059 17.2097 87.2012 19.1107L90.9521 23.0178C92.3057 21.5298 93.7295 20.4548 95.2266 19.7938C96.7227 19.1318 98.291 18.8008 99.9307 18.8008C102.267 18.8008 104.051 19.3807 105.28 20.5367C106.51 21.6958 107.125 23.3497 107.125 25.4988V26.4918H98.0244C96.5078 26.4918 95.083 26.6257 93.751 26.8948C92.4189 27.1638 91.2393 27.6298 90.2158 28.2898C89.1084 28.9518 88.2061 29.8928 87.5098 31.1118C86.8125 32.3318 86.4648 33.7898 86.4648 35.4847C86.4648 37.4277 86.9355 39.1338 87.8789 40.6008C88.8203 42.0698 90.1533 43.2158 91.876 44.0427C93.5977 44.8698 95.5859 45.2828 97.8408 45.2828C99.8076 45.2828 101.581 44.8698 103.158 44.0427C104.736 43.2158 106.059 42.0068 107.125 40.4158C107.161 40.3607 107.189 40.2988 107.226 40.2438V45.2828H113.15V25.4988C113.15 21.7368 112.033 18.8118 109.8 16.7238C107.564 14.6357 104.42 13.5908 100.361 13.5908ZM107.125 31.9487C107.125 33.5618 106.734 34.9988 105.956 36.2588C105.177 37.5217 104.143 38.5138 102.852 39.2368C101.56 39.9597 100.135 40.3218 98.5771 40.3218C96.7324 40.3218 95.2578 39.8878 94.1504 39.0198C93.0439 38.1508 92.4902 36.9938 92.4902 35.5468C92.4902 34.8018 92.6338 34.1508 92.9209 33.5928C93.208 33.0348 93.5977 32.5698 94.0889 32.1978C94.7051 31.7428 95.4512 31.4437 96.334 31.2977C97.2148 31.1538 98.0645 31.0808 98.8857 31.0808H107.125V31.9487Z" fill="#191970"/>
<path d="M137.429 15.6378C136.525 15.1008 135.636 14.7178 134.754 14.4897C133.872 14.2638 132.94 14.1488 131.956 14.1488C130.562 14.1488 129.147 14.5317 127.714 15.2958C126.277 16.0618 125.039 17.1168 123.993 18.4597C123.776 18.7378 123.59 19.0328 123.409 19.3318V13.6777H117.321V45.2828H123.409V31.3287C123.409 29.7158 123.461 28.4448 123.562 27.5148C123.665 26.5847 123.799 25.8298 123.963 25.2507C124.332 24.0527 124.874 23.0798 125.593 22.3358C126.309 21.5918 127.118 21.0548 128.021 20.7228C128.922 20.3928 129.845 20.2268 130.788 20.2268C131.402 20.2268 132.058 20.3098 132.756 20.4747C133.451 20.6407 134.025 20.8478 134.477 21.0947L137.429 15.6378Z" fill="#191970"/>
<path d="M162.924 16.7238C160.689 14.6357 157.545 13.5908 153.485 13.5908C153.466 13.5908 153.446 13.5918 153.427 13.5918L153.389 13.5908C150.806 13.5908 148.417 14.0367 146.225 14.9248C144.03 15.8148 142.032 17.2097 140.229 19.1107L143.979 23.0178C143.997 23.0007 144.013 22.9847 144.028 22.9668L144.077 23.0178C145.431 21.5298 146.854 20.4548 148.352 19.7938C149.836 19.1378 151.392 18.8077 153.018 18.8027C155.323 18.8127 157.088 19.3907 158.307 20.5367C159.536 21.6958 160.151 23.3497 160.151 25.4988V26.4918H151.149H151.052C149.534 26.4918 148.109 26.6257 146.777 26.8948C145.445 27.1638 144.267 27.6298 143.242 28.2898C142.136 28.9518 141.232 29.8928 140.536 31.1118C139.839 32.3318 139.491 33.7898 139.491 35.4847C139.491 37.4277 139.963 39.1338 140.905 40.6008C141.848 42.0698 143.181 43.2158 144.902 44.0427C146.624 44.8698 148.611 45.2828 150.867 45.2828L150.913 45.2817C150.931 45.2817 150.947 45.2828 150.965 45.2828C152.933 45.2828 154.705 44.8698 156.283 44.0427C157.861 43.2158 159.184 42.0068 160.25 40.4158L160.266 40.3878L160.351 41.3657V45.2828H166.274V25.4988C166.274 21.7368 165.157 18.8118 162.924 16.7238ZM160.151 31.0808V31.9487C160.151 33.5618 159.762 34.9988 158.982 36.2598C158.203 37.5217 157.17 38.5138 155.878 39.2368C154.601 39.9528 153.192 40.3127 151.653 40.3198C149.833 40.3127 148.373 39.8798 147.275 39.0198C146.169 38.1508 145.614 36.9938 145.614 35.5468C145.614 34.8018 145.759 34.1508 146.046 33.5928C146.333 33.0348 146.723 32.5698 147.214 32.1978C147.828 31.7428 148.576 31.4437 149.459 31.2977C150.34 31.1538 151.189 31.0808 152.01 31.0808H160.151Z" fill="#191970"/>
<path d="M171.72 13.5908L170.947 15.7937L170.165 13.5908H169.344V16.7462H169.845V14.097L170.777 16.5179H171.108L172.021 14.1367V16.7462H172.532V13.5908H171.72Z" fill="#191970"/>
<path d="M166.275 14.0573H167.208V16.7462H167.719V14.0573H168.641V13.5908H166.275V14.0573Z" fill="#191970"/>
<path d="M25.8765 46.0978L20.8149 51.2028L0.551758 30.7732L5.61279 25.6592L25.8765 46.0978Z" fill="#66CC00"/>
<path d="M41.0688 51.2026L20.8149 71.6412L0.551758 51.2026L5.61279 46.0977H5.62207L20.8149 61.4219L36.0078 46.0977L41.0688 51.2026Z" fill="#66CC00"/>
<path d="M41.0688 20.5538L36.0078 25.6591L20.8149 10.3346L5.61279 25.6591L0.551758 20.5538L20.8062 0.115234L41.0688 20.5538Z" fill="#66CC00"/>
<path d="M41.0693 40.9832L36.0083 46.0975L15.7451 25.6589L20.8154 20.5537L41.0693 40.9832Z" fill="#66CC00"/>
</svg>
