<svg width="25" height="25" viewBox="0 0 25 25" fill="none" xmlns="http://www.w3.org/2000/svg">
<path d="M22.9307 0.000143334H2.33984C2.10645 -0.00278635 1.88281 0.0392058 1.66895 0.125143C1.44531 0.211081 1.25098 0.337057 1.08594 0.499167C0.919922 0.6603 0.793945 0.853659 0.697266 1.06655C0.609375 1.27846 0.561523 1.50698 0.550781 1.73842V22.5675C0.561523 22.799 0.609375 23.0275 0.697266 23.2404C0.793945 23.4533 0.919922 23.6457 1.08594 23.8078C1.25098 23.9679 1.44531 24.0949 1.66895 24.1808C1.88281 24.2677 2.10645 24.3087 2.33984 24.3068H22.9307C23.1553 24.3087 23.3877 24.2677 23.6025 24.1808C23.8164 24.0949 24.0107 23.9679 24.1758 23.8078C24.3516 23.6457 24.4775 23.4533 24.5742 23.2404C24.6621 23.0275 24.7109 22.799 24.7109 22.5675V1.73842C24.7109 1.50698 24.6621 1.27846 24.5742 1.06655C24.4775 0.853659 24.3516 0.6603 24.1758 0.499167C24.0107 0.337057 23.8164 0.211081 23.6025 0.125143C23.3877 0.0392058 23.1553 -0.00278635 22.9307 0.000143334ZM7.88184 20.3439H4.23633V9.40639H7.88184V20.3439ZM6.06348 7.87514C5.55859 7.87514 5.07227 7.67592 4.72168 7.32046C4.3623 6.96401 4.16797 6.48257 4.16797 5.97964C4.16797 5.47768 4.3623 4.99428 4.72168 4.63882C5.07227 4.28432 5.55859 4.08315 6.06348 4.08315C6.32617 4.05288 6.59766 4.07925 6.85156 4.16128C7.11328 4.24331 7.34668 4.3771 7.54102 4.55678C7.74512 4.7355 7.91113 4.95425 8.01855 5.19936C8.125 5.44448 8.18359 5.71108 8.18359 5.97964C8.18359 6.24819 8.125 6.51479 8.01855 6.75893C7.91113 7.00405 7.74512 7.22475 7.54102 7.40346C7.34668 7.5812 7.11328 7.71596 6.85156 7.79702C6.59766 7.87905 6.32617 7.90542 6.06348 7.87514ZM21.0361 20.3439H17.3896V14.4748C17.3896 13.0031 16.8652 12.0441 15.543 12.0441C15.125 12.047 14.7266 12.1749 14.3955 12.4113C14.0654 12.6496 13.8018 12.9826 13.666 13.3683C13.5693 13.6544 13.5303 13.9542 13.5498 14.255V20.3312H9.9043V9.39565H13.5498V10.9386C13.8799 10.3634 14.3564 9.88979 14.9404 9.56948C15.5234 9.24721 16.1738 9.08999 16.8359 9.11538C19.2666 9.11538 21.0361 10.6837 21.0361 14.049V20.3439Z" fill="white"/>
</svg>
