<svg width="25" height="24" viewBox="0 0 25 24" fill="none" xmlns="http://www.w3.org/2000/svg">
<path d="M21.1357 0H4.2862C2.31164 0 0.710938 1.6007 0.710938 3.57526V20.4247C0.710938 22.3993 2.31164 24 4.2862 24H21.1357C23.1102 24 24.7109 22.3993 24.7109 20.4247V3.57526C24.7109 1.6007 23.1102 0 21.1357 0Z" fill="white"/>
<path d="M16.2393 20.7273L11.4771 13.9486L5.52212 20.7273H3.98047L10.7935 12.9762L3.98333 3.27148H9.18319L13.6909 9.68693L19.3341 3.27148H20.8729L14.3745 10.6651L21.442 20.7273H16.2422H16.2393Z" fill="#191970"/>
<path d="M12.8817 10.6139L8.44547 4.40723H6.08008L11.5745 12.0955L12.2696 13.0622L16.9746 19.6493H19.3371L13.571 11.5806L12.8817 10.6139Z" fill="white"/>
</svg>
