<svg width="25" height="24" viewBox="0 0 25 24" fill="none" xmlns="http://www.w3.org/2000/svg">
<g clip-path="url(#clip0_26_463)">
<path d="M21.1357 0H4.2862C2.31164 0 0.710938 1.6007 0.710938 3.57526V20.4247C0.710938 22.3993 2.31164 24 4.2862 24H21.1357C23.1102 24 24.7109 22.3993 24.7109 20.4247V3.57526C24.7109 1.6007 23.1102 0 21.1357 0Z" fill="#191970"/>
<path d="M16.2393 20.7278L11.4771 13.9491L5.52212 20.7278H3.98047L10.7935 12.9767L3.98333 3.27197H9.18319L13.6909 9.68742L19.3341 3.27197H20.8729L14.3745 10.6656L21.442 20.7278H16.2422H16.2393Z" fill="white"/>
<path d="M12.8817 10.6141L8.44547 4.40747H6.08008L11.5745 12.0957L12.2696 13.0625L16.9746 19.6495H19.3371L13.571 11.5809L12.8817 10.6141Z" fill="#191970"/>
</g>
<defs>
<clipPath id="clip0_26_463">
<rect width="24" height="24" fill="white" transform="translate(0.710938)"/>
</clipPath>
</defs>
</svg>
