<svg width="25" height="24" viewBox="0 0 25 24" fill="none" xmlns="http://www.w3.org/2000/svg">
<path d="M12.7109 0C9.45062 0 9.0438 0.0142247 7.76357 0.0711238C6.48619 0.128023 5.61279 0.332859 4.85034 0.628734C4.06229 0.935989 3.39088 1.34566 2.72516 2.01422C2.0566 2.68279 1.64693 3.35135 1.33967 4.1394C1.0438 4.90185 0.83896 5.77525 0.782061 7.05263C0.722317 8.33286 0.710938 8.74253 0.710938 12C0.710938 15.2575 0.725162 15.6671 0.782061 16.9474C0.83896 18.2248 1.0438 19.0982 1.33967 19.8606C1.64693 20.6486 2.0566 21.3201 2.72516 21.9858C3.39373 22.6543 4.06229 23.064 4.85034 23.3713C5.61279 23.6671 6.48619 23.872 7.76357 23.9289C9.0438 23.9886 9.45347 24 12.7109 24C15.9684 24 16.3781 23.9858 17.6583 23.9289C18.9357 23.872 19.8091 23.6671 20.5715 23.3713C21.3596 23.064 22.031 22.6543 22.6967 21.9858C23.3653 21.3172 23.775 20.6486 24.0822 19.8606C24.3781 19.0982 24.5829 18.2248 24.6398 16.9474C24.6996 15.6671 24.7109 15.2575 24.7109 12C24.7109 8.74253 24.6967 8.33286 24.6398 7.05263C24.5829 5.77525 24.3781 4.90185 24.0822 4.1394C23.775 3.35135 23.3653 2.67994 22.6967 2.01422C22.0281 1.34566 21.3596 0.935989 20.5715 0.628734C19.8091 0.332859 18.9357 0.128023 17.6583 0.0711238C16.3781 0.0113798 15.9684 0 12.7109 0Z" fill="white"/>
<path d="M12.7109 7C9.94778 7 7.71094 9.23942 7.71094 12C7.71094 14.7606 9.95036 17 12.7109 17C15.4715 17 17.7109 14.7606 17.7109 12C17.7109 9.23942 15.4715 7 12.7109 7Z" fill="#191970"/>
<path d="M19.7109 7C18.6085 7 17.7109 6.10601 17.7109 5C17.7109 3.89399 18.6049 3 19.7109 3C20.8169 3 21.7109 3.89399 21.7109 5" stroke="#191970" stroke-linecap="round" stroke-linejoin="round"/>
</svg>
